<svg width="45" height="56" viewBox="0 0 45 56" fill="none" xmlns="http://www.w3.org/2000/svg">
<path d="M2 0.200195H27.0635C27.5976 0.200263 28.1043 0.437328 28.4463 0.847656L44.1826 19.7314C44.4521 20.0549 44.5995 20.4628 44.5996 20.8838V54C44.5996 54.9941 43.7939 55.7998 42.7998 55.7998H2C1.00589 55.7998 0.200195 54.9941 0.200195 54V2C0.200195 1.00589 1.00589 0.200195 2 0.200195Z" fill="url(#paint0_linear_1063_3661)" stroke="#B7B7B7" stroke-width="0.4"/>
<path d="M32.5571 19.8376L23.0746 14.0889C22.8968 13.9704 22.6597 13.9704 22.4819 14.0889L12.9995 19.8376C12.8217 19.8968 12.7031 20.1339 12.7031 20.3117C12.7031 20.3709 12.7031 20.4302 12.7624 20.4895C12.7624 20.5487 12.7031 20.608 12.7031 20.6673V31.0388C12.7031 31.0981 12.7031 31.1573 12.7624 31.2166C12.7031 31.4537 12.7624 31.75 12.9995 31.8686L22.4819 37.6172H22.5412H22.6005C22.6597 37.6172 22.719 37.6765 22.7783 37.6765C22.8375 37.6765 22.8968 37.6765 22.956 37.6172H23.0153H23.0746L32.5571 31.8686C32.7941 31.75 32.8534 31.4537 32.7941 31.2166C32.7941 31.1573 32.8534 31.0981 32.8534 31.0388V20.6081V20.4896V20.3118C32.8534 20.134 32.7348 19.8968 32.5571 19.8376ZM13.8883 21.3785L22.1855 26.4159V36.0167L13.8883 30.9793V21.3785ZM23.3708 26.4159L31.668 21.3785V30.9793L23.3708 36.0167V26.4159ZM22.7782 15.274L31.1345 20.371L22.7782 25.4085L14.4218 20.3115L22.7782 15.274Z" fill="#7A7A7A"/>
<path d="M18.2221 46.7777C17.7255 46.7777 17.2819 46.6922 16.8914 46.521C16.5033 46.3499 16.196 46.1124 15.9694 45.8087C15.7452 45.5025 15.6247 45.1482 15.6078 44.7456H16.7432C16.7576 44.965 16.8312 45.1554 16.9637 45.3169C17.0987 45.476 17.2747 45.599 17.4917 45.6857C17.7086 45.7725 17.9497 45.8159 18.2148 45.8159C18.5065 45.8159 18.7644 45.7653 18.9886 45.664C19.2152 45.5628 19.3924 45.4218 19.5201 45.241C19.6479 45.0578 19.7118 44.8469 19.7118 44.6082C19.7118 44.3599 19.6479 44.1418 19.5201 43.9538C19.3948 43.7633 19.2104 43.6139 18.9669 43.5054C18.7259 43.3969 18.4342 43.3427 18.0919 43.3427H17.4663V42.4315H18.0919C18.3667 42.4315 18.6077 42.3821 18.8151 42.2832C19.0248 42.1844 19.1887 42.047 19.3068 41.871C19.4249 41.6926 19.484 41.4841 19.484 41.2455C19.484 41.0165 19.4322 40.8176 19.3285 40.6489C19.2273 40.4777 19.0826 40.3439 18.8946 40.2475C18.709 40.1511 18.4896 40.1029 18.2365 40.1029C17.9955 40.1029 17.7701 40.1475 17.5604 40.2367C17.353 40.3234 17.1843 40.4488 17.0541 40.6127C16.924 40.7742 16.8541 40.9683 16.8444 41.1949H15.7633C15.7753 40.7947 15.8935 40.4428 16.1176 40.139C16.3442 39.8353 16.6431 39.5979 17.0144 39.4267C17.3856 39.2556 17.7978 39.17 18.251 39.17C18.7259 39.17 19.1357 39.2628 19.4804 39.4484C19.8275 39.6316 20.0951 39.8763 20.2831 40.1824C20.4735 40.4886 20.5675 40.8236 20.5651 41.1876C20.5675 41.6022 20.4518 41.9542 20.218 42.2435C19.9866 42.5327 19.678 42.7268 19.2923 42.8256V42.8835C19.7841 42.9582 20.165 43.1534 20.435 43.4692C20.7073 43.785 20.8423 44.1767 20.8399 44.6444C20.8423 45.0518 20.729 45.417 20.5 45.74C20.2734 46.063 19.9637 46.3173 19.5708 46.5029C19.1778 46.6861 18.7283 46.7777 18.2221 46.7777ZM24.3003 46.785C23.8519 46.785 23.4518 46.6705 23.0998 46.4415C22.7503 46.21 22.4755 45.881 22.2754 45.4543C22.0778 45.0252 21.9789 44.5106 21.9789 43.9104C21.9789 43.3101 22.079 42.7967 22.279 42.37C22.4815 41.9433 22.7587 41.6167 23.1107 41.3901C23.4626 41.1635 23.8616 41.0502 24.3075 41.0502C24.6522 41.0502 24.9294 41.1081 25.1392 41.2238C25.3513 41.3371 25.5152 41.4697 25.6309 41.6215C25.749 41.7734 25.8406 41.9072 25.9057 42.0229H25.9708V39.2712H27.0519V46.6765H25.9961V45.8123H25.9057C25.8406 45.9304 25.7466 46.0654 25.6237 46.2173C25.5032 46.3691 25.3368 46.5017 25.1247 46.615C24.9126 46.7283 24.6378 46.785 24.3003 46.785ZM24.5389 45.8629C24.8499 45.8629 25.1126 45.781 25.3272 45.617C25.5441 45.4507 25.7081 45.2205 25.8189 44.9264C25.9322 44.6323 25.9889 44.29 25.9889 43.8995C25.9889 43.5138 25.9334 43.1763 25.8226 42.8871C25.7117 42.5978 25.549 42.3724 25.3344 42.2109C25.1199 42.0494 24.8547 41.9687 24.5389 41.9687C24.2135 41.9687 23.9423 42.053 23.7254 42.2218C23.5084 42.3905 23.3445 42.6207 23.2336 42.9124C23.1251 43.2041 23.0709 43.5331 23.0709 43.8995C23.0709 44.2707 23.1263 44.6046 23.2372 44.9011C23.3481 45.1976 23.512 45.4326 23.729 45.6062C23.9483 45.7773 24.2183 45.8629 24.5389 45.8629Z" fill="#7A7A7A"/>
<defs>
<linearGradient id="paint0_linear_1063_3661" x1="25.7683" y1="46.7684" x2="14.59" y2="-1.11891e-06" gradientUnits="userSpaceOnUse">
<stop stop-color="#EAEAEA"/>
<stop offset="1" stop-color="#FBFBFB"/>
</linearGradient>
</defs>
</svg>
