<svg width="57" height="60" viewBox="0 0 57 60" fill="none" xmlns="http://www.w3.org/2000/svg">
<path d="M0.467285 15.9082L24.9556 0.835815L49.8981 15.8471V41.1975V44.3569L45.1584 47.2339L42.654 48.8483L25.4781 59.2649L0.779603 44.6811L0.467285 15.9082Z" fill="url(#paint0_linear_1064_3713)"/>
<path d="M0.5 15.7744L25.5029 0.587219L49.8209 15.7744M0.5 15.7744V44.3738L25.5029 59.2729M0.5 15.7744L25.5029 31.1873M25.5029 59.2729V31.1873M25.5029 59.2729L49.8209 44.3738V15.7744M25.5029 31.1873L49.8209 15.7744" stroke="#B7B7B7"/>
<rect x="29.2031" y="37.0299" width="27" height="13" rx="1.5" fill="#F4008A"/>
<rect x="29.2031" y="37.0299" width="27" height="13" rx="1.5" stroke="#F3F3F3"/>
<path d="M34.1262 47.5299H32.9615L35.5787 40.2572H36.8464L39.4636 47.5299H38.2988L36.2427 41.5782H36.1859L34.1262 47.5299ZM34.3216 44.6819H38.1V45.6052H34.3216V44.6819ZM40.5138 47.5299V40.2572H43.1772C43.6933 40.2572 44.1206 40.3424 44.4592 40.5129C44.7977 40.681 45.051 40.9094 45.2191 41.1983C45.3872 41.4847 45.4712 41.8079 45.4712 42.1677C45.4712 42.4708 45.4156 42.7264 45.3043 42.9348C45.1931 43.1407 45.0439 43.3065 44.8569 43.4319C44.6722 43.555 44.4686 43.645 44.2461 43.7018V43.7728C44.4876 43.7847 44.7231 43.8628 44.9528 44.0072C45.1848 44.1493 45.3765 44.3517 45.5281 44.6145C45.6796 44.8772 45.7553 45.1968 45.7553 45.5733C45.7553 45.9449 45.6677 46.2788 45.4925 46.5747C45.3197 46.8682 45.0522 47.1014 44.69 47.2743C44.3278 47.4447 43.8649 47.5299 43.3015 47.5299H40.5138ZM41.6112 46.5889H43.195C43.7205 46.5889 44.0969 46.4871 44.3242 46.2835C44.5515 46.0799 44.6651 45.8254 44.6651 45.52C44.6651 45.2904 44.6071 45.0797 44.4911 44.8879C44.3751 44.6961 44.2094 44.5434 43.994 44.4298C43.7809 44.3162 43.5276 44.2593 43.234 44.2593H41.6112V46.5889ZM41.6112 43.4035H43.0813C43.3275 43.4035 43.5489 43.3562 43.7454 43.2615C43.9442 43.1668 44.1017 43.0342 44.2177 42.8637C44.3361 42.6909 44.3952 42.4873 44.3952 42.2529C44.3952 41.9523 44.2899 41.7002 44.0792 41.4966C43.8685 41.293 43.5453 41.1912 43.1097 41.1912H41.6112V43.4035ZM51.0234 42.1677C50.9856 41.8315 50.8293 41.5711 50.5547 41.3865C50.2801 41.1994 49.9344 41.1059 49.5178 41.1059C49.2195 41.1059 48.9614 41.1533 48.7436 41.248C48.5258 41.3403 48.3565 41.4681 48.2358 41.6315C48.1174 41.7925 48.0582 41.976 48.0582 42.1819C48.0582 42.3547 48.0985 42.5039 48.179 42.6294C48.2618 42.7548 48.3696 42.8602 48.5021 42.9454C48.6371 43.0283 48.7815 43.0981 48.9354 43.1549C49.0893 43.2094 49.2372 43.2544 49.3793 43.2899L50.0895 43.4745C50.3215 43.5314 50.5594 43.6083 50.8033 43.7054C51.0471 43.8024 51.2732 43.9303 51.4815 44.0889C51.6899 44.2475 51.858 44.444 51.9858 44.6784C52.116 44.9128 52.1811 45.1933 52.1811 45.52C52.1811 45.9319 52.0746 46.2977 51.8615 46.6173C51.6508 46.9369 51.3442 47.189 50.9418 47.3737C50.5417 47.5583 50.0575 47.6507 49.4893 47.6507C48.9448 47.6507 48.4737 47.5643 48.076 47.3914C47.6783 47.2186 47.367 46.9736 47.142 46.6564C46.9171 46.3368 46.7929 45.958 46.7692 45.52H47.87C47.8913 45.7828 47.9766 46.0018 48.1257 46.177C48.2772 46.3498 48.4702 46.4788 48.7045 46.564C48.9413 46.6469 49.2005 46.6883 49.4822 46.6883C49.7924 46.6883 50.0682 46.6398 50.3097 46.5427C50.5535 46.4433 50.7453 46.306 50.8849 46.1308C51.0246 45.9532 51.0945 45.7461 51.0945 45.5093C51.0945 45.2939 51.0329 45.1175 50.9098 44.9802C50.7891 44.8429 50.6245 44.7293 50.4162 44.6393C50.2102 44.5494 49.977 44.47 49.7166 44.4014L48.8572 44.167C48.2749 44.0084 47.8132 43.7752 47.4723 43.4674C47.1338 43.1597 46.9645 42.7525 46.9645 42.2458C46.9645 41.8268 47.0781 41.461 47.3054 41.1485C47.5327 40.836 47.8404 40.5934 48.2287 40.4206C48.617 40.2454 49.0549 40.1578 49.5426 40.1578C50.035 40.1578 50.4695 40.2442 50.8459 40.417C51.2247 40.5898 51.523 40.8278 51.7408 41.1308C51.9586 41.4315 52.0722 41.7771 52.0817 42.1677H51.0234Z" fill="#F3F3F3"/>
<defs>
<linearGradient id="paint0_linear_1064_3713" x1="25.7711" y1="54.1215" x2="27.4323" y2="0.890259" gradientUnits="userSpaceOnUse">
<stop stop-color="#D9D9D9"/>
<stop offset="1" stop-color="#FBFBFB"/>
</linearGradient>
</defs>
</svg>
