<svg width="188" height="188" viewBox="0 0 188 188" fill="none" xmlns="http://www.w3.org/2000/svg">
<rect width="187.88" height="187.88" rx="2" fill="#FFDAEF"/>
<mask id="mask0_1189_4009" style="mask-type:alpha" maskUnits="userSpaceOnUse" x="0" y="0" width="188" height="188">
<rect width="187.88" height="187.88" rx="2" fill="#FFDAEF"/>
</mask>
<g mask="url(#mask0_1189_4009)">
<ellipse cx="93.9394" cy="57.6652" rx="40.8906" ry="40.8932" fill="url(#paint0_radial_1189_4009)"/>
<path d="M93.9424 123.424C153.065 123.424 200.994 171.355 200.994 230.48C200.994 234.384 200.784 238.239 200.376 242.035C200.268 243.038 199.415 243.79 198.406 243.79H-10.5208C-11.5302 243.79 -12.3834 243.038 -12.4912 242.035C-12.899 238.239 -13.1094 234.384 -13.1094 230.48C-13.1094 171.355 34.8195 123.424 93.9424 123.424Z" fill="url(#paint1_radial_1189_4009)"/>
</g>
<defs>
<radialGradient id="paint0_radial_1189_4009" cx="0" cy="0" r="1" gradientTransform="matrix(-44.803 55.668 -55.6644 -44.806 111.548 34.7321)" gradientUnits="userSpaceOnUse">
<stop stop-color="#FF6DC0"/>
<stop offset="1" stop-color="#BE006B"/>
</radialGradient>
<radialGradient id="paint1_radial_1189_4009" cx="0" cy="0" r="1" gradientTransform="matrix(-117.295 81.9273 -145.73 -65.9415 140.043 149.856)" gradientUnits="userSpaceOnUse">
<stop stop-color="#FF6DC0"/>
<stop offset="1" stop-color="#BE006B"/>
</radialGradient>
</defs>
</svg>
