<svg width="49" height="56" viewBox="0 0 49 56" fill="none" xmlns="http://www.w3.org/2000/svg">
<mask id="path-1-inside-1_1165_3792" fill="white">
<path d="M48.5049 49.7852C48.6262 53.1807 45.9065 56 42.5088 56H6.14551C2.74784 56 0.028146 53.1807 0.149414 49.7852L1.85884 1.92861C1.89728 0.85251 2.78079 0 3.85757 0H8.05176C9.15633 0 10.0518 0.89543 10.0518 2V19.5303C10.0518 20.6348 10.9472 21.5303 12.0518 21.5303H36.6035C37.7081 21.5303 38.6035 20.6348 38.6035 19.5303V2C38.6035 0.895431 39.4989 0 40.6035 0H44.7977C45.8745 0 46.758 0.852531 46.7964 1.92864L48.5049 49.7852Z"/>
</mask>
<path d="M48.5049 49.7852C48.6262 53.1807 45.9065 56 42.5088 56H6.14551C2.74784 56 0.028146 53.1807 0.149414 49.7852L1.85884 1.92861C1.89728 0.85251 2.78079 0 3.85757 0H8.05176C9.15633 0 10.0518 0.89543 10.0518 2V19.5303C10.0518 20.6348 10.9472 21.5303 12.0518 21.5303H36.6035C37.7081 21.5303 38.6035 20.6348 38.6035 19.5303V2C38.6035 0.895431 39.4989 0 40.6035 0H44.7977C45.8745 0 46.758 0.852531 46.7964 1.92864L48.5049 49.7852Z" fill="url(#paint0_linear_1165_3792)"/>
<path d="M48.5049 49.7852L48.1051 49.7994L48.1051 49.7994L48.5049 49.7852ZM0.149414 49.7852L-0.250331 49.7709L-0.250331 49.7709L0.149414 49.7852ZM46.7964 1.92864L47.1961 1.91437L46.7964 1.92864ZM48.5049 49.7852L48.1051 49.7994C48.2183 52.9686 45.6799 55.6 42.5088 55.6V56V56.4C46.133 56.4 49.034 53.3927 48.9046 49.7709L48.5049 49.7852ZM42.5088 56V55.6H6.14551V56V56.4H42.5088V56ZM6.14551 56V55.6C2.97442 55.6 0.435973 52.9686 0.549159 49.7994L0.149414 49.7852L-0.250331 49.7709C-0.379681 53.3927 2.52126 56.4 6.14551 56.4V56ZM0.149414 49.7852L0.549159 49.7994L2.25859 1.94289L1.85884 1.92861L1.4591 1.91433L-0.250331 49.7709L0.149414 49.7852ZM3.85757 0V0.4H8.05176V0V-0.4H3.85757V0ZM10.0518 2H9.65176V19.5303H10.0518H10.4518V2H10.0518ZM12.0518 21.5303V21.9303H36.6035V21.5303V21.1303H12.0518V21.5303ZM38.6035 19.5303H39.0035V2H38.6035H38.2035V19.5303H38.6035ZM40.6035 0V0.4H44.7977V0V-0.4H40.6035V0ZM46.7964 1.92864L46.3966 1.94292L48.1051 49.7994L48.5049 49.7852L48.9046 49.7709L47.1961 1.91437L46.7964 1.92864ZM44.7977 0V0.4C45.6591 0.4 46.3659 1.08202 46.3966 1.94292L46.7964 1.92864L47.1961 1.91437C47.15 0.623037 46.0898 -0.4 44.7977 -0.4V0ZM38.6035 2H39.0035C39.0035 1.11634 39.7199 0.4 40.6035 0.4V0V-0.4C39.278 -0.4 38.2035 0.674517 38.2035 2H38.6035ZM36.6035 21.5303V21.9303C37.929 21.9303 39.0035 20.8558 39.0035 19.5303H38.6035H38.2035C38.2035 20.4139 37.4872 21.1303 36.6035 21.1303V21.5303ZM10.0518 19.5303H9.65176C9.65176 20.8558 10.7263 21.9303 12.0518 21.9303V21.5303V21.1303C11.1681 21.1303 10.4518 20.4139 10.4518 19.5303H10.0518ZM8.05176 0V0.4C8.93541 0.4 9.65176 1.11634 9.65176 2H10.0518H10.4518C10.4518 0.674516 9.37724 -0.4 8.05176 -0.4V0ZM1.85884 1.92861L2.25859 1.94289C2.28934 1.08201 2.99614 0.4 3.85757 0.4V0V-0.4C2.56543 -0.4 1.50523 0.623012 1.4591 1.91433L1.85884 1.92861Z" fill="#B7B7B7" mask="url(#path-1-inside-1_1165_3792)"/>
<path d="M34.1069 33.0335L24.6244 27.2849C24.4466 27.1663 24.2095 27.1663 24.0317 27.2849L14.5493 33.0335C14.3715 33.0928 14.2529 33.3298 14.2529 33.5076C14.2529 33.5669 14.2529 33.6262 14.3122 33.6854C14.3122 33.7447 14.2529 33.804 14.2529 33.8632V44.2348C14.2529 44.294 14.2529 44.3533 14.3122 44.4126C14.2529 44.6496 14.3122 44.9459 14.5493 45.0645L24.0317 50.8132H24.091H24.1503C24.2095 50.8132 24.2688 50.8724 24.3281 50.8724C24.3873 50.8724 24.4466 50.8724 24.5059 50.8132H24.5651H24.6244L34.1069 45.0645C34.3439 44.946 34.4032 44.6496 34.3439 44.4126C34.3439 44.3533 34.4032 44.294 34.4032 44.2348V33.8041V33.6855V33.5077C34.4032 33.3299 34.2847 33.0928 34.1069 33.0335ZM15.4381 34.5744L23.7353 39.6119V49.2127L15.4381 44.1752V34.5744ZM24.9206 39.6119L33.2178 34.5744V44.1752L24.9206 49.2127V39.6119ZM24.328 28.47L32.6843 33.567L24.328 38.6045L15.9716 33.5074L24.328 28.47Z" fill="#7A7A7A"/>
<defs>
<linearGradient id="paint0_linear_1165_3792" x1="27.9854" y1="46.7684" x2="17.6072" y2="-0.387774" gradientUnits="userSpaceOnUse">
<stop stop-color="#EAEAEA"/>
<stop offset="1" stop-color="#FBFBFB"/>
</linearGradient>
</defs>
</svg>
