<svg width="188" height="188" viewBox="0 0 188 188" fill="none" xmlns="http://www.w3.org/2000/svg">
<rect width="187.88" height="187.88" rx="2" fill="#FFDAEF"/>
<path d="M32.4247 111.873L31.1547 114.413C30.1133 114.068 29.8954 114.955 29.566 115.051C28.2961 115.418 27.77 114.413 27.6638 114.413C27.4512 114.413 27.2706 115.009 27.0314 115.051C25.6074 115.29 23.769 114.886 22.2705 115.051C22.1749 113.627 21.0166 112.734 21.9517 111.241C22.5309 110.317 23.4661 110.683 23.5405 110.604C24.2684 109.876 22.3768 108.749 22.2705 108.382C22.0261 107.543 23.1473 107.32 22.9029 106.475C22.786 106.06 22.2705 104.567 22.2705 104.567C22.6956 103.962 21.6382 103.51 21.6382 103.297C21.6382 100.375 22.1643 92.0219 22.9082 89.3173C23.1473 88.4564 21.8242 88.3289 22.9082 87.0962C20.1186 87.6913 22.7063 84.3278 22.2759 83.9186C22.1483 83.7964 22.2227 81.9473 22.2759 81.6975C22.499 80.6667 22.4459 76.5062 22.2759 75.3425C22.244 75.1406 21.1441 74.2266 21.6436 73.1214H38.7849C38.8753 73.1214 38.6415 73.8122 38.7849 74.0725C39.0187 74.487 39.4969 75.7144 39.4172 75.9801C39.2206 76.6603 42.0315 86.0228 42.5894 88.0526C42.8179 88.8815 43.1154 90.7997 43.2217 90.9113C43.3386 91.0282 44.3747 90.7944 44.4916 90.9113C44.6351 91.0548 44.3854 92.532 44.4916 93.1324C44.5448 93.43 45.0761 94.7478 45.1239 95.04C45.2462 95.768 44.9433 97.6862 45.1239 97.8987C46.2026 99.1846 46.6914 96.6978 46.3939 95.6776C46.3142 95.412 45.7616 95.2472 45.7616 95.04C45.7616 94.8009 47.0315 94.0092 47.0315 93.7701C47.0315 93.5575 46.3992 93.345 46.3992 93.1324C46.3992 92.8827 47.5682 92.2185 47.6691 91.8625C47.9295 90.9485 46.3673 88.398 47.0368 87.7338C47.1537 87.6169 47.6904 87.9038 47.9879 87.7338C49.396 86.9314 48.6999 85.8953 48.939 84.8751C49.2472 83.5626 51.1441 78.8813 50.8413 77.8877C50.0496 75.2787 51.1813 76.4105 51.4736 75.3478C51.633 74.7739 51.3036 73.2967 51.4736 73.1267C51.6649 72.9354 54.1622 73.2702 54.9646 73.1267C55.1452 73.0948 55.6287 72.1171 56.8668 72.4891C58.5034 72.9886 59.4492 72.9195 60.6766 73.1267C62.0475 73.3552 68.328 72.8451 68.615 73.1267C68.8009 73.3127 68.4821 75.8154 68.615 76.6231C68.8488 78.0312 68.8488 78.3925 68.615 79.8006C68.5299 80.316 68.514 82.5583 68.615 82.6593C68.7372 82.7815 69.7308 82.5318 69.8849 82.6593C70.2037 82.9197 69.2951 83.3979 69.2526 83.6104C68.7425 86.1716 68.6628 91.7668 69.2526 94.413C69.6989 96.4056 69.7361 98.0263 69.2526 100.13C68.8806 101.751 69.8849 102.532 69.8849 102.67C69.8849 103.51 68.0677 103.547 67.9827 103.621C67.5948 103.977 69.768 105.417 69.8849 105.843C70.4481 107.894 69.4757 112.059 69.8849 114.419C68.7319 114.265 68.2164 115.396 67.0262 115.056C65.65 114.658 64.7361 115.078 62.5841 114.419C61.3355 114.036 60.7882 115.056 60.6819 115.056C60.5756 115.056 59.125 113.574 59.0932 113.468C58.9816 113.08 59.1994 112.596 59.0932 112.198C59.0241 111.937 58.4608 111.773 58.4608 111.56C58.4608 111.454 59.4757 110.906 59.0932 109.652C58.684 108.297 58.6362 107.532 58.4608 106.475C57.8817 102.994 58.8222 98.1272 58.4608 94.4024C58.3705 93.4672 57.5629 95.1516 57.1909 94.4024C59.125 93.0102 56.6649 92.176 55.921 92.8136C55.5915 93.1005 56.6968 93.3397 56.2398 94.0836C56.0219 94.4343 55.294 94.8487 55.2887 95.0347C55.2887 95.1197 56.4577 96.1187 55.921 96.6235C55.7935 96.7457 54.8052 96.4959 54.6511 96.6235C54.3323 96.8838 55.2249 97.3408 55.2834 97.5746C55.6287 98.8764 54.7308 99.1846 54.6511 99.4822C54.5235 99.9498 54.7839 100.938 54.6511 101.071C54.5342 101.188 53.498 100.954 53.3811 101.071C53.1739 101.278 53.5512 103.765 53.3811 104.567C53.3333 104.785 52.1643 106.246 52.1112 106.475C51.7552 108.064 52.972 109.02 52.7435 110.604L49.5713 111.241L51.4736 111.879C50.7031 112.586 50.9316 114.328 50.8413 114.419C50.6925 114.562 49.226 114.312 48.6202 114.419C48.3758 114.461 48.1951 115.056 47.9879 115.056C47.7807 115.056 47.5947 114.461 47.3556 114.419C46.7552 114.318 45.9688 114.562 45.4534 114.419C45.0496 114.307 44.1037 112.867 43.5511 112.511C42.4725 112.995 44.1037 114.217 43.87 114.419C43.4661 114.764 40.9528 114.397 40.6978 113.468C40.3046 112.044 41.4523 110.705 41.3301 110.609C41.0113 110.348 39.5288 111.225 40.0602 109.339L43.2323 108.069C41.8083 108.329 39.2419 107.979 38.7902 106.48C38.3386 104.982 40.3949 103.919 40.0602 103.621C39.5182 103.138 38.328 104.445 38.1579 104.259C38.5086 103.239 37.5681 102.92 37.5256 102.67C37.3875 101.889 37.6903 100.848 37.5256 100.13C37.0846 98.2335 35.7722 95.0241 34.9858 93.143C34.7148 92.5001 35.5649 91.9369 33.7158 92.1919C34.04 91.0335 35.6553 90.8369 34.3481 89.9708L33.7158 86.4745C32.1324 85.9325 32.1165 87.6382 32.4459 88.6956C33.0888 90.7838 32.4459 90.194 32.4459 90.6031V111.889L32.4247 111.873ZM26.7126 94.7212C26.516 93.8498 24.7732 92.3088 24.1728 92.8136C23.3758 93.4831 25.3736 93.3822 25.4427 93.4512C25.6606 93.6691 24.8476 95.2844 26.7126 94.7212ZM24.8104 97.2611C24.9326 97.3674 25.4055 97.1389 25.7615 97.2611C25.9953 97.3408 26.7126 98.4354 26.7126 97.5799C26.7126 96.4428 23.8965 96.5012 24.8104 97.2611ZM24.8104 89.9549C24.8104 90.3693 25.4427 90.3693 25.4427 89.9549C25.4427 89.5404 24.8104 89.5404 24.8104 89.9549ZM26.7126 109.334L25.4427 110.604C26.7817 110.768 26.8774 110.673 26.7126 109.334ZM27.3449 110.285C27.3449 110.699 27.9773 110.699 27.9773 110.285C27.9773 109.87 27.3449 109.87 27.3449 110.285ZM27.9773 98.2122C27.9773 98.6267 28.6096 98.6267 28.6096 98.2122C28.6096 97.7978 27.9773 97.7978 27.9773 98.2122ZM28.6096 112.825C28.6096 113.239 29.2419 113.239 29.2419 112.825C29.2419 112.41 28.6096 112.41 28.6096 112.825ZM28.6096 94.0836C28.2057 94.5671 28.8168 95.8636 29.2419 95.3535C29.6457 94.87 29.0346 93.5735 28.6096 94.0836ZM32.4193 84.551C32.0155 85.0345 32.6266 86.331 33.0517 85.8209C33.4555 85.3374 32.8444 84.0408 32.4193 84.551ZM41.9412 112.825C41.9412 113.239 42.5735 113.239 42.5735 112.825C42.5735 112.41 41.9412 112.41 41.9412 112.825ZM43.2111 110.917C43.2111 111.332 43.8434 111.332 43.8434 110.917C43.8434 110.503 43.2111 110.503 43.2111 110.917ZM43.8434 107.421C43.4396 107.904 44.0506 109.201 44.4757 108.691C44.8795 108.207 44.2685 106.911 43.8434 107.421ZM45.1133 108.058C45.0708 108.101 45.0708 109.286 45.1133 109.328C45.634 109.849 46.5745 108.728 46.7021 108.691C47.0581 108.59 49.1197 108.749 48.2908 108.053C48.1686 107.952 45.2302 107.941 45.1186 108.053L45.1133 108.058ZM48.9231 112.825C48.9231 113.239 49.5554 113.239 49.5554 112.825C49.5554 112.41 48.9231 112.41 48.9231 112.825ZM59.0825 91.5383C60.0124 90.6085 57.7701 87.7976 57.1803 89.9496C56.8987 90.9698 58.6574 91.9687 59.0825 91.5383ZM58.4502 85.1833C58.158 84.8166 56.6543 86.5595 57.1803 87.0909C58.2111 88.127 59.0028 85.8687 58.4502 85.1833Z" fill="#F4008A"/>
<path d="M148.929 89.7578C149.083 91.0225 148.993 91.1128 147.729 90.9587L148.929 89.7578Z" fill="#F4008A"/>
<path d="M148.926 84.9545C149.409 85.3584 148.182 85.9375 147.725 85.555C147.242 85.1511 148.469 84.5719 148.926 84.9545Z" fill="#F4008A"/>
<path d="M147.131 87.356C147.535 86.8724 148.114 88.0999 147.731 88.5569C147.328 89.0404 146.748 87.8129 147.131 87.356Z" fill="#F4008A"/>
<path d="M147.731 86.4579C147.731 86.07 148.332 86.07 148.332 86.4579C148.332 86.8458 147.731 86.8458 147.731 86.4579Z" fill="#F4008A"/>
<path d="M152.203 77.85C152.718 77.3452 150.524 74.1145 152.511 73.5672C153.845 73.2006 156.905 73.7001 158.627 73.5672C158.845 73.5513 159.015 72.9774 159.238 72.9562C160.588 72.8286 164.695 72.6055 165.046 73.8754C165.529 75.6289 164.7 79.1518 165.046 81.2188C165.391 83.2858 166.316 88.6844 165.657 91.6175C164.95 94.7738 166.135 99.1469 165.657 102.016C165.354 103.834 166.077 106.357 166.268 107.521C166.523 109.046 166.374 114.11 164.738 114.556C164.217 114.7 163.42 114.413 162.904 114.556C162.49 114.668 159.334 114.71 158.627 114.556C158.021 114.424 154.876 114.413 154.35 114.556C153.526 114.785 151.597 115.476 151.597 115.476C152.681 115.051 150.986 112.181 150.986 111.804C150.986 111.671 151.874 110.97 151.597 109.354C151.555 109.121 150.986 108.945 150.986 108.743C150.986 108.515 152.474 106.028 152.208 105.072C151.666 103.095 151.725 100.698 152.208 98.9556C152.41 98.2277 151.082 96.963 150.986 96.5061C150.396 93.7749 152.32 89.9437 151.597 86.7184C150.938 83.7853 152.187 81.7342 151.597 78.7639C151.555 78.5567 152.091 77.9616 152.208 77.8447L152.203 77.85Z" fill="#F4008A"/>
<path d="M109.852 73.0524C110.006 73.2064 109.746 75.1353 109.852 75.8261C110.761 81.5594 109.597 88.9135 111.085 94.3015C111.308 95.1144 110.527 95.2845 110.468 95.5342C109.995 97.6596 111.005 101.586 110.468 103.542C110.383 103.845 109.496 104.349 109.236 104.775C108.662 105.731 108.561 108.34 107.084 108.776C104.416 109.567 106.069 109.801 104.624 110.625C104.337 110.79 103.816 110.508 103.699 110.625C103.619 110.705 103.912 111.746 102.774 112.474C101.473 113.308 99.4163 113.393 97.8541 113.707C96.8339 113.909 91.6586 115.104 91.0847 114.939C89.1294 114.376 86.7808 115.131 86.1644 114.939C85.0752 114.599 83.5555 113.988 82.4715 113.707C81.3716 113.42 79.7351 113.356 78.7786 113.09C78.3695 112.979 77.5034 111.56 76.9349 111.241C76.6426 111.076 76.1272 111.358 76.0103 111.241C75.8934 111.124 76.175 110.609 76.0103 110.317C75.7765 109.892 75.0326 109.52 74.7776 109.084C74.4163 108.473 72.9816 106.183 72.9338 106.007C72.3971 104.142 71.5416 102.649 71.09 101.082C70.8562 100.269 71.9402 100.051 71.7064 99.2325C71.2388 97.6225 71.345 97.0805 71.09 95.5395C70.5905 92.532 72.0199 86.1557 71.09 81.9898C70.6649 80.0769 70.5055 79.8006 71.09 77.6805C71.3132 76.8781 70.4736 76.6072 70.4736 76.4477C70.4736 76.2405 71.0475 76.0705 71.09 75.8314C71.2335 74.9971 70.8296 73.3871 72.0145 73.0577C72.5512 72.9089 73.5555 74.0141 75.0911 73.674C76.2335 73.419 75.7606 72.7495 77.5512 73.0577C78.8158 73.2755 79.3047 72.8398 80.6277 73.0577C82.87 73.4296 84.6979 71.8674 84.0124 75.215C82.9923 80.1779 84.3472 85.8528 83.3961 91.2249C85.2399 92.6383 84.3578 92.617 84.0124 93.6904C83.8956 94.057 84.124 94.5353 84.0124 94.9231C83.9009 95.311 82.7319 95.7893 82.7797 96.4641C85.0326 95.6989 83.5449 99.0784 84.0124 99.5407C84.1293 99.6576 85.1283 99.4238 85.2452 99.5407C85.4099 99.7054 85.1177 101.624 85.2452 102.314C85.2824 102.532 85.75 102.665 85.8616 102.931C85.9997 103.26 85.7553 103.728 85.8616 103.855C86.1113 104.158 86.6267 103.239 86.7861 103.239C86.8977 103.239 88.2898 104.334 88.6299 104.472C88.97 104.61 89.4747 104.349 89.8626 104.472C90.1602 104.567 90.2877 105.311 91.0954 105.088C91.3345 105.024 91.462 104.551 91.7117 104.472C92.0784 104.355 92.5566 104.583 92.9445 104.472C93.2845 104.376 93.8265 103.345 94.1772 103.239C94.6235 103.106 95.5853 103.372 95.7181 103.239C95.8722 103.085 95.564 101.544 95.7181 101.39C95.835 101.273 97.4928 101.826 96.9508 100.465C96.8446 100.194 96.3345 100.04 96.3345 99.8489C96.3345 99.5991 98.0029 98.9083 97.5672 97.3833C97.4662 97.0326 95.9891 96.1612 96.3345 95.8424C96.462 95.7255 97.4503 95.9593 97.5672 95.8424C97.6628 95.7468 97.6575 93.5469 97.5672 93.0687C97.2112 91.1558 97.0359 90.0612 97.5672 88.143C97.7851 87.3513 96.6586 86.8465 96.9508 86.602C97.0996 86.4798 98.0667 86.7189 98.1836 86.602C98.3005 86.4851 98.2633 83.8018 98.1836 83.2173C98.1517 82.9888 97.5885 82.8241 97.5672 82.6009C97.4875 81.7401 97.089 73.0577 97.5672 73.0577C99.3153 73.0577 109.438 72.6219 109.873 73.0577L109.852 73.0524Z" fill="#F4008A"/>
<path d="M113.762 114.669C112.147 114.222 113.098 109.769 112.837 108.181C112.258 104.7 113.103 100.03 112.221 95.1996C111.849 93.1698 113.209 91.666 112.837 89.6362C112.115 85.6669 112.763 82.3938 112.221 79.1312C111.557 75.146 112.439 72.5264 116.854 73.2597C117.088 73.2969 117.269 73.8761 117.471 73.8761C117.673 73.8761 117.853 73.2969 118.087 73.2597C121.466 72.6964 136.833 72.7496 140.319 73.2597C140.547 73.2916 140.696 73.8282 140.935 73.8761C141.509 73.993 142.29 73.7326 142.79 73.8761C143.289 74.0195 143.868 74.2693 144.644 74.4924C144.841 74.5509 146.892 76.4266 147.731 76.9633C149.118 77.8506 148.411 78.6902 148.656 79.7423C148.714 79.9814 149.219 80.1195 149.272 80.3587C149.431 81.0654 149.139 82.075 149.272 82.8295C149.586 84.5723 149.899 83.6478 149.272 85.922C149.049 86.735 149.803 86.8678 149.888 87.1601C150.388 88.7967 148.22 90.2313 148.034 90.869C147.519 92.665 147.45 92.1761 146.801 93.3398C146.637 93.632 146.918 94.1528 146.801 94.2644C146.668 94.3972 145.701 94.1315 145.255 94.2644C144.261 94.5566 143.332 96.5811 143.709 97.6651C144.495 98.8925 146.079 100.29 146.796 101.374C146.886 101.507 146.7 101.831 146.796 101.99C148.741 105.279 150.191 108.489 151.738 111.879C151.939 112.315 153.448 114.18 152.97 114.658C152.333 115.296 150.919 114.058 150.808 114.042C148.937 113.712 144.575 115.434 144.012 115.28C143.603 115.168 142.497 114.716 142.157 114.663C141.015 114.472 138.549 115.152 138.146 113.739C138.029 113.335 138.289 112.819 138.146 112.501C137.173 110.333 133.863 107.054 133.204 105.083C133.061 104.652 133.342 103.675 133.204 103.537C133.05 103.383 131.504 103.691 131.35 103.537C131.195 103.383 131.488 101.948 131.35 101.374C131.28 101.087 130.377 100.805 130.733 100.136C129.867 99.2273 126.668 97.1231 125.792 97.9733C125.154 98.5949 126.371 99.9712 126.408 100.136C126.791 101.815 125.616 102.198 126.408 105.083C126.466 105.306 125.499 107.718 125.792 109.408C125.808 109.488 126.918 110.46 126.408 110.954C126.265 111.098 125.138 110.62 125.175 111.263C126.334 111.996 125.228 113.489 126.408 114.355C125.383 115.901 125.117 114.663 124.862 114.663C122.327 114.663 115.59 115.173 113.746 114.663L113.762 114.669ZM134.144 89.328C134.415 89.2483 136.227 88.0687 136.307 87.7818C136.69 86.3737 136.323 82.957 134.761 82.5266C133.794 82.2609 132.104 82.7604 131.057 82.5266C130.818 82.4735 130.685 81.9793 130.441 81.9102C129.771 81.7243 129.973 82.5479 127.97 81.9102C125.085 80.991 126.041 85.1356 125.808 86.5437C125.77 86.7828 125.765 87.5427 125.808 87.7818C125.909 88.3716 125.669 89.8062 125.808 89.9444C126.047 90.1835 132.359 90.1835 132.604 89.9444C132.72 89.8275 133.353 89.5565 134.15 89.328H134.144Z" fill="#F4008A"/>
</svg>
