<svg width="45" height="56" viewBox="0 0 45 56" fill="none" xmlns="http://www.w3.org/2000/svg">
<path d="M2 0.200195H27.0635C27.5976 0.200263 28.1043 0.437328 28.4463 0.847656L44.1826 19.7314C44.4521 20.0549 44.5995 20.4628 44.5996 20.8838V54C44.5996 54.9941 43.7939 55.7998 42.7998 55.7998H2C1.00589 55.7998 0.200195 54.9941 0.200195 54V2C0.200195 1.00589 1.00589 0.200195 2 0.200195Z" fill="url(#paint0_linear_1063_3666)" stroke="#B7B7B7" stroke-width="0.4"/>
<path d="M32.5571 19.8376L23.0746 14.0889C22.8968 13.9704 22.6597 13.9704 22.4819 14.0889L12.9995 19.8376C12.8217 19.8968 12.7031 20.1339 12.7031 20.3117C12.7031 20.3709 12.7031 20.4302 12.7624 20.4895C12.7624 20.5487 12.7031 20.608 12.7031 20.6673V31.0388C12.7031 31.0981 12.7031 31.1573 12.7624 31.2166C12.7031 31.4537 12.7624 31.75 12.9995 31.8686L22.4819 37.6172H22.5412H22.6005C22.6597 37.6172 22.719 37.6765 22.7783 37.6765C22.8375 37.6765 22.8968 37.6765 22.956 37.6172H23.0153H23.0746L32.5571 31.8686C32.7941 31.75 32.8534 31.4537 32.7941 31.2166C32.7941 31.1573 32.8534 31.0981 32.8534 31.0388V20.6081V20.4896V20.3118C32.8534 20.134 32.7348 19.8968 32.5571 19.8376ZM13.8883 21.3785L22.1855 26.4159V36.0167L13.8883 30.9793V21.3785ZM23.3708 26.4159L31.668 21.3785V30.9793L23.3708 36.0167V26.4159ZM22.7782 15.274L31.1345 20.371L22.7782 25.4085L14.4218 20.3115L22.7782 15.274Z" fill="#7A7A7A"/>
<path d="M13.6363 46.7452C13.4386 46.7452 13.2687 46.6753 13.1264 46.5355C12.9842 46.3932 12.9131 46.2221 12.9131 46.022C12.9131 45.8243 12.9842 45.6556 13.1264 45.5158C13.2687 45.3736 13.4386 45.3025 13.6363 45.3025C13.8339 45.3025 14.0039 45.3736 14.1461 45.5158C14.2883 45.6556 14.3594 45.8243 14.3594 46.022C14.3594 46.1546 14.3257 46.2763 14.2582 46.3872C14.1931 46.4957 14.1063 46.5825 13.9978 46.6476C13.8894 46.7126 13.7688 46.7452 13.6363 46.7452ZM18.4508 41.1225V41.9904H15.3122V41.1225H18.4508ZM16.1728 46.6765V40.4789C16.1728 40.1318 16.2487 39.8437 16.4006 39.6147C16.5524 39.3833 16.7537 39.211 17.0044 39.0977C17.2551 38.982 17.5275 38.9241 17.8216 38.9241C18.0386 38.9241 18.2242 38.9422 18.3784 38.9784C18.5327 39.0121 18.6472 39.0434 18.7219 39.0724L18.4688 39.9474C18.4182 39.9329 18.3531 39.9161 18.2736 39.8968C18.194 39.8751 18.0976 39.8642 17.9843 39.8642C17.7216 39.8642 17.5335 39.9293 17.4202 40.0595C17.3094 40.1897 17.2539 40.3777 17.2539 40.6236V46.6765H16.1728ZM19.653 46.6765V39.2712H20.7342V42.0229H20.7992C20.8619 41.9072 20.9523 41.7734 21.0704 41.6215C21.1886 41.4697 21.3525 41.3371 21.5622 41.2238C21.7719 41.1081 22.0491 41.0502 22.3938 41.0502C22.8422 41.0502 23.2424 41.1635 23.5943 41.3901C23.9462 41.6167 24.2222 41.9433 24.4223 42.37C24.6248 42.7967 24.7261 43.3101 24.7261 43.9104C24.7261 44.5106 24.626 45.0252 24.4259 45.4543C24.2259 45.881 23.9511 46.21 23.6015 46.4415C23.252 46.6705 22.853 46.785 22.4047 46.785C22.0672 46.785 21.7912 46.7283 21.5767 46.615C21.3645 46.5017 21.1982 46.3691 21.0777 46.2173C20.9571 46.0654 20.8643 45.9304 20.7992 45.8123H20.7089V46.6765H19.653ZM20.7125 43.8995C20.7125 44.29 20.7691 44.6323 20.8824 44.9264C20.9957 45.2205 21.1596 45.4507 21.3742 45.617C21.5887 45.781 21.8515 45.8629 22.1624 45.8629C22.4854 45.8629 22.7554 45.7773 22.9724 45.6062C23.1893 45.4326 23.3532 45.1976 23.4641 44.9011C23.5774 44.6046 23.6341 44.2707 23.6341 43.8995C23.6341 43.5331 23.5786 43.2041 23.4677 42.9124C23.3593 42.6207 23.1953 42.3905 22.976 42.2218C22.759 42.053 22.4878 41.9687 22.1624 41.9687C21.849 41.9687 21.5839 42.0494 21.3669 42.2109C21.1524 42.3724 20.9897 42.5978 20.8788 42.8871C20.7679 43.1763 20.7125 43.5138 20.7125 43.8995ZM26.5747 41.1225L27.8004 43.2848L29.037 41.1225H30.2194L28.4874 43.8995L30.2339 46.6765H29.0515L27.8004 44.601L26.553 46.6765H25.367L27.0953 43.8995L25.3887 41.1225H26.5747Z" fill="#7A7A7A"/>
<defs>
<linearGradient id="paint0_linear_1063_3666" x1="25.7683" y1="46.7684" x2="14.59" y2="-1.11891e-06" gradientUnits="userSpaceOnUse">
<stop stop-color="#EAEAEA"/>
<stop offset="1" stop-color="#FBFBFB"/>
</linearGradient>
</defs>
</svg>
