<svg width="45" height="56" viewBox="0 0 45 56" fill="none" xmlns="http://www.w3.org/2000/svg">
<path d="M2 0.200195H27.0635C27.5976 0.200263 28.1043 0.437328 28.4463 0.847656L44.1826 19.7314C44.4521 20.0549 44.5995 20.4628 44.5996 20.8838V54C44.5996 54.9941 43.7939 55.7998 42.7998 55.7998H2C1.00589 55.7998 0.200195 54.9941 0.200195 54V2C0.200195 1.00589 1.00589 0.200195 2 0.200195Z" fill="url(#paint0_linear_1063_3656)" stroke="#B7B7B7" stroke-width="0.4"/>
<path d="M32.5571 19.8376L23.0746 14.0889C22.8968 13.9704 22.6597 13.9704 22.4819 14.0889L12.9995 19.8376C12.8217 19.8968 12.7031 20.1339 12.7031 20.3117C12.7031 20.3709 12.7031 20.4302 12.7624 20.4895C12.7624 20.5487 12.7031 20.608 12.7031 20.6673V31.0388C12.7031 31.0981 12.7031 31.1573 12.7624 31.2166C12.7031 31.4537 12.7624 31.75 12.9995 31.8686L22.4819 37.6172H22.5412H22.6005C22.6597 37.6172 22.719 37.6765 22.7783 37.6765C22.8375 37.6765 22.8968 37.6765 22.956 37.6172H23.0153H23.0746L32.5571 31.8686C32.7941 31.75 32.8534 31.4537 32.7941 31.2166C32.7941 31.1573 32.8534 31.0981 32.8534 31.0388V20.6081V20.4896V20.3118C32.8534 20.134 32.7348 19.8968 32.5571 19.8376ZM13.8883 21.3785L22.1855 26.4159V36.0167L13.8883 30.9793V21.3785ZM23.3708 26.4159L31.668 21.3785V30.9793L23.3708 36.0167V26.4159ZM22.7782 15.274L31.1345 20.371L22.7782 25.4085L14.4218 20.3115L22.7782 15.274Z" fill="#7A7A7A"/>
<path d="M11.8713 46.7452C11.6736 46.7452 11.5037 46.6753 11.3614 46.5355C11.2192 46.3932 11.1481 46.2221 11.1481 46.022C11.1481 45.8243 11.2192 45.6556 11.3614 45.5158C11.5037 45.3736 11.6736 45.3025 11.8713 45.3025C12.0689 45.3025 12.2389 45.3736 12.3811 45.5158C12.5233 45.6556 12.5944 45.8243 12.5944 46.022C12.5944 46.1546 12.5607 46.2763 12.4932 46.3872C12.4281 46.4957 12.3413 46.5825 12.2329 46.6476C12.1244 46.7126 12.0039 46.7452 11.8713 46.7452ZM16.3378 46.7777C15.8412 46.7777 15.3976 46.6922 15.0071 46.521C14.619 46.3499 14.3117 46.1124 14.0851 45.8087C13.8609 45.5025 13.7404 45.1482 13.7235 44.7456H14.8589C14.8733 44.965 14.9469 45.1554 15.0794 45.3169C15.2144 45.476 15.3904 45.599 15.6073 45.6857C15.8243 45.7725 16.0654 45.8159 16.3305 45.8159C16.6222 45.8159 16.8801 45.7653 17.1043 45.664C17.3309 45.5628 17.5081 45.4218 17.6358 45.241C17.7636 45.0578 17.8275 44.8469 17.8275 44.6082C17.8275 44.3599 17.7636 44.1418 17.6358 43.9538C17.5105 43.7633 17.3261 43.6139 17.0826 43.5054C16.8416 43.3969 16.5499 43.3427 16.2076 43.3427H15.582V42.4315H16.2076C16.4824 42.4315 16.7234 42.3821 16.9307 42.2832C17.1405 42.1844 17.3044 42.047 17.4225 41.871C17.5406 41.6926 17.5997 41.4841 17.5997 41.2455C17.5997 41.0165 17.5479 40.8176 17.4442 40.6489C17.343 40.4777 17.1983 40.3439 17.0103 40.2475C16.8247 40.1511 16.6053 40.1029 16.3522 40.1029C16.1112 40.1029 15.8858 40.1475 15.6761 40.2367C15.4687 40.3234 15.3 40.4488 15.1698 40.6127C15.0397 40.7742 14.9698 40.9683 14.9601 41.1949H13.879C13.891 40.7947 14.0091 40.4428 14.2333 40.139C14.4599 39.8353 14.7588 39.5979 15.1301 39.4267C15.5013 39.2556 15.9135 39.17 16.3667 39.17C16.8416 39.17 17.2514 39.2628 17.5961 39.4484C17.9432 39.6316 18.2108 39.8763 18.3988 40.1824C18.5892 40.4886 18.6832 40.8236 18.6808 41.1876C18.6832 41.6022 18.5675 41.9542 18.3337 42.2435C18.1023 42.5327 17.7937 42.7268 17.408 42.8256V42.8835C17.8998 42.9582 18.2807 43.1534 18.5506 43.4692C18.823 43.785 18.958 44.1767 18.9556 44.6444C18.958 45.0518 18.8447 45.417 18.6157 45.74C18.3891 46.063 18.0794 46.3173 17.6865 46.5029C17.2935 46.6861 16.844 46.7777 16.3378 46.7777ZM20.3369 46.6765V41.1225H21.3746V42.0265H21.4433C21.559 41.7204 21.7483 41.4817 22.011 41.3106C22.2738 41.137 22.5883 41.0502 22.9547 41.0502C23.326 41.0502 23.6369 41.137 23.8876 41.3106C24.1407 41.4841 24.3276 41.7228 24.4481 42.0265H24.5059C24.6385 41.73 24.8494 41.4938 25.1387 41.3178C25.428 41.1394 25.7727 41.0502 26.1728 41.0502C26.6767 41.0502 27.0877 41.2081 27.4058 41.5239C27.7265 41.8397 27.8868 42.3158 27.8868 42.9522V46.6765H26.8056V43.0534C26.8056 42.6774 26.7032 42.405 26.4983 42.2362C26.2934 42.0675 26.0487 41.9831 25.7643 41.9831C25.4123 41.9831 25.1387 42.0916 24.9435 42.3085C24.7482 42.5231 24.6506 42.7991 24.6506 43.1366V46.6765H23.5731V42.9847C23.5731 42.6834 23.479 42.4411 23.291 42.2579C23.103 42.0747 22.8583 41.9831 22.557 41.9831C22.3521 41.9831 22.1629 42.0374 21.9893 42.1458C21.8182 42.2519 21.6796 42.4001 21.5735 42.5906C21.4698 42.781 21.418 43.0016 21.418 43.2523V46.6765H20.3369ZM31.979 41.1225V41.9904H28.8404V41.1225H31.979ZM29.701 46.6765V40.4789C29.701 40.1318 29.7769 39.8437 29.9288 39.6147C30.0807 39.3833 30.2819 39.211 30.5326 39.0977C30.7833 38.982 31.0557 38.9241 31.3498 38.9241C31.5668 38.9241 31.7524 38.9422 31.9067 38.9784C32.0609 39.0121 32.1754 39.0434 32.2502 39.0724L31.9971 39.9474C31.9464 39.9329 31.8814 39.9161 31.8018 39.8968C31.7223 39.8751 31.6258 39.8642 31.5125 39.8642C31.2498 39.8642 31.0618 39.9293 30.9485 40.0595C30.8376 40.1897 30.7821 40.3777 30.7821 40.6236V46.6765H29.701Z" fill="#7A7A7A"/>
<defs>
<linearGradient id="paint0_linear_1063_3656" x1="25.7683" y1="46.7684" x2="14.59" y2="-1.11891e-06" gradientUnits="userSpaceOnUse">
<stop stop-color="#EAEAEA"/>
<stop offset="1" stop-color="#FBFBFB"/>
</linearGradient>
</defs>
</svg>
