<?xml version="1.0" encoding="UTF-8"?>
<svg id="Layer_2" data-name="Layer 2" xmlns="http://www.w3.org/2000/svg" viewBox="0 0 102.84 27.4">
  <defs>
    <style>
      .cls-1 {
        fill: #00a8d2;
      }

      .cls-1, .cls-2 {
        stroke-width: 0px;
      }

      .cls-2 {
        fill: #f4008a;
      }
    </style>
  </defs>
  <g id="Layer_1-2" data-name="Layer 1">
    <g>
      <path class="cls-2" d="m6.34,25.4l-.7,1.4c-.6-.2-.7.3-.9.4-.7.2-1-.4-1.1-.4s-.2.3-.4.4c-.8.1-1.8,0-2.7,0,0-.8-.7-1.3-.2-2.1.3-.5.8-.3.9-.4.4-.4-.6-1-.7-1.2-.1-.5.5-.6.4-1.1,0-.2-.4-1.1-.4-1.1.2-.3-.4-.6-.4-.7,0-1.6.3-6.3.7-7.8.1-.5-.6-.6,0-1.2-1.6.3-.1-1.5-.4-1.8v-1.2c.1-.6,0-2.9,0-3.5,0-.1-.6-.6-.4-1.2h9.6v.5c.1.2.4.9.4,1.1-.1.4,1.5,5.6,1.8,6.7.1.5.3,1.5.4,1.6h.7v1.2c0,.2.3.9.4,1.1,0,.4-.1,1.5,0,1.6.6.7.9-.7.7-1.2,0-.1-.4-.2-.4-.4s.7-.6.7-.7-.4-.2-.4-.4.7-.5.7-.7c.1-.5-.7-1.9-.4-2.3h.5c.8-.4.4-1,.5-1.6.2-.7,1.2-3.3,1.1-3.9-.4-1.5.2-.8.4-1.4v-1.2c.1-.1,1.5,0,1.9,0,.1,0,.4-.6,1.1-.4.9.3,1.4.2,2.1.4.8.1,4.3-.2,4.4,0,.1.1,0,1.5,0,1.9.1.8.1,1,0,1.8v1.6h.7c.2.1-.3.4-.4.5-.3,1.4-.3,4.5,0,6,.2,1.1.3,2,0,3.2-.2.9.4,1.3.4,1.4,0,.5-1,.5-1.1.5-.2.2,1,1,1.1,1.2.3,1.1-.2,3.5,0,4.8-.6,0-.9.5-1.6.4-.8-.2-1.3,0-2.5-.4-.7-.2-1,.4-1.1.4s-.9-.8-.9-.9v-.7c0-.1-.4-.2-.4-.4s.6-.4.4-1.1c-.2-.8-.3-1.2-.4-1.8-.3-1.9.2-4.7,0-6.7,0-.5-.5.4-.7,0,1.1-.8-.3-1.2-.7-.9-.2.2.4.3.2.7-.1.2-.5.4-.5.5,0,0,.7.6.4.9h-.7c-.2.1.3.4.4.5.2.7-.3.9-.4,1.1v.9h-.7c-.1.1,0,1.5,0,1.9,0,.1-.7.9-.7,1.1-.2.9.5,1.4.4,2.3l-1.8.4,1.1.4c-.4.4-.3,1.4-.4,1.4h-1.2c-.1,0-.2.4-.4.4s-.2-.3-.4-.4h-1.1c-.2,0-.8-.9-1.1-1.1-.6.3.3,1,.2,1.1-.2.2-1.6,0-1.8-.5-.2-.8.4-1.5.4-1.6-.2-.1-1,.3-.7-.7l1.8-.7c-.8.1-2.2,0-2.5-.9-.3-.8.9-1.4.7-1.6-.3-.3-1,.5-1.1.4.2-.6-.3-.7-.4-.9v-1.4c-.2-1.1-1-2.8-1.4-3.9-.2-.4.3-.7-.7-.5.2-.6,1.1-.8.4-1.2l-.4-1.9c-.9-.3-.9.6-.7,1.2.4,1.2,0,.8,0,1.1v11.9h0l.4-.2Zm-3.2-9.6c-.1-.5-1.1-1.3-1.4-1.1-.4.4.7.3.7.4.1.1-.3,1,.7.7Zm-1.1,1.4h.5c.1,0,.5.7.5.2s-1.6-.6-1.1-.2h.1Zm0-4.1c0,.2.4.2.4,0s-.4-.2-.4,0Zm1.1,10.8l-.7.7c.7,0,.8,0,.7-.7Zm.3.6c0,.2.4.2.4,0s-.4-.2-.4,0Zm.4-6.8c0,.2.4.2.4,0s-.4-.2-.4,0Zm.4,8.2c0,.2.4.2.4,0s-.4-.2-.4,0Zm0-10.5c-.2.3.1,1,.4.7.2-.3-.1-1-.4-.7Zm2.1-5.3c-.2.3.1,1,.4.7.2-.3-.1-1-.4-.7Zm5.3,15.8c0,.2.4.2.4,0s-.4-.2-.4,0Zm.7-1.1c0,.2.4.2.4,0s-.4-.2-.4,0Zm.3-1.9c-.2.3.1,1,.4.7.2-.3-.1-1-.4-.7Zm.8.3v.7c.3.3.8-.3.9-.4.2,0,1.3,0,.9-.4h-1.8v.1Zm2.1,2.7c0,.2.4.2.4,0s-.4-.2-.4,0Zm5.6-11.9c.5-.5-.7-2.1-1.1-.9-.2.6.8,1.1,1.1.9Zm-.3-3.5c-.2-.2-1,.8-.7,1.1.6.6,1-.7.7-1.1Z"/>
      <path class="cls-2" d="m71.24,13c0,.7,0,.8-.7.7l.7-.7Z"/>
      <path class="cls-2" d="m71.24,10.4c.3.2-.4.5-.7.3-.3-.2.4-.5.7-.3Z"/>
      <path class="cls-2" d="m70.24,11.7c.2-.3.5.4.3.7-.2.3-.5-.4-.3-.7Z"/>
      <path class="cls-2" d="m70.54,11.2c0-.2.3-.2.3,0s-.3.2-.3,0Z"/>
      <path class="cls-2" d="m73.04,6.4c.3-.3-.9-2.1.2-2.4.7-.2,2.4,0,3.4,0,.1,0,.2-.3.3-.3.8,0,3-.2,3.2.5.3,1-.2,2.9,0,4.1s.7,4.2.3,5.8c-.4,1.8.3,4.2,0,5.8-.2,1,.2,2.4.3,3.1.1.8,0,3.7-.9,3.9h-5.8c-.5.1-1.5.5-1.5.5.6-.2-.3-1.8-.3-2s.5-.5.3-1.4c0-.1-.3-.2-.3-.3s.8-1.5.7-2c-.3-1.1-.3-2.4,0-3.4.1-.4-.6-1.1-.7-1.4-.3-1.5.7-3.7.3-5.5-.4-1.6.3-2.8,0-4.4,0-.1.3-.4.3-.5h0l.2-.1Z"/>
      <path class="cls-2" d="m49.44,3.7v1.5c.5,3.2-.1,7.3.7,10.3.1.5-.3.5-.3.7-.3,1.2.3,3.4,0,4.5,0,.2-.5.4-.7.7-.3.5-.4,2-1.2,2.2-1.5.4-.6.6-1.4,1h-.5s.1.6-.5,1c-.7.5-1.9.5-2.7.7-.6.1-3.5.8-3.8.7-1.1-.3-2.4.1-2.7,0-.6-.2-1.5-.5-2.1-.7s-1.5-.2-2.1-.3c-.2,0-.7-.9-1-1h-.5v-.5c-.1-.2-.5-.4-.7-.7s-1-1.6-1-1.7c-.3-1-.8-1.9-1-2.7-.1-.5.5-.6.3-1-.3-.9-.2-1.2-.3-2.1-.3-1.7.5-5.2,0-7.6-.2-1.1-.3-1.2,0-2.4.1-.4-.3-.6-.3-.7s.3-.2.3-.3c0-.5-.1-1.4.5-1.5.3,0,.9.5,1.7.3.6-.1.4-.5,1.4-.3.7.1,1-.1,1.7,0,1.2.2,2.3-.7,1.9,1.2-.6,2.8.2,5.9-.3,8.9,1,.8.5.8.3,1.4v.7c0,.2-.7.5-.7.9,1.3-.4.4,1.5.7,1.7h.7v1.5c0,.1.3.2.3.3v.5c.1.2.4-.3.5-.3s.8.6,1,.7h.7c.2,0,.2.5.7.3.1,0,.2-.3.3-.3h.7c.2,0,.5-.6.7-.7h.9c.1,0,0-.9,0-1,0,0,1,.2.7-.5,0-.2-.3-.2-.3-.3s.9-.5.7-1.4c0-.2-.9-.7-.7-.9h.7v-1.5c-.2-1.1-.3-1.7,0-2.7.1-.4-.5-.7-.3-.9h.7v-1.9c0-.1-.3-.2-.3-.3,0-.5-.3-5.3,0-5.3,1,0,6.6-.2,6.9,0h0l-.3-.2Z"/>
      <path class="cls-2" d="m51.64,26.9c-.9-.2-.4-2.7-.5-3.6-.3-1.9.1-4.5-.3-7.2-.2-1.1.6-2,.3-3.1-.4-2.2,0-4-.3-5.9-.4-2.2.1-3.7,2.6-3.3.1,0,.2.3.3.3s.2-.3.3-.3c1.6-.3,7.9-.3,11-.1,3.1.2,1.1,0,1.4.1.1,0,.2.3.3.3h1c.3,0,.6.2,1,.3.1,0,1.3,1.1,1.7,1.4.8.5.4,1,.5,1.5,0,.1.3.2.3.3v1.4c.2,1,.3.5,0,1.7-.1.5.3.5.3.7.3.9-.9,1.7-1,2.1-.3,1-.3.7-.7,1.4v.5h-.9c-.6.2-1.1,1.3-.9,1.9.4.7,1.3,1.5,1.7,2.1v.3c1.1,1.8,1.9,3.6,2.8,5.5.1.2,1,1.3.7,1.5-.4.4-1.1-.3-1.2-.3-1-.2-3.5.8-3.8.7-.2,0-.8-.3-1-.3-.6-.1-2,.3-2.2-.5v-.7c-.5-1.2-2.4-3-2.8-4.1v-.9h-1v-1.2c0-.2-.5-.3-.3-.7-.5-.5-2.3-1.7-2.8-1.2-.4.3.3,1.1.3,1.2.2.9-.4,1.1,0,2.8,0,.1-.5,1.5-.3,2.4,0,0,.6.6.3.9,0,0-.7-.2-.7.2.6.4,0,1.2.7,1.7-.6.9-.7.2-.9.2-1.4,0-5.2.3-6.2,0h.3Zm11.4-14.1c.2,0,1.2-.7,1.2-.9.2-.8,0-2.7-.9-2.9-.5-.1-1.5.1-2.1,0-.1,0-.2-.3-.3-.3-.4-.1-.3.4-1.4,0-1.6-.5-1.1,1.8-1.2,2.6v1.9c.1.1,3.7.1,3.8,0,0,0,.4-.2.9-.3h0v-.1Z"/>
      <g>
        <path class="cls-1" d="m84.94,6.6v2.7h-.9V2.4c0-.6,0-1,.2-1.3s.4-.6.8-.8.8-.3,1.2-.3c.7,0,1.2.2,1.5.6s.5.8.5,1.2-.1.8-.4,1.1-.6.4-.9.5c.6,0,1,.3,1.3.6s.5.8.5,1.3-.2,1.1-.5,1.5c-.4.4-.9.7-1.6.7s-1.2-.3-1.6-.8l-.1-.1Zm.8-3.6c.6,0,1-.1,1.3-.3s.4-.5.4-.9-.1-.6-.3-.8c-.2-.2-.5-.3-.9-.3s-.6,0-.8.2-.4.3-.4.5v3c0,.6,0,1,.1,1.2,0,.3.2.5.5.7s.6.3.9.3.7-.1,1-.4c.2-.3.4-.6.4-1s0-.6-.3-.9c-.2-.3-.4-.5-.6-.5-.3,0-.6-.1-1-.1h-.1v-.6l-.2-.1Z"/>
        <path class="cls-1" d="m93.44,5.6h.9c-.1.6-.4,1.1-.8,1.4s-.9.4-1.5.4-1.4-.2-1.8-.7-.7-1.1-.7-2,.2-1.6.7-2c.5-.5,1-.7,1.8-.7s1.3.2,1.7.7c.4.5.7,1.1.7,2s0,.1,0,.2h-3.9c0,.6.2,1,.5,1.3s.7.5,1.1.5.6,0,.8-.3.4-.4.5-.8Zm-2.9-1.5h2.9c0-.4-.2-.8-.3-1-.3-.3-.6-.5-1.1-.5s-.7.1-1,.4c-.3.3-.4.6-.5,1.1Z"/>
        <path class="cls-1" d="m97.34,6.4v.8h-.5c-.3,0-.6,0-.7-.2-.2-.1-.3-.2-.4-.4,0-.2-.1-.5-.1-1v-3h-.6v-.7h.6V.6l.9-.5v1.8h.9v.7h-.9v3.5s0,.1.2.2h.7l-.1.1Z"/>
        <path class="cls-1" d="m101.64,6.6c-.3.3-.6.5-.9.6s-.6.2-1,.2c-.6,0-1-.1-1.3-.4s-.5-.6-.5-1.1,0-.5.2-.7c.1-.2.3-.4.5-.5s.4-.2.6-.3c.2,0,.4,0,.8-.1.7,0,1.2-.2,1.6-.3v-.2c0-.4,0-.6-.2-.8s-.6-.3-1-.3-.7,0-.9.2c-.2.1-.3.4-.4.8h-.9c0-.5.2-.8.4-1s.4-.4.8-.5c.3-.1.7-.2,1.2-.2s.8,0,1.1.2.5.2.6.4.2.4.3.6v3.6c0,.3.1.4.2.6h-.9c0-.2-.2-.4-.2-.6l-.1-.2Zm-.1-2c-.3.1-.8.2-1.4.3-.4,0-.6.1-.8.2-.2,0-.3.2-.3.3s-.1.3-.1.4c0,.2,0,.4.3.6.2.2.4.2.8.2s.6,0,.9-.2c.3-.1.5-.4.6-.6,0-.2.1-.5.1-.9v-.3h-.1Z"/>
      </g>
    </g>
  </g>
</svg>