<svg width="114" height="24" viewBox="0 0 114 24" fill="none" xmlns="http://www.w3.org/2000/svg">
<path d="M6.07988 21.9926L5.37224 23.4078C4.79192 23.2154 4.67053 23.7098 4.48696 23.7631C3.77932 23.9674 3.4862 23.4078 3.42698 23.4078C3.30855 23.4078 3.20788 23.7395 3.07465 23.7631C2.28115 23.8964 1.2567 23.6714 0.42175 23.7631C0.368455 22.9696 -0.277004 22.4722 0.2441 21.6402C0.56683 21.1251 1.08793 21.3294 1.12939 21.2849C1.53502 20.8793 0.480966 20.2516 0.42175 20.0473C0.285552 19.5795 0.910285 19.4551 0.774087 18.9844C0.708949 18.7534 0.42175 17.9214 0.42175 17.9214C0.658615 17.5839 0.0694118 17.3322 0.0694118 17.2138C0.0694118 15.5854 0.362533 10.9309 0.777048 9.42389C0.910285 8.94423 0.173041 8.87317 0.777048 8.18626C-0.777383 8.51788 0.664537 6.64368 0.42471 6.41569C0.353651 6.34759 0.395102 5.31723 0.42471 5.17807C0.549065 4.60367 0.519457 2.28535 0.42471 1.63693C0.406945 1.52442 -0.205945 1.01515 0.0723726 0.399304H9.62398C9.67432 0.399304 9.54404 0.78421 9.62398 0.929291C9.75426 1.16023 10.0207 1.84418 9.97632 1.99223C9.86677 2.37121 11.433 7.58818 11.7439 8.71921C11.8712 9.1811 12.0371 10.25 12.0963 10.3121C12.1614 10.3773 12.7388 10.247 12.8039 10.3121C12.8838 10.3921 12.7447 11.2152 12.8039 11.5498C12.8335 11.7156 13.1296 12.4498 13.1562 12.6127C13.2243 13.0183 13.0556 14.0872 13.1562 14.2056C13.7573 14.9221 14.0297 13.5365 13.8639 12.968C13.8195 12.8199 13.5115 12.7282 13.5115 12.6127C13.5115 12.4795 14.2192 12.0383 14.2192 11.9051C14.2192 11.7866 13.8668 11.6682 13.8668 11.5498C13.8668 11.4106 14.5182 11.0405 14.5745 10.8421C14.7196 10.3329 13.8491 8.91167 14.2221 8.54156C14.2873 8.47642 14.5863 8.63631 14.7521 8.54156C15.5367 8.09448 15.1489 7.51712 15.2821 6.94864C15.4538 6.21732 16.5109 3.60883 16.3421 3.05516C15.9009 1.6014 16.5316 2.23205 16.6944 1.63989C16.7832 1.32012 16.5997 0.497011 16.6944 0.402265C16.801 0.295675 18.1926 0.482207 18.6397 0.402265C18.7404 0.3845 19.0098 -0.160292 19.6997 0.0469659C20.6116 0.325283 21.1386 0.286792 21.8226 0.402265C22.5865 0.52958 26.0862 0.245341 26.246 0.402265C26.3497 0.505893 26.172 1.90044 26.246 2.35049C26.3763 3.1351 26.3763 3.33644 26.246 4.12106C26.1987 4.40826 26.1898 5.65772 26.246 5.71398C26.3141 5.78208 26.8678 5.64292 26.9537 5.71398C27.1313 5.85906 26.625 6.12553 26.6013 6.24397C26.3171 7.67108 26.2727 10.7888 26.6013 12.2633C26.85 13.3736 26.8708 14.2767 26.6013 15.4492C26.3941 16.3522 26.9537 16.7875 26.9537 16.8644C26.9537 17.3322 25.9411 17.353 25.8937 17.3944C25.6776 17.5928 26.8885 18.3952 26.9537 18.632C27.2675 19.7749 26.7257 22.0962 26.9537 23.4108C26.3112 23.3249 26.024 23.9556 25.3607 23.7661C24.5939 23.544 24.0846 23.7779 22.8855 23.4108C22.1897 23.1976 21.8847 23.7661 21.8255 23.7661C21.7663 23.7661 20.958 22.94 20.9402 22.8808C20.8781 22.6647 20.9995 22.3952 20.9402 22.1732C20.9018 22.0281 20.5879 21.9363 20.5879 21.8179C20.5879 21.7587 21.1534 21.4537 20.9402 20.755C20.7123 19.9999 20.6856 19.5736 20.5879 18.9844C20.2652 17.045 20.7892 14.3329 20.5879 12.2574C20.5376 11.7363 20.0875 12.6749 19.8803 12.2574C20.958 11.4817 19.5871 11.0168 19.1726 11.3721C18.9891 11.532 19.6049 11.6652 19.3503 12.0797C19.2289 12.2752 18.8233 12.5061 18.8203 12.6097C18.8203 12.6571 19.4717 13.2137 19.1726 13.495C19.1016 13.5631 18.5509 13.424 18.465 13.495C18.2873 13.6401 18.7848 13.8947 18.8173 14.025C19.0098 14.7504 18.5094 14.9221 18.465 15.0879C18.3939 15.3485 18.539 15.8992 18.465 15.9732C18.3999 16.0384 17.8225 15.9081 17.7574 15.9732C17.6419 16.0887 17.8521 17.4744 17.7574 17.9214C17.7307 18.0428 17.0793 18.8571 17.0497 18.9844C16.8513 19.8697 17.5294 20.4026 17.4021 21.2849L15.6345 21.6402L16.6944 21.9955C16.2651 22.3893 16.3924 23.3605 16.3421 23.4108C16.2592 23.4907 15.442 23.3516 15.1045 23.4108C14.9683 23.4345 14.8676 23.7661 14.7521 23.7661C14.6367 23.7661 14.533 23.4345 14.3998 23.4108C14.0652 23.3546 13.627 23.4907 13.3398 23.4108C13.1148 23.3486 12.5878 22.5462 12.2798 22.3479C11.6788 22.6173 12.5878 23.2983 12.4575 23.4108C12.2325 23.6033 10.832 23.399 10.6899 22.8808C10.4708 22.0873 11.1103 21.3412 11.0422 21.2879C10.8646 21.1428 10.0385 21.6314 10.3346 20.5803L12.1022 19.8726C11.3087 20.0177 9.87861 19.8223 9.62694 18.9873C9.37527 18.1524 10.5211 17.5602 10.3346 17.3944C10.0326 17.125 9.36935 17.8533 9.27461 17.7497C9.47002 17.1812 8.94595 17.0036 8.92227 16.8644C8.84529 16.4292 9.01405 15.8489 8.92227 15.4492C8.67652 14.3921 7.9452 12.6038 7.507 11.5557C7.35599 11.1974 7.82972 10.8836 6.79936 11.0257C6.97997 10.3802 7.88006 10.2707 7.1517 9.78807L6.79936 7.83985C5.91703 7.53784 5.90815 8.48827 6.09172 9.07747C6.44998 10.2411 6.09172 9.91242 6.09172 10.1404V22.0015L6.07988 21.9926ZM2.897 12.435C2.78745 11.9495 1.8163 11.0908 1.48172 11.3721C1.0376 11.7452 2.15087 11.6889 2.18936 11.7274C2.31075 11.8488 1.85775 12.7489 2.897 12.435ZM1.83702 13.8503C1.90512 13.9095 2.16863 13.7822 2.36701 13.8503C2.49729 13.8947 2.897 14.5047 2.897 14.028C2.897 13.3943 1.32776 13.4269 1.83702 13.8503ZM1.83702 9.77919C1.83702 10.0101 2.18936 10.0101 2.18936 9.77919C2.18936 9.54824 1.83702 9.54824 1.83702 9.77919ZM2.897 20.5773L2.18936 21.2849C2.93549 21.3767 2.98878 21.3234 2.897 20.5773ZM3.24933 21.1073C3.24933 21.3382 3.60167 21.3382 3.60167 21.1073C3.60167 20.8763 3.24933 20.8763 3.24933 21.1073ZM3.60167 14.3803C3.60167 14.6112 3.95401 14.6112 3.95401 14.3803C3.95401 14.1494 3.60167 14.1494 3.60167 14.3803ZM3.95401 22.5226C3.95401 22.7535 4.30635 22.7535 4.30635 22.5226C4.30635 22.2916 3.95401 22.2916 3.95401 22.5226ZM3.95401 12.0797C3.72899 12.3492 4.06948 13.0716 4.30635 12.7874C4.53137 12.5179 4.19088 11.7955 3.95401 12.0797ZM6.07692 6.76803C5.8519 7.03746 6.19239 7.75991 6.42926 7.47567C6.65428 7.20623 6.31378 6.48379 6.07692 6.76803ZM11.3827 22.5226C11.3827 22.7535 11.735 22.7535 11.735 22.5226C11.735 22.2916 11.3827 22.2916 11.3827 22.5226ZM12.0903 21.4596C12.0903 21.6906 12.4427 21.6906 12.4427 21.4596C12.4427 21.2287 12.0903 21.2287 12.0903 21.4596ZM12.4427 19.5114C12.2177 19.7808 12.5582 20.5033 12.795 20.219C13.02 19.9496 12.6796 19.2272 12.4427 19.5114ZM13.1503 19.8667C13.1266 19.8904 13.1266 20.5507 13.1503 20.5743C13.4405 20.8645 13.9645 20.2398 14.0356 20.219C14.234 20.1628 15.3828 20.2516 14.9209 19.8637C14.8528 19.8075 13.2155 19.8016 13.1533 19.8637L13.1503 19.8667ZM15.2732 22.5226C15.2732 22.7535 15.6256 22.7535 15.6256 22.5226C15.6256 22.2916 15.2732 22.2916 15.2732 22.5226ZM20.9343 10.6615C21.4525 10.1434 20.203 8.57709 19.8743 9.77623C19.7174 10.3447 20.6975 10.9013 20.9343 10.6615ZM20.582 7.12037C20.4191 6.91607 19.5812 7.88722 19.8743 8.1833C20.4487 8.76066 20.8899 7.50231 20.582 7.12037Z" fill="#F4008A"/>
<path d="M70.9973 9.66943C71.0831 10.3741 71.0328 10.4244 70.3281 10.3386L70.9973 9.66943Z" fill="#F4008A"/>
<path d="M70.9965 6.99285C71.266 7.21787 70.582 7.5406 70.3274 7.32742C70.058 7.1024 70.7419 6.77967 70.9965 6.99285Z" fill="#F4008A"/>
<path d="M69.9955 8.33106C70.2206 8.06162 70.5433 8.74557 70.3301 9.00021C70.1051 9.26964 69.7824 8.58569 69.9955 8.33106Z" fill="#F4008A"/>
<path d="M70.3301 7.83056C70.3301 7.61442 70.6647 7.61442 70.6647 7.83056C70.6647 8.0467 70.3301 8.0467 70.3301 7.83056Z" fill="#F4008A"/>
<path d="M72.8217 3.03414C73.1089 2.75286 71.8861 0.952678 72.9934 0.647713C73.7366 0.443416 75.442 0.721734 76.4014 0.647713C76.5227 0.638831 76.6175 0.319062 76.7418 0.307218C77.4939 0.236159 79.7826 0.111804 79.978 0.819441C80.2475 1.79651 79.7856 3.75954 79.978 4.9113C80.1705 6.06306 80.6857 9.07125 80.3185 10.7056C79.9247 12.4644 80.585 14.9011 80.3185 16.5C80.1498 17.5126 80.5524 18.9189 80.659 19.5674C80.8011 20.4171 80.7182 23.2388 79.8063 23.4875C79.5161 23.5674 79.072 23.4075 78.7848 23.4875C78.5539 23.5497 76.7951 23.5734 76.4014 23.4875C76.0638 23.4135 74.311 23.4075 74.0179 23.4875C73.559 23.6148 72.4842 23.9997 72.4842 23.9997C73.0882 23.7628 72.1437 22.164 72.1437 21.9538C72.1437 21.8798 72.6382 21.4889 72.4842 20.5888C72.4605 20.4586 72.1437 20.3609 72.1437 20.2484C72.1437 20.121 72.9727 18.7354 72.8247 18.2024C72.5227 17.101 72.5552 15.7657 72.8247 14.7945C72.9372 14.3889 72.197 13.6842 72.1437 13.4296C71.815 11.9077 72.8869 9.77296 72.4842 7.97575C72.117 6.34137 72.8128 5.1985 72.4842 3.5434C72.4605 3.42792 72.7595 3.09631 72.8247 3.03117L72.8217 3.03414Z" fill="#F4008A"/>
<path d="M49.2259 0.360804C49.3117 0.446668 49.1666 1.52145 49.2259 1.90635C49.7322 5.10108 49.0837 9.19886 49.9128 12.2011C50.0371 12.6541 49.6019 12.7489 49.5693 12.888C49.3058 14.0724 49.8683 16.2604 49.5693 17.35C49.5219 17.5188 49.0275 17.8 48.8824 18.0369C48.5626 18.5699 48.5064 20.0236 47.6833 20.2664C46.1969 20.7076 47.1177 20.8378 46.3124 21.2968C46.1525 21.3886 45.8624 21.2316 45.7972 21.2968C45.7528 21.3412 45.9157 21.9215 45.282 22.3271C44.5566 22.792 43.4108 22.8394 42.5403 23.014C41.9718 23.1266 39.088 23.7927 38.7682 23.701C37.6786 23.3871 36.37 23.8075 36.0265 23.701C35.4195 23.5115 34.5727 23.171 33.9687 23.014C33.3558 22.8542 32.4439 22.8186 31.911 22.6706C31.683 22.6084 31.2004 21.8179 30.8836 21.6402C30.7207 21.5484 30.4335 21.7054 30.3684 21.6402C30.3032 21.5751 30.4602 21.2879 30.3684 21.125C30.2381 20.8882 29.8236 20.6809 29.6815 20.4381C29.4801 20.0976 28.6807 18.8215 28.6541 18.7238C28.355 17.6846 27.8783 16.8526 27.6267 15.9791C27.4964 15.5261 28.1004 15.4047 27.9701 14.9488C27.7096 14.0516 27.7688 13.7496 27.6267 12.891C27.3483 11.2152 28.1448 7.66219 27.6267 5.34091C27.3898 4.27501 27.301 4.12105 27.6267 2.93968C27.751 2.4926 27.2832 2.34159 27.2832 2.25277C27.2832 2.1373 27.603 2.04255 27.6267 1.90931C27.7066 1.44446 27.4816 0.547336 28.1418 0.363765C28.4409 0.280862 29.0005 0.896713 29.8562 0.70722C30.4927 0.565101 30.2292 0.192037 31.227 0.363765C31.9317 0.485159 32.2041 0.242371 32.9413 0.363765C34.1908 0.571022 35.2093 -0.299459 34.8274 1.56586C34.2589 4.33127 35.0139 7.49342 34.4839 10.4868C35.5113 11.2744 35.0198 11.2625 34.8274 11.8606C34.7622 12.0649 34.8896 12.3314 34.8274 12.5475C34.7652 12.7637 34.1138 13.0302 34.1405 13.4062C35.3959 12.9798 34.5668 14.8629 34.8274 15.1205C34.8925 15.1856 35.4491 15.0554 35.5143 15.1205C35.6061 15.2123 35.4432 16.2811 35.5143 16.666C35.535 16.7874 35.7956 16.8615 35.8577 17.0095C35.9347 17.1931 35.7985 17.4536 35.8577 17.5247C35.9969 17.6935 36.2841 17.1812 36.3729 17.1812C36.4351 17.1812 37.2108 17.7912 37.4003 17.8681C37.5898 17.9451 37.8711 17.8 38.0872 17.8681C38.253 17.9214 38.3241 18.336 38.7742 18.2116C38.9074 18.1761 38.9784 17.9126 39.1176 17.8681C39.3219 17.803 39.5884 17.9303 39.8045 17.8681C39.994 17.8148 40.296 17.2404 40.4914 17.1812C40.7401 17.1072 41.276 17.2553 41.3501 17.1812C41.4359 17.0954 41.2642 16.2367 41.3501 16.1509C41.4152 16.0857 42.339 16.3937 42.037 15.6357C41.9778 15.4847 41.6935 15.3988 41.6935 15.2922C41.6935 15.1531 42.6232 14.7682 42.3804 13.9184C42.3242 13.723 41.5011 13.2374 41.6935 13.0598C41.7646 12.9946 42.3153 13.1249 42.3804 13.0598C42.4337 13.0065 42.4308 11.7807 42.3804 11.5142C42.1821 10.4483 42.0843 9.83839 42.3804 8.76954C42.5018 8.32837 41.8741 8.0471 42.037 7.9109C42.1199 7.8428 42.6587 7.97604 42.7239 7.9109C42.789 7.84576 42.7683 6.35055 42.7239 6.02486C42.7061 5.89754 42.3923 5.80575 42.3804 5.6814C42.336 5.20175 42.114 0.363765 42.3804 0.363765C43.3545 0.363765 48.9949 0.120978 49.2377 0.363765L49.2259 0.360804Z" fill="#F4008A"/>
<path d="M51.4042 23.5501C50.5042 23.3013 51.0341 20.8202 50.8891 19.9349C50.5663 17.9956 51.0371 15.393 50.5456 12.7016C50.3383 11.5706 51.0963 10.7327 50.8891 9.60162C50.4864 7.38989 50.8476 5.56602 50.5456 3.74808C50.1755 1.52746 50.667 0.0677792 53.1274 0.476373C53.2577 0.497098 53.3584 0.819828 53.4709 0.819828C53.5834 0.819828 53.6841 0.497098 53.8144 0.476373C55.6974 0.162526 64.2601 0.192134 66.2024 0.476373C66.3297 0.494138 66.4126 0.79318 66.5459 0.819828C66.8657 0.884966 67.3009 0.739886 67.5792 0.819828C67.8575 0.89977 68.1803 1.03893 68.6125 1.16328C68.7221 1.19585 69.865 2.24102 70.3328 2.54007C71.1055 3.03452 70.7118 3.50233 70.848 4.08857C70.8805 4.22181 71.1618 4.29879 71.1914 4.43203C71.2802 4.82582 71.1174 5.38838 71.1914 5.80881C71.3661 6.77996 71.5408 6.26478 71.1914 7.53201C71.0671 7.98502 71.4875 8.05904 71.5349 8.22188C71.8132 9.13381 70.6052 9.93324 70.5015 10.2885C70.2143 11.2893 70.1759 11.0169 69.8146 11.6653C69.7228 11.8282 69.8798 12.1183 69.8146 12.1805C69.7406 12.2545 69.2017 12.1065 68.953 12.1805C68.3994 12.3433 67.8812 13.4714 68.0914 14.0754C68.5296 14.7594 69.412 15.5381 69.8117 16.1421C69.862 16.2161 69.7584 16.3967 69.8117 16.4855C70.8953 18.3183 71.7036 20.1066 72.5652 21.9956C72.6777 22.2384 73.5186 23.2777 73.2521 23.5441C72.8968 23.8994 72.1093 23.2096 72.0471 23.2007C71.0049 23.0171 68.574 23.9764 68.2602 23.8905C68.0322 23.8284 67.4164 23.5767 67.2269 23.5471C66.5903 23.4405 65.2165 23.8195 64.9915 23.0319C64.9263 22.8069 65.0714 22.5197 64.9915 22.342C64.4496 21.134 62.605 19.3072 62.2379 18.2087C62.1579 17.9689 62.3149 17.4241 62.2379 17.3471C62.152 17.2613 61.2904 17.433 61.2046 17.3471C61.1187 17.2613 61.2815 16.4618 61.2046 16.1421C61.1661 15.9822 60.6627 15.8253 60.8611 15.4522C60.3785 14.9459 58.5961 13.7734 58.1075 14.2472C57.7522 14.5936 58.4303 15.3604 58.451 15.4522C58.6642 16.3878 58.0098 16.601 58.451 18.2087C58.4836 18.3331 57.9447 19.6773 58.1075 20.6188C58.1164 20.6633 58.7352 21.2051 58.451 21.4804C58.3711 21.5604 57.7434 21.2939 57.7641 21.6522C58.4095 22.0608 57.7937 22.8928 58.451 23.3754C57.8796 24.237 57.7315 23.5471 57.5894 23.5471C56.1771 23.5471 52.4228 23.8313 51.3954 23.5471L51.4042 23.5501ZM62.762 9.4299C62.913 9.38548 63.9226 8.72818 63.967 8.5683C64.1802 7.78368 63.9759 5.87987 63.1054 5.64005C62.5665 5.492 61.625 5.77032 61.0417 5.64005C60.9085 5.61044 60.8345 5.33508 60.6983 5.29659C60.3252 5.19296 60.4377 5.65189 59.3215 5.29659C57.7138 4.78437 58.2467 7.09381 58.1164 7.87843C58.0957 8.01166 58.0927 8.43506 58.1164 8.5683C58.1727 8.89695 58.0394 9.69637 58.1164 9.77335C58.2497 9.90659 61.7671 9.90659 61.9033 9.77335C61.9685 9.70821 62.3208 9.55721 62.7649 9.4299H62.762Z" fill="#F4008A"/>
<rect x="84.7148" width="29" height="16" rx="2" fill="#41D4EA" fill-opacity="0.25"/>
<path d="M87.6737 12V3.27273H90.8697C91.489 3.27273 92.0018 3.375 92.408 3.57955C92.8143 3.78125 93.1183 4.0554 93.32 4.40199C93.5217 4.74574 93.6225 5.13352 93.6225 5.56534C93.6225 5.92898 93.5558 6.2358 93.4222 6.4858C93.2887 6.73295 93.1097 6.93182 92.8853 7.08239C92.6637 7.23011 92.4194 7.33807 92.1523 7.40625V7.49148C92.4421 7.50568 92.7248 7.59943 93.0004 7.77273C93.2788 7.94318 93.5089 8.18608 93.6907 8.50142C93.8725 8.81676 93.9634 9.20028 93.9634 9.65199C93.9634 10.098 93.8583 10.4986 93.6481 10.8537C93.4407 11.206 93.1197 11.4858 92.685 11.6932C92.2504 11.8977 91.695 12 91.0188 12H87.6737ZM88.9904 10.8707H90.891C91.5217 10.8707 91.9734 10.7486 92.2461 10.5043C92.5188 10.2599 92.6552 9.95455 92.6552 9.58807C92.6552 9.3125 92.5856 9.05966 92.4464 8.82955C92.3072 8.59943 92.1083 8.41619 91.8498 8.27983C91.5941 8.14347 91.2901 8.07528 90.9379 8.07528H88.9904V10.8707ZM88.9904 7.0483H90.7546C91.0501 7.0483 91.3157 6.99148 91.5515 6.87784C91.7901 6.7642 91.979 6.60511 92.1183 6.40057C92.2603 6.19318 92.3313 5.94886 92.3313 5.66761C92.3313 5.30682 92.2049 5.00426 91.9521 4.75994C91.6992 4.51562 91.3114 4.39347 90.7887 4.39347H88.9904V7.0483ZM97.644 12.1321C96.9991 12.1321 96.4437 11.9943 95.9778 11.7188C95.5147 11.4403 95.1567 11.0497 94.9039 10.5469C94.6539 10.0412 94.5289 9.44886 94.5289 8.76989C94.5289 8.09943 94.6539 7.50852 94.9039 6.99716C95.1567 6.4858 95.509 6.08665 95.9607 5.79972C96.4153 5.51278 96.9465 5.36932 97.5545 5.36932C97.9238 5.36932 98.2817 5.4304 98.6283 5.55256C98.9749 5.67472 99.286 5.86648 99.5616 6.12784C99.8371 6.3892 100.054 6.72869 100.214 7.14631C100.373 7.56108 100.452 8.06534 100.452 8.65909V9.1108H95.2491V8.15625H99.2036C99.2036 7.82102 99.1354 7.52415 98.9991 7.26562C98.8627 7.00426 98.671 6.7983 98.4238 6.64773C98.1795 6.49716 97.8925 6.42188 97.563 6.42188C97.205 6.42188 96.8925 6.50994 96.6255 6.68608C96.3613 6.85937 96.1567 7.08665 96.0119 7.3679C95.8698 7.64631 95.7988 7.94886 95.7988 8.27557V9.02131C95.7988 9.45881 95.8755 9.83097 96.0289 10.1378C96.1852 10.4446 96.4025 10.679 96.6809 10.8409C96.9593 11 97.2846 11.0795 97.6567 11.0795C97.8982 11.0795 98.1184 11.0455 98.3173 10.9773C98.5161 10.9062 98.688 10.8011 98.8329 10.6619C98.9778 10.5227 99.0886 10.3509 99.1653 10.1463L100.371 10.3636C100.275 10.7187 100.101 11.0298 99.8513 11.2969C99.6042 11.5611 99.2931 11.767 98.9181 11.9148C98.546 12.0597 98.1212 12.1321 97.644 12.1321ZM104.321 5.45455V6.47727H100.746V5.45455H104.321ZM101.705 3.88636H102.979V10.0781C102.979 10.3253 103.016 10.5114 103.09 10.6364C103.164 10.7585 103.259 10.8423 103.375 10.8878C103.495 10.9304 103.624 10.9517 103.763 10.9517C103.865 10.9517 103.955 10.9446 104.032 10.9304C104.108 10.9162 104.168 10.9048 104.211 10.8963L104.441 11.9489C104.367 11.9773 104.262 12.0057 104.125 12.0341C103.989 12.0653 103.818 12.0824 103.614 12.0852C103.279 12.0909 102.966 12.0312 102.676 11.9062C102.387 11.7812 102.152 11.5881 101.973 11.3267C101.794 11.0653 101.705 10.7372 101.705 10.3423V3.88636ZM107.036 12.1449C106.621 12.1449 106.246 12.0682 105.911 11.9148C105.575 11.7585 105.31 11.5327 105.114 11.2372C104.921 10.9418 104.824 10.5795 104.824 10.1506C104.824 9.78125 104.895 9.47727 105.037 9.23864C105.179 9 105.371 8.81108 105.612 8.67188C105.854 8.53267 106.124 8.42756 106.422 8.35653C106.72 8.28551 107.024 8.23153 107.334 8.1946C107.726 8.14915 108.044 8.11222 108.288 8.08381C108.533 8.05256 108.71 8.00284 108.821 7.93466C108.932 7.86648 108.987 7.75568 108.987 7.60227V7.57244C108.987 7.20028 108.882 6.91193 108.672 6.70739C108.465 6.50284 108.155 6.40057 107.743 6.40057C107.314 6.40057 106.976 6.49574 106.729 6.68608C106.484 6.87358 106.315 7.08239 106.222 7.3125L105.024 7.03977C105.166 6.64205 105.374 6.32102 105.646 6.0767C105.922 5.82955 106.239 5.65057 106.597 5.53977C106.955 5.42614 107.331 5.36932 107.726 5.36932C107.987 5.36932 108.264 5.40057 108.557 5.46307C108.852 5.52273 109.128 5.63352 109.384 5.79545C109.642 5.95739 109.854 6.18892 110.019 6.49006C110.183 6.78835 110.266 7.17614 110.266 7.65341V12H109.021V11.1051H108.97C108.888 11.2699 108.764 11.4318 108.6 11.5909C108.435 11.75 108.223 11.8821 107.965 11.9872C107.706 12.0923 107.396 12.1449 107.036 12.1449ZM107.313 11.1222C107.665 11.1222 107.966 11.0526 108.216 10.9134C108.469 10.7741 108.661 10.5923 108.791 10.3679C108.925 10.1406 108.992 9.89773 108.992 9.6392V8.79545C108.946 8.84091 108.858 8.88352 108.727 8.9233C108.6 8.96023 108.453 8.9929 108.288 9.02131C108.124 9.04687 107.963 9.07102 107.807 9.09375C107.651 9.11364 107.52 9.13068 107.415 9.14489C107.168 9.17614 106.942 9.22869 106.737 9.30256C106.536 9.37642 106.374 9.48295 106.251 9.62216C106.132 9.75852 106.073 9.94034 106.073 10.1676C106.073 10.483 106.189 10.7216 106.422 10.8835C106.655 11.0426 106.952 11.1222 107.313 11.1222Z" fill="#00A8D2"/>
</svg>
