<svg width="45" height="56" viewBox="0 0 45 56" fill="none" xmlns="http://www.w3.org/2000/svg">
<path d="M2 0.200195H27.0635C27.5976 0.200263 28.1043 0.437328 28.4463 0.847656L44.1826 19.7314C44.4521 20.0549 44.5995 20.4628 44.5996 20.8838V54C44.5996 54.9941 43.7939 55.7998 42.7998 55.7998H2C1.00589 55.7998 0.200195 54.9941 0.200195 54V2C0.200195 1.00589 1.00589 0.200195 2 0.200195Z" fill="url(#paint0_linear_1063_3649)" stroke="#B7B7B7" stroke-width="0.4"/>
<path d="M32.5571 19.8376L23.0746 14.0889C22.8968 13.9704 22.6597 13.9704 22.4819 14.0889L12.9995 19.8376C12.8217 19.8968 12.7031 20.1339 12.7031 20.3117C12.7031 20.3709 12.7031 20.4302 12.7624 20.4895C12.7624 20.5487 12.7031 20.608 12.7031 20.6673V31.0388C12.7031 31.0981 12.7031 31.1573 12.7624 31.2166C12.7031 31.4537 12.7624 31.75 12.9995 31.8686L22.4819 37.6172H22.5412H22.6005C22.6597 37.6172 22.719 37.6765 22.7783 37.6765C22.8375 37.6765 22.8968 37.6765 22.956 37.6172H23.0153H23.0746L32.5571 31.8686C32.7941 31.75 32.8534 31.4537 32.7941 31.2166C32.7941 31.1573 32.8534 31.0981 32.8534 31.0388V20.6081V20.4896V20.3118C32.8534 20.134 32.7348 19.8968 32.5571 19.8376ZM13.8883 21.3785L22.1855 26.4159V36.0167L13.8883 30.9793V21.3785ZM23.3708 26.4159L31.668 21.3785V30.9793L23.3708 36.0167V26.4159ZM22.7782 15.274L31.1345 20.371L22.7782 25.4085L14.4218 20.3115L22.7782 15.274Z" fill="#7A7A7A"/>
<path d="M13.0297 46.7452C12.832 46.7452 12.6621 46.6753 12.5199 46.5355C12.3776 46.3932 12.3065 46.2221 12.3065 46.022C12.3065 45.8243 12.3776 45.6556 12.5199 45.5158C12.6621 45.3736 12.832 45.3025 13.0297 45.3025C13.2274 45.3025 13.3973 45.3736 13.5395 45.5158C13.6818 45.6556 13.7529 45.8243 13.7529 46.022C13.7529 46.1546 13.7191 46.2763 13.6516 46.3872C13.5865 46.4957 13.4998 46.5825 13.3913 46.6476C13.2828 46.7126 13.1623 46.7452 13.0297 46.7452ZM21.7204 42.9739C21.7204 43.7645 21.5758 44.4443 21.2865 45.0132C20.9972 45.5797 20.6007 46.016 20.0969 46.3221C19.5955 46.6259 19.0254 46.7777 18.3866 46.7777C17.7454 46.7777 17.1729 46.6259 16.6691 46.3221C16.1677 46.016 15.7723 45.5785 15.4831 45.0096C15.1938 44.4407 15.0492 43.7621 15.0492 42.9739C15.0492 42.1832 15.1938 41.5046 15.4831 40.9381C15.7723 40.3692 16.1677 39.9329 16.6691 39.6292C17.1729 39.3231 17.7454 39.17 18.3866 39.17C19.0254 39.17 19.5955 39.3231 20.0969 39.6292C20.6007 39.9329 20.9972 40.3692 21.2865 40.9381C21.5758 41.5046 21.7204 42.1832 21.7204 42.9739ZM20.6139 42.9739C20.6139 42.3712 20.5163 41.8638 20.3211 41.4516C20.1282 41.037 19.863 40.7236 19.5256 40.5115C19.1905 40.2969 18.8108 40.1897 18.3866 40.1897C17.9599 40.1897 17.579 40.2969 17.244 40.5115C16.9089 40.7236 16.6437 41.037 16.4485 41.4516C16.2556 41.8638 16.1592 42.3712 16.1592 42.9739C16.1592 43.5765 16.2556 44.0851 16.4485 44.4997C16.6437 44.912 16.9089 45.2253 17.244 45.4399C17.579 45.652 17.9599 45.7581 18.3866 45.7581C18.8108 45.7581 19.1905 45.652 19.5256 45.4399C19.863 45.2253 20.1282 44.912 20.3211 44.4997C20.5163 44.0851 20.6139 43.5765 20.6139 42.9739ZM23.1134 46.6765V39.2712H24.1945V42.0229H24.2596C24.3223 41.9072 24.4127 41.7734 24.5308 41.6215C24.6489 41.4697 24.8128 41.3371 25.0226 41.2238C25.2323 41.1081 25.5095 41.0502 25.8542 41.0502C26.3026 41.0502 26.7027 41.1635 27.0547 41.3901C27.4066 41.6167 27.6826 41.9433 27.8827 42.37C28.0852 42.7967 28.1864 43.3101 28.1864 43.9104C28.1864 44.5106 28.0864 45.0252 27.8863 45.4543C27.6862 45.881 27.4114 46.21 27.0619 46.4415C26.7124 46.6705 26.3134 46.785 25.865 46.785C25.5276 46.785 25.2516 46.7283 25.037 46.615C24.8249 46.5017 24.6586 46.3691 24.538 46.2173C24.4175 46.0654 24.3247 45.9304 24.2596 45.8123H24.1692V46.6765H23.1134ZM24.1728 43.8995C24.1728 44.29 24.2295 44.6323 24.3428 44.9264C24.4561 45.2205 24.62 45.4507 24.8345 45.617C25.0491 45.781 25.3118 45.8629 25.6228 45.8629C25.9458 45.8629 26.2158 45.7773 26.4327 45.6062C26.6497 45.4326 26.8136 45.1976 26.9245 44.9011C27.0378 44.6046 27.0944 44.2707 27.0944 43.8995C27.0944 43.5331 27.039 43.2041 26.9281 42.9124C26.8196 42.6207 26.6557 42.3905 26.4363 42.2218C26.2194 42.053 25.9482 41.9687 25.6228 41.9687C25.3094 41.9687 25.0442 42.0494 24.8273 42.2109C24.6128 42.3724 24.45 42.5978 24.3392 42.8871C24.2283 43.1763 24.1728 43.5138 24.1728 43.8995ZM29.4004 41.1225H30.4816V47.0381C30.4816 47.4093 30.4141 47.7227 30.2791 47.9782C30.1465 48.2337 29.9488 48.4278 29.6861 48.5603C29.4257 48.6929 29.1039 48.7592 28.7207 48.7592C28.6821 48.7592 28.6459 48.7592 28.6122 48.7592C28.576 48.7592 28.5387 48.758 28.5001 48.7556V47.8263C28.5338 47.8263 28.564 47.8263 28.5905 47.8263C28.6146 47.8263 28.6423 47.8263 28.6737 47.8263C28.9292 47.8263 29.1136 47.7576 29.2269 47.6202C29.3426 47.4852 29.4004 47.2888 29.4004 47.0308V41.1225ZM29.9356 40.2656C29.7476 40.2656 29.5861 40.2029 29.4511 40.0776C29.3185 39.9498 29.2522 39.7979 29.2522 39.622C29.2522 39.4436 29.3185 39.2917 29.4511 39.1664C29.5861 39.0386 29.7476 38.9747 29.9356 38.9747C30.1236 38.9747 30.2839 39.0386 30.4165 39.1664C30.5515 39.2917 30.619 39.4436 30.619 39.622C30.619 39.7979 30.5515 39.9498 30.4165 40.0776C30.2839 40.2029 30.1236 40.2656 29.9356 40.2656Z" fill="#7A7A7A"/>
<defs>
<linearGradient id="paint0_linear_1063_3649" x1="25.7683" y1="46.7684" x2="14.59" y2="-1.11891e-06" gradientUnits="userSpaceOnUse">
<stop stop-color="#EAEAEA"/>
<stop offset="1" stop-color="#FBFBFB"/>
</linearGradient>
</defs>
</svg>
