<svg width="57" height="60" viewBox="0 0 57 60" fill="none" xmlns="http://www.w3.org/2000/svg">
<path d="M0.467285 15.9082L24.9556 0.835815L49.8981 15.8471V41.1975V44.3569L45.1584 47.2339L42.654 48.8483L25.4781 59.2649L0.779603 44.6811L0.467285 15.9082Z" fill="url(#paint0_linear_1064_3720)"/>
<path d="M0.5 15.7744L25.5029 0.587219L49.8209 15.7744M0.5 15.7744V44.3738L25.5029 59.2729M0.5 15.7744L25.5029 31.1873M25.5029 59.2729V31.1873M25.5029 59.2729L49.8209 44.3738V15.7744M25.5029 31.1873L49.8209 15.7744" stroke="#B7B7B7"/>
<rect x="21.9985" y="36.7799" width="34.5" height="13.5" rx="1.75" fill="#F4008A"/>
<rect x="21.9985" y="36.7799" width="34.5" height="13.5" rx="1.75" stroke="#E8E8E8" stroke-width="0.5"/>
<path d="M26.9909 47.5299V40.2572H29.5832C30.149 40.2572 30.6178 40.3602 30.9895 40.5662C31.3612 40.7721 31.6393 41.0538 31.824 41.4113C32.0087 41.7664 32.101 42.1665 32.101 42.6116C32.101 43.0591 32.0075 43.4615 31.8204 43.819C31.6358 44.1741 31.3564 44.4558 30.9824 44.6642C30.6107 44.8701 30.1431 44.9731 29.5797 44.9731H27.797V44.0427H29.4802C29.8377 44.0427 30.1277 43.9812 30.3503 43.8581C30.5728 43.7326 30.7362 43.5621 30.8403 43.3467C30.9445 43.1313 30.9966 42.8862 30.9966 42.6116C30.9966 42.337 30.9445 42.0931 30.8403 41.8801C30.7362 41.667 30.5716 41.5001 30.3467 41.3794C30.1242 41.2586 29.8306 41.1983 29.466 41.1983H28.0882V47.5299H26.9909ZM33.3874 47.5299V40.2572H37.947V41.2018H34.4847V43.4177H37.7091V44.3588H34.4847V46.5853H37.9897V47.5299H33.3874ZM39.0541 41.2018V40.2572H44.6827V41.2018H42.4135V47.5299H41.3197V41.2018H39.0541ZM50.5358 42.5548C50.4672 42.3394 50.3748 42.1464 50.2588 41.976C50.1452 41.8031 50.0091 41.6564 49.8505 41.5356C49.6918 41.4125 49.5107 41.319 49.3071 41.2551C49.1059 41.1912 48.8845 41.1592 48.6431 41.1592C48.2335 41.1592 47.8642 41.2645 47.5351 41.4753C47.206 41.686 46.9456 41.9949 46.7539 42.4021C46.5645 42.8069 46.4698 43.3029 46.4698 43.89C46.4698 44.4795 46.5657 44.9779 46.7574 45.3851C46.9492 45.7922 47.212 46.1012 47.5458 46.3119C47.8796 46.5226 48.2595 46.6279 48.6857 46.6279C49.081 46.6279 49.4255 46.5475 49.7191 46.3865C50.015 46.2255 50.2434 45.9982 50.4044 45.7047C50.5678 45.4087 50.6495 45.0607 50.6495 44.6606L50.9335 44.7139H48.8526V43.8083H51.7112V44.6358C51.7112 45.2466 51.581 45.7769 51.3206 46.2267C51.0626 46.6741 50.7051 47.0198 50.2482 47.2636C49.7936 47.5074 49.2728 47.6294 48.6857 47.6294C48.0275 47.6294 47.4499 47.4779 46.9527 47.1748C46.4579 46.8718 46.072 46.4421 45.7951 45.8858C45.5181 45.327 45.3796 44.6642 45.3796 43.8971C45.3796 43.3171 45.4601 42.7963 45.621 42.3346C45.782 41.873 46.0081 41.4812 46.2993 41.1592C46.5929 40.8349 46.9373 40.5875 47.3327 40.417C47.7304 40.2442 48.1648 40.1578 48.636 40.1578C49.029 40.1578 49.3947 40.2158 49.7333 40.3318C50.0742 40.4478 50.3772 40.6123 50.6424 40.8254C50.9099 41.0385 51.1312 41.2918 51.3064 41.5853C51.4816 41.8765 51.6 42.1997 51.6615 42.5548H50.5358Z" fill="#F3F3F3"/>
<defs>
<linearGradient id="paint0_linear_1064_3720" x1="25.7711" y1="54.1215" x2="27.4323" y2="0.890259" gradientUnits="userSpaceOnUse">
<stop stop-color="#D9D9D9"/>
<stop offset="1" stop-color="#FBFBFB"/>
</linearGradient>
</defs>
</svg>
