<svg width="53" height="60" viewBox="0 0 53 60" fill="none" xmlns="http://www.w3.org/2000/svg">
<path d="M0.467285 15.9082L24.9556 0.835815L49.8981 15.8471V41.1975V44.3569L45.1584 47.2339L42.654 48.8483L25.4781 59.2649L0.779603 44.6811L0.467285 15.9082Z" fill="url(#paint0_linear_1064_3712)"/>
<path d="M0.5 15.7744L25.5029 0.587219L49.8209 15.7744M0.5 15.7744V44.3738L25.5029 59.2729M0.5 15.7744L25.5029 31.1873M25.5029 59.2729V31.1873M25.5029 59.2729L49.8209 44.3738V15.7744M25.5029 31.1873L49.8209 15.7744" stroke="#B7B7B7"/>
<rect x="24.6422" y="35.9299" width="27.2" height="13.2" rx="1.6" fill="#F4008A"/>
<rect x="24.6422" y="35.9299" width="27.2" height="13.2" rx="1.6" stroke="#E6E6E6" stroke-width="0.8"/>
<path d="M29.3342 46.5299V39.2572H31.9265C32.4923 39.2572 32.9611 39.3602 33.3327 39.5662C33.7044 39.7721 33.9826 40.0538 34.1673 40.4113C34.3519 40.7664 34.4442 41.1665 34.4442 41.6116C34.4442 42.0591 34.3507 42.4615 34.1637 42.819C33.979 43.1741 33.6997 43.4558 33.3256 43.6642C32.954 43.8701 32.4864 43.9731 31.9229 43.9731H30.1403V43.0427H31.8235C32.181 43.0427 32.471 42.9812 32.6935 42.8581C32.9161 42.7326 33.0794 42.5621 33.1836 42.3467C33.2878 42.1313 33.3398 41.8862 33.3398 41.6116C33.3398 41.337 33.2878 41.0931 33.1836 40.8801C33.0794 40.667 32.9149 40.5001 32.69 40.3794C32.4674 40.2586 32.1739 40.1983 31.8093 40.1983H30.4315V46.5299H29.3342ZM35.7306 46.5299V39.2572H36.8279V45.5853H40.1234V46.5299H35.7306ZM42.3606 46.5299H41.1958L43.813 39.2572H45.0808L47.698 46.5299H46.5332L44.4771 40.5782H44.4203L42.3606 46.5299ZM42.5559 43.6819H46.3343V44.6052H42.5559V43.6819Z" fill="#F3F3F3"/>
<defs>
<linearGradient id="paint0_linear_1064_3712" x1="25.7711" y1="54.1215" x2="27.4323" y2="0.890259" gradientUnits="userSpaceOnUse">
<stop stop-color="#D9D9D9"/>
<stop offset="1" stop-color="#FBFBFB"/>
</linearGradient>
</defs>
</svg>
