<svg width="188" height="188" viewBox="0 0 188 188" fill="none" xmlns="http://www.w3.org/2000/svg">
<rect width="187.88" height="187.88" rx="8" fill="#F4008A"/>
<path d="M19.2217 72.4048H33.6063L43.501 96.5178H43.9998L53.8945 72.4048H68.2791V114.977H56.971V90.3648H56.6384L47.1595 114.644H40.3413L30.8624 90.1985H30.5298V114.977H19.2217V72.4048Z" fill="#C80573"/>
<path d="M98.9504 72.4048H110.508V99.6774C110.508 102.92 109.732 105.726 108.18 108.096C106.642 110.452 104.494 112.274 101.736 113.563C98.9781 114.838 95.7769 115.476 92.1323 115.476C88.4599 115.476 85.2448 114.838 82.4871 113.563C79.7293 112.274 77.5813 110.452 76.0431 108.096C74.5187 105.726 73.7565 102.92 73.7565 99.6774V72.4048H85.3141V98.6796C85.3141 99.9961 85.6051 101.174 86.1872 102.213C86.7692 103.239 87.573 104.043 88.5985 104.625C89.6378 105.207 90.8158 105.498 92.1323 105.498C93.4626 105.498 94.6406 105.207 95.6661 104.625C96.6916 104.043 97.4953 103.239 98.0774 102.213C98.6594 101.174 98.9504 99.9961 98.9504 98.6796V72.4048Z" fill="#C80573"/>
<path d="M116.001 114.977V72.4048H134.377C137.536 72.4048 140.301 72.9799 142.671 74.1301C145.041 75.2803 146.884 76.9364 148.2 79.0982C149.517 81.2601 150.175 83.8515 150.175 86.8726C150.175 89.9213 149.496 92.492 148.138 94.5846C146.794 96.6771 144.902 98.257 142.463 99.324C140.038 100.391 137.204 100.925 133.961 100.925H122.985V91.9446H131.633C132.991 91.9446 134.148 91.7783 135.104 91.4457C136.074 91.0993 136.816 90.5519 137.329 89.8035C137.855 89.0552 138.118 88.0782 138.118 86.8726C138.118 85.6531 137.855 84.6622 137.329 83.9C136.816 83.124 136.074 82.5558 135.104 82.1955C134.148 81.8213 132.991 81.6342 131.633 81.6342H127.559V114.977H116.001ZM140.945 95.4368L151.588 114.977H139.033L128.64 95.4368H140.945Z" fill="#C80573"/>
<path d="M166.659 72.4048V114.977H155.101V72.4048H166.659Z" fill="#C80573"/>
</svg>
