<svg width="56" height="60" viewBox="0 0 56 60" fill="none" xmlns="http://www.w3.org/2000/svg">
<path d="M0.467285 15.9082L24.9556 0.835815L49.8981 15.8471V41.1975V44.3569L45.1584 47.2339L42.654 48.8483L25.4781 59.2649L0.779603 44.6811L0.467285 15.9082Z" fill="url(#paint0_linear_1064_3749)"/>
<path d="M0.5 15.7744L25.5029 0.587219L49.8209 15.7744M0.5 15.7744V44.3738L25.5029 59.2729M0.5 15.7744L25.5029 31.1873M25.5029 59.2729V31.1873M25.5029 59.2729L49.8209 44.3738V15.7744M25.5029 31.1873L49.8209 15.7744" stroke="#B7B7B7"/>
<rect x="21.1621" y="36.7799" width="34.5" height="13.5" rx="1.75" fill="#F4008A"/>
<rect x="21.1621" y="36.7799" width="34.5" height="13.5" rx="1.75" stroke="#E8E8E8" stroke-width="0.5"/>
<path d="M26.174 47.5299V40.2572H28.7663C29.3298 40.2572 29.7973 40.3543 30.169 40.5484C30.5431 40.7425 30.8224 41.0112 31.0071 41.3545C31.1918 41.6954 31.2841 42.0896 31.2841 42.537C31.2841 42.9821 31.1906 43.3739 31.0036 43.7125C30.8189 44.0486 30.5395 44.3102 30.1655 44.4973C29.7938 44.6843 29.3262 44.7778 28.7628 44.7778H26.799V43.8332H28.6634C29.0185 43.8332 29.3073 43.7823 29.5298 43.6805C29.7547 43.5787 29.9193 43.4307 30.0234 43.2366C30.1276 43.0425 30.1797 42.8093 30.1797 42.537C30.1797 42.2624 30.1264 42.0245 30.0199 41.8233C29.9157 41.622 29.7512 41.4681 29.5263 41.3616C29.3037 41.2527 29.0114 41.1983 28.6491 41.1983H27.2713V47.5299H26.174ZM29.7642 44.2487L31.5611 47.5299H30.3111L28.5497 44.2487H29.7642ZM34.8166 47.64C34.2792 47.64 33.8163 47.5252 33.4281 47.2956C33.0422 47.0636 32.7439 46.738 32.5332 46.319C32.3249 45.8976 32.2207 45.404 32.2207 44.8382C32.2207 44.2795 32.3249 43.787 32.5332 43.3609C32.7439 42.9348 33.0375 42.6021 33.4139 42.363C33.7927 42.1239 34.2354 42.0044 34.742 42.0044C35.0498 42.0044 35.3481 42.0553 35.6369 42.1571C35.9257 42.2589 36.185 42.4187 36.4146 42.6365C36.6442 42.8543 36.8253 43.1372 36.9579 43.4852C37.0905 43.8308 37.1568 44.2511 37.1568 44.7458V45.1223H32.8208V44.3268H36.1163C36.1163 44.0475 36.0595 43.8001 35.9458 43.5846C35.8322 43.3668 35.6724 43.1952 35.4664 43.0697C35.2628 42.9442 35.0237 42.8815 34.7491 42.8815C34.4508 42.8815 34.1904 42.9549 33.9679 43.1017C33.7477 43.2461 33.5772 43.4355 33.4565 43.6699C33.3381 43.9019 33.2789 44.154 33.2789 44.4262V45.0477C33.2789 45.4123 33.3429 45.7224 33.4707 45.9781C33.6009 46.2338 33.782 46.4291 34.014 46.564C34.246 46.6966 34.5171 46.7629 34.8272 46.7629C35.0285 46.7629 35.2119 46.7345 35.3777 46.6777C35.5434 46.6185 35.6866 46.5309 35.8074 46.4149C35.9281 46.2989 36.0204 46.1556 36.0843 45.9852L37.0893 46.1663C37.0088 46.4622 36.8644 46.7215 36.6561 46.944C36.4501 47.1642 36.1909 47.3358 35.8784 47.4589C35.5682 47.5797 35.2143 47.64 34.8166 47.64ZM42.4222 43.4071L41.4599 43.5775C41.4196 43.4544 41.3557 43.3372 41.2681 43.226C41.1829 43.1147 41.0669 43.0235 40.9201 42.9525C40.7733 42.8815 40.5898 42.846 40.3697 42.846C40.069 42.846 39.8181 42.9135 39.6168 43.0484C39.4156 43.181 39.315 43.3526 39.315 43.5633C39.315 43.7456 39.3825 43.8924 39.5174 44.0037C39.6523 44.1149 39.8701 44.2061 40.1708 44.2771L41.0373 44.476C41.5392 44.592 41.9132 44.7707 42.1594 45.0122C42.4057 45.2537 42.5288 45.5673 42.5288 45.9532C42.5288 46.2799 42.4341 46.5711 42.2447 46.8268C42.0576 47.0801 41.796 47.279 41.4599 47.4234C41.1261 47.5678 40.739 47.64 40.2987 47.64C39.6879 47.64 39.1895 47.5098 38.8036 47.2494C38.4177 46.9866 38.181 46.6137 38.0934 46.1308L39.1197 45.9745C39.1836 46.2421 39.315 46.4445 39.5138 46.5818C39.7127 46.7167 39.9719 46.7842 40.2915 46.7842C40.6396 46.7842 40.9177 46.712 41.1261 46.5676C41.3344 46.4208 41.4386 46.2421 41.4386 46.0314C41.4386 45.8609 41.3746 45.7177 41.2468 45.6017C41.1213 45.4857 40.9284 45.3981 40.668 45.3389L39.7447 45.1365C39.2357 45.0205 38.8593 44.8358 38.6154 44.5825C38.3739 44.3292 38.2532 44.0084 38.2532 43.6201C38.2532 43.2982 38.3432 43.0164 38.5231 42.775C38.703 42.5335 38.9516 42.3453 39.2688 42.2103C39.5861 42.073 39.9495 42.0044 40.359 42.0044C40.9485 42.0044 41.4125 42.1322 41.7511 42.3879C42.0896 42.6412 42.3133 42.9809 42.4222 43.4071ZM43.6962 47.5299V42.0754H44.758V47.5299H43.6962ZM44.2324 41.2338C44.0478 41.2338 43.8891 41.1722 43.7566 41.0491C43.6264 40.9236 43.5613 40.7745 43.5613 40.6017C43.5613 40.4265 43.6264 40.2773 43.7566 40.1542C43.8891 40.0288 44.0478 39.966 44.2324 39.966C44.4171 39.966 44.5745 40.0288 44.7047 40.1542C44.8373 40.2773 44.9036 40.4265 44.9036 40.6017C44.9036 40.7745 44.8373 40.9236 44.7047 41.0491C44.5745 41.1722 44.4171 41.2338 44.2324 41.2338ZM47.2482 44.2913V47.5299H46.1864V42.0754H47.2056V42.9632H47.2731C47.3986 42.6744 47.5951 42.4423 47.8626 42.2672C48.1325 42.092 48.4722 42.0044 48.8817 42.0044C49.2534 42.0044 49.579 42.0825 49.8583 42.2387C50.1377 42.3926 50.3543 42.6223 50.5082 42.9277C50.6621 43.2331 50.739 43.6107 50.739 44.0605V47.5299H49.6772V44.1883C49.6772 43.793 49.5742 43.484 49.3683 43.2615C49.1623 43.0366 48.8794 42.9241 48.5195 42.9241C48.2733 42.9241 48.0543 42.9774 47.8626 43.0839C47.6732 43.1904 47.5228 43.3467 47.4116 43.5527C47.3027 43.7563 47.2482 44.0025 47.2482 44.2913Z" fill="#F3F3F3"/>
<defs>
<linearGradient id="paint0_linear_1064_3749" x1="25.7711" y1="54.1215" x2="27.4323" y2="0.890259" gradientUnits="userSpaceOnUse">
<stop stop-color="#D9D9D9"/>
<stop offset="1" stop-color="#FBFBFB"/>
</linearGradient>
</defs>
</svg>
