<svg width="45" height="56" viewBox="0 0 45 56" fill="none" xmlns="http://www.w3.org/2000/svg">
<path d="M2 0.200195H27.0635C27.5976 0.200263 28.1043 0.437328 28.4463 0.847656L44.1826 19.7314C44.4521 20.0549 44.5995 20.4628 44.5996 20.8838V54C44.5996 54.9941 43.7939 55.7998 42.7998 55.7998H2C1.00589 55.7998 0.200195 54.9941 0.200195 54V2C0.200195 1.00589 1.00589 0.200195 2 0.200195Z" fill="url(#paint0_linear_1063_3671)" stroke="#B7B7B7" stroke-width="0.4"/>
<path d="M32.5571 19.8376L23.0746 14.0889C22.8968 13.9704 22.6597 13.9704 22.4819 14.0889L12.9995 19.8376C12.8217 19.8968 12.7031 20.1339 12.7031 20.3117C12.7031 20.3709 12.7031 20.4302 12.7624 20.4895C12.7624 20.5487 12.7031 20.608 12.7031 20.6673V31.0388C12.7031 31.0981 12.7031 31.1573 12.7624 31.2166C12.7031 31.4537 12.7624 31.75 12.9995 31.8686L22.4819 37.6172H22.5412H22.6005C22.6597 37.6172 22.719 37.6765 22.7783 37.6765C22.8375 37.6765 22.8968 37.6765 22.956 37.6172H23.0153H23.0746L32.5571 31.8686C32.7941 31.75 32.8534 31.4537 32.7941 31.2166C32.7941 31.1573 32.8534 31.0981 32.8534 31.0388V20.6081V20.4896V20.3118C32.8534 20.134 32.7348 19.8968 32.5571 19.8376ZM13.8883 21.3785L22.1855 26.4159V36.0167L13.8883 30.9793V21.3785ZM23.3708 26.4159L31.668 21.3785V30.9793L23.3708 36.0167V26.4159ZM22.7782 15.274L31.1345 20.371L22.7782 25.4085L14.4218 20.3115L22.7782 15.274Z" fill="#7A7A7A"/>
<path d="M14.8991 46.7452C14.7014 46.7452 14.5315 46.6753 14.3893 46.5355C14.247 46.3932 14.1759 46.2221 14.1759 46.022C14.1759 45.8243 14.247 45.6556 14.3893 45.5158C14.5315 45.3736 14.7014 45.3025 14.8991 45.3025C15.0968 45.3025 15.2667 45.3736 15.4089 45.5158C15.5512 45.6556 15.6223 45.8243 15.6223 46.022C15.6223 46.1546 15.5885 46.2763 15.521 46.3872C15.4559 46.4957 15.3692 46.5825 15.2607 46.6476C15.1522 46.7126 15.0317 46.7452 14.8991 46.7452ZM21.1961 41.2166C21.1575 40.8743 20.9984 40.6091 20.7188 40.4211C20.4392 40.2306 20.0872 40.1354 19.663 40.1354C19.3592 40.1354 19.0965 40.1836 18.8747 40.2801C18.6529 40.3741 18.4806 40.5042 18.3577 40.6706C18.2371 40.8345 18.1769 41.0213 18.1769 41.231C18.1769 41.407 18.2178 41.5589 18.2998 41.6866C18.3842 41.8144 18.4938 41.9216 18.6288 42.0084C18.7662 42.0928 18.9133 42.1639 19.07 42.2218C19.2267 42.2772 19.3773 42.323 19.522 42.3592L20.2451 42.5472C20.4814 42.605 20.7236 42.6834 20.9719 42.7822C21.2202 42.8811 21.4504 43.0112 21.6625 43.1727C21.8747 43.3342 22.0458 43.5343 22.176 43.773C22.3086 44.0116 22.3749 44.2973 22.3749 44.6299C22.3749 45.0494 22.2664 45.4218 22.0494 45.7472C21.8349 46.0726 21.5227 46.3294 21.1129 46.5174C20.7055 46.7054 20.2126 46.7994 19.634 46.7994C19.0796 46.7994 18.5999 46.7114 18.1949 46.5355C17.79 46.3595 17.473 46.11 17.244 45.787C17.015 45.4616 16.8884 45.0759 16.8643 44.6299H17.9852C18.0069 44.8975 18.0937 45.1205 18.2456 45.2988C18.3998 45.4748 18.5963 45.6062 18.8349 45.693C19.076 45.7773 19.34 45.8195 19.6268 45.8195C19.9426 45.8195 20.2234 45.7701 20.4693 45.6713C20.7176 45.57 20.9128 45.4302 21.0551 45.2518C21.1973 45.071 21.2684 44.8601 21.2684 44.6191C21.2684 44.3997 21.2057 44.2201 21.0804 44.0803C20.9574 43.9405 20.7899 43.8248 20.5778 43.7332C20.3681 43.6416 20.1306 43.5608 19.8655 43.4909L18.9904 43.2523C18.3974 43.0908 17.9274 42.8533 17.5802 42.54C17.2355 42.2266 17.0632 41.812 17.0632 41.2961C17.0632 40.8694 17.1789 40.497 17.4103 40.1788C17.6417 39.8606 17.9551 39.6135 18.3504 39.4376C18.7458 39.2592 19.1917 39.17 19.6883 39.17C20.1897 39.17 20.632 39.258 21.0153 39.4339C21.401 39.6099 21.7047 39.8522 21.9265 40.1607C22.1483 40.4669 22.264 40.8188 22.2736 41.2166H21.1961ZM26.2158 41.1225V41.9904H23.1821V41.1225H26.2158ZM23.9957 39.7919H25.0768V45.0457C25.0768 45.2555 25.1081 45.4133 25.1708 45.5194C25.2335 45.6231 25.3142 45.6942 25.4131 45.7327C25.5143 45.7689 25.624 45.787 25.7421 45.787C25.8289 45.787 25.9048 45.781 25.9699 45.7689C26.035 45.7569 26.0856 45.7472 26.1218 45.74L26.317 46.6331C26.2544 46.6572 26.1652 46.6813 26.0495 46.7054C25.9337 46.7319 25.7891 46.7464 25.6156 46.7488C25.3311 46.7536 25.0659 46.703 24.8201 46.5969C24.5742 46.4909 24.3753 46.327 24.2235 46.1052C24.0716 45.8834 23.9957 45.605 23.9957 45.2699V39.7919ZM28.6122 39.2712V46.6765H27.531V39.2712H28.6122Z" fill="#7A7A7A"/>
<defs>
<linearGradient id="paint0_linear_1063_3671" x1="25.7683" y1="46.7684" x2="14.59" y2="-1.11891e-06" gradientUnits="userSpaceOnUse">
<stop stop-color="#EAEAEA"/>
<stop offset="1" stop-color="#FBFBFB"/>
</linearGradient>
</defs>
</svg>
