<svg width="56" height="60" viewBox="0 0 56 60" fill="none" xmlns="http://www.w3.org/2000/svg">
<path d="M0.467285 15.9082L24.9556 0.835815L49.8981 15.8471V41.1975V44.3569L45.1584 47.2339L42.654 48.8483L25.4781 59.2649L0.779603 44.6811L0.467285 15.9082Z" fill="url(#paint0_linear_1064_3742)"/>
<path d="M0.5 15.7744L25.5029 0.587219L49.8209 15.7744M0.5 15.7744V44.3738L25.5029 59.2729M0.5 15.7744L25.5029 31.1873M25.5029 59.2729V31.1873M25.5029 59.2729L49.8209 44.3738V15.7744M25.5029 31.1873L49.8209 15.7744" stroke="#B7B7B7"/>
<rect x="26.5049" y="36.7799" width="28.5" height="13.5" rx="1.75" fill="#F4008A"/>
<rect x="26.5049" y="36.7799" width="28.5" height="13.5" rx="1.75" stroke="#E8E8E8" stroke-width="0.5"/>
<path d="M30.6952 41.2018V40.2572H36.3238V41.2018H34.0546V47.5299H32.9608V41.2018H30.6952ZM37.5676 47.5299V40.2572H40.1599C40.7257 40.2572 41.1945 40.3602 41.5661 40.5662C41.9378 40.7721 42.216 41.0538 42.4007 41.4113C42.5853 41.7664 42.6776 42.1665 42.6776 42.6116C42.6776 43.0591 42.5841 43.4615 42.3971 43.819C42.2124 44.1741 41.9331 44.4558 41.559 44.6642C41.1874 44.8701 40.7198 44.9731 40.1563 44.9731H38.3737V44.0427H40.0569C40.4144 44.0427 40.7044 43.9812 40.9269 43.8581C41.1495 43.7326 41.3128 43.5621 41.417 43.3467C41.5212 43.1313 41.5732 42.8862 41.5732 42.6116C41.5732 42.337 41.5212 42.0931 41.417 41.8801C41.3128 41.667 41.1483 41.5001 40.9234 41.3794C40.7008 41.2586 40.4073 41.1983 40.0427 41.1983H38.6649V47.5299H37.5676ZM48.6409 40.2572H49.7417V45.0406C49.7417 45.5496 49.6222 46.0006 49.3831 46.3936C49.144 46.7842 48.8078 47.092 48.3746 47.3169C47.9413 47.5394 47.4335 47.6507 46.8511 47.6507C46.2711 47.6507 45.7645 47.5394 45.3312 47.3169C44.898 47.092 44.5618 46.7842 44.3227 46.3936C44.0836 46.0006 43.964 45.5496 43.964 45.0406V40.2572H45.0613V44.9518C45.0613 45.2809 45.1336 45.5733 45.278 45.8289C45.4247 46.0846 45.6319 46.2859 45.8994 46.4326C46.1669 46.577 46.4842 46.6493 46.8511 46.6493C47.2204 46.6493 47.5389 46.577 47.8064 46.4326C48.0763 46.2859 48.2822 46.0846 48.4243 45.8289C48.5687 45.5733 48.6409 45.2809 48.6409 44.9518V40.2572Z" fill="#F3F3F3"/>
<defs>
<linearGradient id="paint0_linear_1064_3742" x1="25.7711" y1="54.1215" x2="27.4323" y2="0.890259" gradientUnits="userSpaceOnUse">
<stop stop-color="#D9D9D9"/>
<stop offset="1" stop-color="#FBFBFB"/>
</linearGradient>
</defs>
</svg>
