<svg width="59" height="61" viewBox="0 0 59 61" fill="none" xmlns="http://www.w3.org/2000/svg">
<path d="M0.466797 16.7699L25.5024 0.596436L49.8977 16.7088V42.0592V45.2186L45.1579 48.0956L42.6535 49.71L25.4776 60.1266L0.779114 45.5428L0.466797 16.7699Z" fill="url(#paint0_linear_1063_3684)"/>
<circle cx="46.9014" cy="45.8122" r="12" fill="#B7B7B7"/>
<path d="M0.5 16.6361L25.5029 0.596466L49.8209 16.6361M0.5 16.6361V45.2355L25.5029 60.1346M0.5 16.6361L25.5029 32.049M25.5029 60.1346V32.049M25.5029 60.1346L49.8209 45.2355V16.6361M25.5029 32.049L49.8209 16.6361" stroke="#B7B7B7"/>
<path d="M45.7534 51.7043V40.1816H48.046V51.7043H45.7534ZM41.1426 47.085V44.7924H52.6653V47.085H41.1426Z" fill="white"/>
<defs>
<linearGradient id="paint0_linear_1063_3684" x1="25.7706" y1="54.8863" x2="27.4949" y2="0.653913" gradientUnits="userSpaceOnUse">
<stop stop-color="#D9D9D9"/>
<stop offset="1" stop-color="#FBFBFB"/>
</linearGradient>
</defs>
</svg>
