<svg preserveAspectRatio="none" width="100%" height="100%" overflow="visible" style="display: block;" viewBox="0 0 60 63" fill="none" xmlns="http://www.w3.org/2000/svg">
<g id="Group 1000000915">
<path id="Vector" d="M52.3438 15.3904L27.3437 0.234375C26.875 -0.078125 26.2499 -0.078125 25.7812 0.234375L0.78125 15.3904C0.3125 15.5466 0 16.1716 0 16.6404C0 16.7966 0 16.9529 0.15625 17.1091C0.15625 17.2654 0 17.4216 0 17.5779V44.9219C0 45.0781 0 45.2344 0.15625 45.3906C0 46.0156 0.15625 46.7968 0.78125 47.1094L25.7812 62.2654H25.9375H26.0937C26.25 62.2654 26.4062 62.4217 26.5625 62.4217C26.7187 62.4217 26.875 62.4217 27.0312 62.2654H27.1875H27.3437L52.3438 47.1094C52.9688 46.7969 53.125 46.0156 52.9688 45.3906C52.9688 45.2344 53.125 45.0781 53.125 44.9219V17.4219V17.1094V16.6406C53.125 16.1719 52.8125 15.5466 52.3438 15.3904ZM3.12475 19.4529L24.9998 32.7339V58.0459L3.12475 44.7649V19.4529ZM28.1248 32.7339L49.9997 19.4529V44.7649L28.1248 58.0459V32.7339ZM26.5623 3.35888L48.5933 16.7969L26.5623 30.0779L4.53125 16.6399L26.5623 3.35888Z" fill="var(--fill-0, #626262)"/>
<circle id="Ellipse 1118" cx="47.125" cy="46" r="12" fill="var(--fill-0, #626262)"/>
<path id="+" d="M45.9765 51.8921V40.3694H48.2691V51.8921H45.9765ZM41.3657 47.2728V44.9802H52.8885V47.2728H41.3657Z" fill="var(--fill-0, white)"/>
</g>
</svg>
