<?xml version="1.0" encoding="UTF-8"?>
<svg id="Layer_2" data-name="Layer 2" xmlns="http://www.w3.org/2000/svg" viewBox="0 0 442.53 155.58">
  <defs>
    <style>
      .cls-1 {
        stroke-width: 0px;
      }
    </style>
  </defs>
  <g id="Layer_1-2" data-name="Layer 1">
    <g>
      <g>
        <path class="cls-1" d="m166.1,137.97c-.22-.8-4.27-3.47-3.55-4.13.16-.15,3.55-.22,3.55-1.78,0-.26-1.88-1.71-1.19-4.73.91-3.92.84-6.93,0-10.64-1.1-4.92-.94-15.33,0-20.1.08-.4-.95-1.55-1.18-1.78-.19-.18-.16-4.36,0-5.32.44-2.61.44-3.29,0-5.91-.25-1.5.35-6.16,0-6.5-.52-.53-12.22.42-14.77,0-2.28-.38-4.04-.26-7.09-1.19-2.3-.7-3.21,1.13-3.54,1.19-1.5.26-6.15-.36-6.5,0-.32.31.29,3.06,0,4.14-.54,1.97-2.66-.13-1.18,4.73.56,1.85-2.97,10.56-3.55,13-.44,1.9.85,3.83-1.77,5.32-.55.32-.1,5.99-.59,7.69-.19.66-2.36,1.9-2.36,2.37,0,.39,1.18.78,1.18,1.18,0,.44-2.36,1.92-2.36,2.36,0,.39,1.03.69,1.18,1.19.55,1.9-.36,6.52-2.37,4.13-.33-.39.23-3.96,0-5.32-.08-.53-1.08-2.99-1.18-3.54-.19-1.13.27-3.88,0-4.14-.22-.22-2.14.22-2.36,0s-.76-3.79-1.18-5.32c-1.04-3.78-6.27-21.21-5.91-22.47.14-.49,1.18-.8,1.18-1.18,0-.41-1.93-1.59-2.36-2.37-.27-.49.17-1.77,0-1.77h-31.9c-.93,2.06,1.12,3.76,1.18,4.14.31,2.16.41,9.9,0,11.82-.11.47-.24,3.91,0,4.14.8.76-4.02,7.02,1.18,5.91-2.02,2.3.44,2.54,0,4.14-1.39,5.03-2.36,20.58-2.36,26.01,0,.4,1.97,1.24,1.18,2.37,0,0,.96,2.78,1.18,3.55.45,1.56-1.63,1.98-1.18,3.54.19.69,3.71,2.79,2.36,4.14-.14.14-1.88-.54-2.95,1.19-1.75,2.78.41,4.44.59,7.09,2.79-.31,6.21.44,8.86,0,.45-.07.79-1.18,1.18-1.18.2,0,1.19,1.87,3.55,1.18.61-.18,1.02-1.82,2.95-1.18l-1.18-7.1,3.54,2.37v-39.61c0-.76,1.2.34,0-3.55-.61-1.98-.58-5.15,2.37-4.14l1.18,6.5c2.42,1.62-.58,1.98-1.18,4.14,3.43-.47,1.86.57,2.36,1.78,1.46,3.5,3.91,9.47,4.73,13,.31,1.34-.26,3.28,0,4.73.08.47,1.83,1.06,1.18,2.96.32.35.33,1.33,1.18,4.14.84,2.78,2.36,5.32,2.36,5.32-.98,3.51,1.77,1.88,2.36,2.36.22.18-1.91,2.67-1.18,5.32.48,1.74,5.16,2.42,5.91,1.78.44-.38-2.6-2.65-.59-3.55,1.04.66,2.79,3.34,3.55,3.55.95.26,2.42-.19,3.54,0,.45.08.79,1.18,1.18,1.18s.73-1.1,1.18-1.18c1.13-.2,3.86.27,4.14,0,.17-.17-.25-3.42,1.18-4.73l-3.54-1.18,5.9-1.19c.42-2.94-1.84-4.72-1.18-7.68.1-.42,2.28-3.14,2.36-3.55.33-1.49-.38-6.12,0-6.5.23-.23,2.15.22,2.37,0,.24-.25-.24-2.09,0-2.96.15-.55,1.82-1.13,1.18-3.55-.12-.43-1.77-1.29-1.18-1.77.28-.23,2.12.22,2.36,0,1-.94-1.19-2.8-1.18-2.96.01-.35,1.37-1.12,1.77-1.77.86-1.38-1.2-1.84-.59-2.37,1.38-1.19,4.56,1.22,4.73,2.96.67,6.93-1.08,15.99,0,22.47.32,1.96.41,3.39,1.18,5.91.71,2.33-1.18,3.35-1.18,3.55,0,.38,1.05.7,1.18,1.18.2.74-.21,1.64,0,2.36.06.21,2.74,2.96,2.95,2.96s1.22-1.89,3.55-1.18c4.01,1.22,5.71.44,8.27,1.18,2.21.64,3.17-1.47,5.32-1.18-.77-4.39,1.05-12.14,0-15.97Zm-82.71-29.56c0,.77-1.19.77-1.19,0s1.19-.77,1.19,0Zm-2.37,5.32c1.12-.93,4.37,1.93,4.73,3.55-3.48,1.05-1.96-1.96-2.36-2.36-.13-.13-3.85.06-2.37-1.19Zm1.18,8.28c-1.69-1.41,3.55-1.52,3.55.59,0,1.6-1.34-.44-1.77-.59-.67-.23-1.54.19-1.78,0Zm1.19,24.83l2.36-2.36c.3,2.49.12,2.67-2.36,2.36Zm3.54-.59c0-.77,1.18-.77,1.18,0s-1.18.77-1.18,0Zm1.18-22.47c0-.76,1.18-.76,1.18,0s-1.18.77-1.18,0Zm1.18,27.2c0-.77,1.18-.77,1.18,0s-1.18.77-1.18,0Zm1.18-32.52c-.79.95-1.93-1.46-1.18-2.36.8-.95,1.94,1.46,1.18,2.36Zm7.09-17.73c-.79.95-1.93-1.47-1.18-2.37.8-.95,1.94,1.47,1.18,2.37Zm16.55,50.25c0-.77,1.18-.77,1.18,0s-1.18.77-1.18,0Zm2.36-3.55c0-.76,1.18-.76,1.18,0s-1.18.77-1.18,0Zm2.36-4.13c-.79.95-1.93-1.47-1.18-2.37.79-.95,1.93,1.46,1.18,2.37Zm4.14,0c-.24.06-1.98,2.15-2.96,1.18-.08-.09-.08-2.28,0-2.37.21-.21,5.69-.19,5.91,0,1.54,1.29-2.29,1-2.95,1.19Zm4.13,7.68c0-.77,1.19-.77,1.19,0s-1.19.77-1.19,0Zm17.73-51.44c1.03,1.28-.44,5.48-2.37,3.55-.98-.98,1.82-4.22,2.37-3.55Zm1.18,11.83c-.8.8-4.07-1.06-3.55-2.96,1.11-4,5.28,1.23,3.55,2.96Z"/>
        <g>
          <path class="cls-1" d="m313.22,108.05c.29,2.35.12,2.52-2.23,2.23l2.23-2.23Z"/>
          <path class="cls-1" d="m313.22,99.12c.9.75-1.38,1.83-2.23,1.12-.9-.75,1.38-1.83,2.23-1.12Z"/>
          <path class="cls-1" d="m309.87,103.58c.75-.9,1.83,1.38,1.12,2.23-.75.9-1.83-1.38-1.12-2.23Z"/>
          <path class="cls-1" d="m310.99,101.91c0-.73,1.12-.73,1.12,0s-1.12.73-1.12,0Z"/>
          <path class="cls-1" d="m319.3,85.9c.96-.94-3.12-6.95.57-7.97,2.48-.68,8.18.24,11.38,0,.41-.03.73-1.1,1.14-1.14,2.52-.24,10.16-.65,10.81,1.71.9,3.26-.64,9.82,0,13.66s2.36,13.89,1.14,19.36c-1.32,5.87.89,14.01,0,19.36-.56,3.38.78,8.08,1.14,10.25.47,2.83.2,12.26-2.84,13.1-.97.27-2.45-.27-3.41,0-.77.21-6.64.29-7.96,0-1.13-.24-6.95-.12-7.96,0-6.47.74-6.26-4.43-6.26-5.12,0-.25,1.65-1.55,1.14-4.55-.07-.44-1.13-.76-1.14-1.14,0-.42,2.76-5.06,2.28-6.83-1.01-3.68-.9-8.14,0-11.39.37-1.35-2.09-3.71-2.28-4.55-1.1-5.08,2.48-12.21,1.14-18.22-1.22-5.46,1.1-9.27,0-14.8-.08-.38.92-1.49,1.14-1.71Z"/>
        </g>
        <path class="cls-1" d="m242.78,116.5c-2.76-10.03-.61-23.72-2.29-34.39-.2-1.27.29-4.86,0-5.15-.81-.81-19.65,0-22.91,0-.88,0-.15,16.16,0,17.76.04.41,1.09.72,1.15,1.15.15,1.09.22,6.08,0,6.3s-.74,1.39-1.15,2.87c-.98,3.57-.65,5.61,0,9.16.17.89.19,4.98,0,5.16-.21.22-.18,2.21,0,2.87.82,2.83-1.34,5.23-1.14,5.73,1.01,2.53-2.01,4.87-2.29,5.15-.25.25-4.52,2.11-5.16,2.3-.71.2-1.61-.22-2.29,0-.46.15-.7,1.02-1.14,1.14-1.5.42-1.74-.97-2.29-1.14-.72-.23-1.66.25-2.29,0-.64-.26-4.69-.58-5.16-1.15-.19-.24.26-1.1,0-1.72-.2-.49-1.07-.74-1.14-1.14-.23-1.28-2.08-4.95-2.29-5.16-.87-.87,1.9-7.16-2.29-5.73-.09-1.26,2.08-2.13,2.29-2.87.2-.72-.22-1.61,0-2.29.64-1.99,2.29-1.96-1.15-4.58,1.77-10.01-.75-20.56,1.15-29.8,1.28-6.23-2.13-3.32-6.3-4.01-2.46-.41-3.37.4-5.73,0-3.33-.57-2.45.67-4.58,1.14-2.85.64-4.73-1.42-5.72-1.14-2.2.6-1.46,3.6-1.72,5.15-.08.44.41,1.95,0,3.44-1.09,3.95-.8,4.47,0,8.02,1.73,7.75-.93,19.62,0,25.22.48,2.87.28,3.88,1.14,6.88.44,1.51-1.58,1.92-1.14,3.43.84,2.92,2.44,5.7,3.43,9.17.1.33,2.77,4.59,3.44,5.73.47.81,1.85,1.51,2.29,2.29.3.55-.21,1.51,0,1.72.21.22,1.18-.3,1.72,0,1.06.6,2.68,3.23,3.43,3.44,1.78.49,4.83.62,6.88,1.15,2.01.52,4.84,1.66,6.87,2.29,1.15.36,5.52-1.04,9.16,0,1.07.31,10.69-1.91,12.6-2.29,2.91-.58,6.73-.74,9.16-2.29,2.12-1.36,1.57-3.3,1.72-3.44.21-.22,1.18.3,1.71,0,2.7-1.54-.38-1.97,4.58-3.44,2.76-.82,2.94-5.67,4.01-7.45.48-.79,2.14-1.73,2.29-2.29,1-3.64-.88-10.95,0-14.9.11-.46,1.56-.78,1.15-2.29Zm-51.54-9.17c0,.74-1.14.74-1.14,0s1.14-.75,1.14,0Z"/>
        <path class="cls-1" d="m318.45,149.24c-.22-.48-.43-.95-.64-1.42-2.65-5.79-5.21-11.32-8.55-16.99-.18-.3.16-.9,0-1.15-1.34-2.01-4.28-4.61-5.75-6.9-.71-2.02,1.03-5.78,2.87-6.32.83-.25,2.63.24,2.88,0,.21-.22-.31-1.19,0-1.73,1.17-2.12,1.33-1.29,2.23-4.39.02-.07.04-.14.06-.21.13-.44.75-1.07,1.44-1.85,1.19-1.34,2.6-3.12,2.01-5.05-.16-.54-1.56-.79-1.15-2.3,1.17-4.23.58-2.51,0-5.76-.25-1.4.3-3.28,0-4.6-.1-.44-1.04-.7-1.15-1.15-.45-1.95.86-3.52-1.72-5.17-1.56-1-5.38-4.5-5.75-4.6-.2-.06-.4-.12-.59-.18-1.16-.37-2.1-.76-2.86-.97-.92-.27-2.38.21-3.44,0-.45-.09-.73-1.09-1.15-1.15-.34-.05-.73-.1-1.18-.14-.43,1.18-1.36,2.04-2.44.96-.26-.26-.26-.69-.09-1.16-1.12-.07-2.39-.13-3.77-.18-11.02-.42-29.07-.29-33.9.52-.44.07-.77,1.15-1.15,1.15s-.71-1.08-1.15-1.15c-8.21-1.37-9.85,3.5-8.62,10.92,1.01,6.08-.2,12.17,1.15,19.56.69,3.78-1.84,6.57-1.15,10.35,1.64,8.98.07,17.67,1.15,24.16.49,2.96-1.28,11.25,1.72,12.07,3.43.95,15.98,0,20.69,0,.47,0,.96,2.3,2.87-.57-2.19-1.61-.14-4.39-2.29-5.75-.07-1.2,2.02-.31,2.29-.58.95-.91-1.12-2.72-1.14-2.87-.54-3.15,1.26-7.64,1.14-8.05-1.47-5.37.71-6.08,0-9.21-.07-.31-2.34-2.87-1.14-4.02,1.62-1.58,7.58,2.34,9.19,4.02-.66,1.25,1.02,1.77,1.15,2.3.25,1.07-.29,3.74,0,4.03.28.28,3.16-.29,3.45,0,.25.25-.27,2.08,0,2.88,1.22,3.66,7.38,9.77,9.19,13.8.27.59-.21,1.54,0,2.3.76,2.63,5.34,1.37,7.47,1.72.64.11,2.69.94,3.45,1.15,1.05.29,9.17-2.91,12.65-2.3.2.04,2.83,2.34,4.02,1.15.06-.06.1-.13.13-.21.39-1.14-2.08-4.2-2.43-4.96Zm-28.73-44.86c-.15.53-3.53,2.73-4.03,2.87-1.48.43-2.65.94-2.87,1.15-.45.45-12.2.45-12.64,0-.26-.26.19-2.93,0-4.02-.08-.45-1.15-.77-1.15-1.15s1.07-.71,1.15-1.15c.43-2.63-1.35-10.34,4.02-8.63,3.73,1.19,3.35-.35,4.6,0,.46.13.71,1.05,1.15,1.15,1.94.44,5.1-.5,6.89,0,2.9.8,3.59,7.16,2.88,9.78Z"/>
      </g>
      <g>
        <path class="cls-1" d="m8.34,118.7c-1.56,1.51-1.08,1.33-.72,2.51.7,2.33-5.02,2.3-5.02.72,0-.24.72-.48.72-.72,0-.56-2.36-5-2.15-5.75.67-2.45.46-3.27.72-5.75.03-.26.7-.46.72-.72.44-5.41-1.25-9.78-1.44-14.37,0-.21,2.18-2.18-.72-1.8,1.52-2.06,3.34-4.64,1.44-6.83,1.45-3-.44-3.31-.72-4.31-.43-1.55.13-4.93,1.79-5.39.5-.14,4.5-.17,4.67,0,.39.39-.31,9.29,0,11.14.05.28.72.48.72.72s-.67.44-.72.72c-.09.51-.09,2.43,0,2.51.64.65,2.94-1.07,3.95-.72,2.88-2.49,7.12-1.1,10.77-1.44,1.14.54,1.98,1.54,2.87,2.16.17.12.57-.11.72,0,.49.37,3.17,3.01,3.23,3.23.14.47-.17,1.08,0,1.44.24.52,1.26,1.69,1.44,2.16.7,1.89.44,3.83.72,5.75.04.27.67.44.72.72.37,2-.65,3.07-.72,3.59-.17,1.34.26,3.11,0,4.31-.06.26-1.23,1.71-1.44,2.16-.17.36.14.96,0,1.44-.1.34-1.1.95-1.44,1.44-.12.17.11.57,0,.72-.5.69-2.56,2.79-3.23,3.23-.15.1-.53-.11-.72,0-.55.32-1.7,1.27-2.15,1.44-.4.15-.98-.13-1.44,0-.29.08-.45.67-.72.72-1.08.19-4.66.19-5.74,0-.26-.05-.42-.62-.72-.72-1.58-.51-1.09.39-2.51-1.44,1.45.59,3.31-1.08,2.87-1.44-.2-.16-1.28.15-1.79,0-.12-.04-1.72-1.61-1.79-1.8-.15-.37.11-.86,0-1.08,1.29.44,3,2.09,3.23,2.16.64.18,5.01.16,5.74,0,.26-.06.41-.58.72-.72.22-.1.56.09.72,0,1.77-1.06,3.27-3.51,3.95-5.39.11-.3.64-.44.72-.72.16-.6-.14-1.5,0-2.16.06-.28.68-.45.72-.72.22-1.49.19-4.94,0-6.47-.03-.26-.67-.44-.72-.72-.37-2.11-.12-3.69-1.44-5.75-.85-1.33-2.06-.99-2.15-1.08-.13-.13.13-1.3,0-1.44-.15-.15-1.27.14-1.79,0-.28-.08-.43-.63-.72-.72-.68-.21-1.57.36-2.15-.72-1.63.2-5.33,1.14-6.1,2.51-.19.34.13.94,0,1.08s-.74-.19-1.08,0c-1,.57-1.4,2.15-1.79,3.23-.11.3-.64.44-.72.72-.16.6.15,1.51,0,2.16-.06.27-.63.43-.72.72-.43,1.4.68,1.95.72,2.16.34,1.9-.29,4.49,0,6.47.04.26.65.43.72.72.15.64-.16,1.55,0,2.16.08.3,1.61,1.49,2.15,2.51-.46-.15-1.27.14-1.79,0-.26-.07-.78-1.08-1.08-.72-.54.66.94,1.94.72,2.16Zm-3.59,1.8c0,.47.72.47.72,0s-.72-.47-.72,0Z"/>
        <path class="cls-1" d="m10.5,120.85c-.87-.54-1.86-1.07-2.15-2.16,2.14-.35,1.74,1.34,2.15,2.16Z"/>
        <path class="cls-1" d="m11.21,121.57s-.26.2-.72-.72c.82.51.67.7.72.72Z"/>
      </g>
      <path class="cls-1" d="m136.78,77.99c-.6.6-14.21-.16-17.05,0-3.46.2-9.34,2.25-14.11,1.18-4.41-.99-6.17-.99-10.58,0-1.26.28-9.48.3-10.58,0-.21-.06-2.08-1.91-2.35-2.35-.85-1.37.62-1.08.59-2.35l-2.35,3.53c-1-1-3.4-1.04-3.53-1.18-.2-.21.26-1.13,0-1.76-.21-.49-1.04-.73-1.18-1.18-.28-.94.22-2.44,0-3.53-.09-.44-1.05-.7-1.18-1.18-.15-.53,1.78-6.95,1.18-10.59-.94-5.67-1.18-14.98-1.18-21.18s.7-9.87,0-16.47c-.38-3.54-.57-13.23,0-16.47.07-.41.96-.67,1.18-1.18.26-.64-.21-1.56,0-1.76.22-.22,2.04.19,2.94,0,.46-.1.79-1.18,1.18-1.18.3,0,.82,1.6,2.35,1.18,4.09-1.13,5.72-1.34,10.58,0,1.36.37,2.35-1.85,4.7-1.18,2.83.81.62,2.74.59,2.94-.32,1.92-.37,4.81,1.18,5.88v50.01h35.86c.12,0,1.76,1.64,1.76,1.76,0,2.58.6,16.46,0,17.06Z"/>
      <path class="cls-1" d="m368.8,74.05c-.05-.28-.82-2.32-1.17-3.53-.24-.84-3.29-2.69-3.53-3.53-2.15-7.51-9.56-15.1-12.93-22.35-1.69-3.64-3.71-6.77-5.88-10.59-.46-.82-2.07-1.66-2.35-2.36-1.04-2.6,2.13-1.53,2.35-1.76,2.63-2.63,4.85-8.38,8.82-10.59,3.36-1.87,6.66-7.48,8.82-10,.98-1.15,5.85-5.47,5.87-5.88.11-1.97-4.32-1.54-5.29-1.77-4.78-1.11-8.59-1.55-14.1-1.17-.42.03-.76,1.14-1.18,1.17-2.07.16-10.77-.39-11.17,0-.22.22.31,1.21,0,1.77-.98,1.76-4.28,2.06-4.7,3.53-1.88,6.59-7.55,7.5-9.4,14.12l-7.06,7.64c-.35.35-2.23-1.33-2.35-1.76V1.69c0-.97-17.56-.05-19.4,0-.2.01-4.11,0-4.11,0-1.65,3.02,2.8,2.09,2.35,2.94-.43.81-2.18,1.75-2.35,2.36-.25.85-1.25,4.45-1.18,4.7.14.49,1.18.8,1.18,1.18,0,.47-1.67,3.72-1.18,7.06,1,6.74.37,12.77,1.18,17.65.65,3.94.54,18.73,0,21.17-.29,1.31-.58,12.87-.33,18.08.07,1.41.17,2.35.33,2.51.48.48,10.8.37,14.6.13.62-.04,1.07-.09,1.27-.13.45-.1.7-1.04,1.17-1.17,1.55-.43,1.84,1.03,2.36,1.17.81.23,5.02-1.97,5.29-2.94,1.1-3.99-1.1-12.47,0-16.47.45-1.65,9.64-8.76,11.16-11.18l2.94,5.3c2.69,3.46,8.71,18.71,10.58,20.59.22.22,2.14-.22,2.36,0,.25.25.02,1.46-.05,2.61-.09,1.4.07,2.73,1.65,2.15.05-.02.1-.04.16-.06,3.57-1.49,1.67-.41,3.53,0,4.68,1.05,10.26-.74,14.1-1.17,4.88-.55,8.97,2.31,7.64-4.12ZM298.27,5.81c0,.76-1.18.76-1.18,0s1.18-.76,1.18,0Zm-2.35,64.71c0,.76-1.18.76-1.18,0s1.18-.76,1.18,0Zm-2.35,7.65c-.26-.26-.26-.69-.09-1.16.44-1.27,2.04-2.87,2.44-2.37.44.55.42,1.66.09,2.57-.43,1.18-1.36,2.04-2.44.96Zm17.63-72.95c-.79.95-1.92-1.45-1.18-2.35.79-.95,1.93,1.46,1.18,2.35Z"/>
      <path class="cls-1" d="m366.81,20.37c.16-.19-.36-2.27,1.16-2.9,0,0,1.03-2.76,1.16-2.9.14-.15-.14-2.94,1.74-3.48,5.74-1.65,3.05-2.47,4.06-3.48.25-.25,5.09-1.46,6.38-2.32,1.06-.71,2.78-3.29,3.48-3.48.64-.18,3.91-.14,4.06,0,.33.3-.91,2.78,1.16,2.32l1.16-1.74c1.94,1.9.79-1.37,1.16-1.74.43-.43,10.7-.24,12.17,0,.44.07,1.87.08,2.32,0,1.56-.27,9.92,1.65,11.59,2.32,1.4.56,4.29,3.44,4.64,3.48,7.56.78,9.62,7.85,9.86,8.7,1.56,5.68,2.83,3.41,3.48,4.06.29.29-.25,2.98,0,4.06.5,2.21,4,8.09,4.64,10.44.31,1.16.89,2.64,1.16,2.9,1.2,1.19-1.06,3.68-1.16,4.06-.29,1.17-1.1,4.27-1.16,4.64-.41,2.81.56,6.7,0,9.28-.08.37-2.37,3.92-2.9,4.06-.82.22-3.65.17-4.64,0-.44-.07-.77-1.16-1.16-1.16s-.72,1.09-1.16,1.16c-1.4.23-3.13-.13-4.64,0s-4.31-.93-4.06,1.16c2.71.32,6.13-.46,8.7,0,.43.08.68,1.01,1.16,1.16.69.22,1.59-.21,2.32,0,.2.06,2.9,2.7,2.9,2.9s-2.04,2.81-2.32,3.48c-.26.63.2,1.54,0,1.74-.22.22-1.19-.31-1.74,0-.8.45-1.52,1.87-2.32,2.32-3.15,1.75-1.12,1.7-1.74,2.32-.29.29-2.97-.25-4.06,0s-4.46,2.99-5.8,3.48c-3.07,1.13-6.19.69-9.28,1.16-.44.07-.74,1.12-1.16,1.16-8.85.91-18.24-.39-25.51-3.48-4.86-1.59-8.65-4.94-12.17-8.7.51-2.8-6.96-9.79-6.96-10.44,0-.39,1.16-.77,1.16-1.16,0-.83-3.55-1.58-1.16-4.06-4.43.22-1.98-8.17-1.16-11.02.82-2.87-2.32-4.17-2.32-4.64,0-.38,1.81-5.23,2.32-6.96.24-.82,2.91-4.9,2.32-6.96-.14-.48,1.83-1.18,2.32-1.74Zm12.75,39.45c-.88-.74-3.25.38-2.32,1.16.88.74,3.25-.38,2.32-1.16Zm0-43.51c0,.75,1.16.75,1.16,0s-1.16-.75-1.16,0Zm1.16,42.35c-1.58,1.34-.14,2.23,1.74,2.32,2.27.11,6.09.36,8.12,0,5.73-1.02,3.96.42,8.12,1.16,4.68.84,11.27-.61,16.23,0l5.22-2.9-4.06-1.74c-1.2-.33-3.19,2.04-4.06,1.16-.81-.82,1.71-3.29,1.16-4.64,3.89.84,1.79-2.34,2.32-5.22.61-3.29,2.45-2.7,1.16-6.96-.69-2.29,1.16-3.28,1.16-3.48,0-.39-1.09-.72-1.16-1.16-.45-2.7.63-6.99,0-9.28-.16-.58-5.43-5.74-5.8-6.96-.23-.75-.12-4.12-1.74-4.06-.42.01-2.36,2.98-2.9,2.32-.27-.33.63-2.39-.58-2.32-1.84,2.89-4.36,0-4.64,0-.26,0-1.63,1.78-4.64,1.16-.39-.08-1.26-1.74-1.74-1.16-.23.28.22,2.1,0,2.32-.25.25-2.06-.25-2.9,0-.28.08-3.98,3.78-4.06,4.06-.42,1.53.36,4.12,0,5.8-.57,2.62-3.49,4.07-2.32,9.28.78,3.49.5,2.9,0,5.8-.53,3.11,1.6,6.64,2.32,9.28.35,1.27-.15,2.54,1.16,4.06l-8.12,1.16Zm2.32-30.75c0,.75,1.16.75,1.16,0s-1.16-.75-1.16,0Zm39.42-12.76c0,.75,1.16.75,1.16,0s-1.16-.75-1.16,0Z"/>
      <path class="cls-1" d="m61.71,41.1c.48.4,3.95-.35,5.23,0,.44.12,6.27,5.96,6.39,6.4.42,1.52-1.16,2.02-1.16,2.33,0,.21,1.8,2.79,2.32,3.49-.77,1.03-2.46-1.47-3.49-.58-.12.1.87,1.79,1.16,2.91.24.92,1.23,4.4,1.16,4.65-.13.48-1.16.78-1.16,1.16s1.16.78,1.16,1.16-1.04.69-1.16,1.16c-.2.76.24,1.69,0,2.33-.17.45-.94.68-1.16,1.16-.17.36.15.91,0,1.16-.46.78-3.21,3.44-4.07,4.07-.24.18-.88-.19-1.16,0-.79.54-1.77,2.16-2.32,2.33-2.41.71-4.9,1.69-6.97,2.33-2.79.86-5.4-.11-5.81,0-10.84,2.99-23.71-.69-34.86,1.16-1.68.28-3.01.53-5.81,0-.37-.07-.68-.87-1.16-1.16l-.58,2.33c-1.63-.71-6.97-2.42-6.97-4.07,0-.39,1.16-.78,1.16-1.16,0-.2-1.86-1.2-1.16-3.49,1.56-5.12-1.47-16.67,0-23.26,1.22-5.47-.86-13.76-1.16-19.77C-.26,20.01.4,12.2.12,4.47,2.29,1.18,3.62,2.06,6.51,1.56c.45-.08,1.88-.07,2.32,0,5.93.99,11.5-2.15,17.43-1.16,2.72.45,6.53.7,9.3,1.16,5.14.86,12.17-.77,17.43,0,.43.06.71,1.07,1.16,1.16,1.08.22,2.55-.27,3.49,0,.46.13.69,1.01,1.16,1.16.69.22,1.6-.21,2.32,0,.28.08,3.59,3.41,4.07,4.07.18.24-.19.89,0,1.16.54.79,2.16,1.78,2.32,2.33.45,1.54.68,4.33,1.16,5.81.18.56.1,3.04,0,3.49-.44,1.97.5,5.16,0,6.98-.15.56-2.71,2.55-3.49,3.49-.15.18.21.83,0,1.16-1.19,1.88-5.32,2.21-4.65,4.65.18.64,2.32,1.87,2.32,2.33,0,.29-1.74,1.27-1.16,1.74Zm-33.7,5.81c-.2.2.26,1.12,0,1.74-.28.67-2.33,3.28-2.32,3.49,0,.39,1.09.72,1.16,1.16.3,1.79-.4,8.32,0,8.72.18.19,4.29.16,5.23,0,1.21-.2,3.22-.84,4.65-1.16,1.65-.37,4.05.31,5.81,0,.43-.08.68-1.01,1.16-1.16,1.29-.41,2.87.46,4.07-1.74-.59-2.25,1.81-3.65,1.16-5.81-.19-.65-2.16-3.6-2.91-4.07-.23-.15-.79.17-1.16,0-.5-.23-.75-1.07-1.16-1.16-2.28-.51-5.85.51-8.13,0-.45-.1-.7-1.03-1.16-1.16-1.53-.42-1.85,1.05-2.32,1.16-1.08.26-3.77-.29-4.07,0Zm15.11-29.07c-.43-.43-10.73-.25-12.2,0-.44.07-.78,1.16-1.16,1.16s-.77-1.16-1.16-1.16c-2.54,0-1.52,7.68-1.74,9.88-.18,1.8-1.5,2.25-1.16,3.49.78,2.81,2.73.59,2.91.58,1.88-.13,4.09.29,5.81,0,.44-.07.78-1.16,1.16-1.16s.68,1.02,1.16,1.16c2.32.67,4.04-1.59,5.81-2.33.63-.26,1.54.2,1.74,0,.31-.31.21-7.54,0-8.72-.07-.41-.95-.66-1.16-1.16-.26-.63.2-1.54,0-1.74Z"/>
      <g>
        <path class="cls-1" d="m204.03,54.03c0-.77,1.18-.77,1.18,0s-1.18.77-1.18,0Z"/>
        <path class="cls-1" d="m136.64,60.54c.3-.3-.25-3.03,0-4.14.44-1.91,3.23-3.33,2.36-7.1-.75-3.27-.16-4.45,1.18-8.28s4.01-7.17,4.73-10.65c.34-1.66-.37-2.86,1.77-4.14l.59,7.69c1.56,1.01,1.24,2.38,1.18,4.14l4.73,1.18c-1.36,1.58-.83,2.91-1.18,4.14-.19.66-2.35,1.89-2.36,2.37,0,.18,1.15,1.91,2.36,1.18,1.77-1.06.62-2.76,1.77-2.96.71-.12,1.62.15,1.77,0,.84-.84-.64-5.79-1.77-7.1l.59-3.55-3.55,2.37c-.86-1.71,1.88-5.23,1.18-5.92-.42-.42-3.29,1.5-2.36-2.96.1-.47,1.18-.79,1.18-1.18,0-.32-1.78-2.65-1.18-5.92.37-2.01,3.55-5.55,3.55-5.92,0-.23-1.66-.92,0-3.55,1.12-1.77,4.31-2.12,4.73-3.55,1.56-5.29.32-.91,2.36-2.96.22-.22-.23-2.08,0-2.37.48-.59,1.48,1.19,1.77,1.18.4,0,.73-1.11,1.18-1.18,3.53-.59,8.29.59,11.82,0,.45-.08,1.91-.08,2.36,0,1.32.22,5.01-.31,5.32,0,.21.21-.27,1.14,0,1.77.2.49,1.01.72,1.18,1.18,1.24,3.43,2.47,8.08,3.55,11.83.5,1.74,6.63,11.33,7.09,13.01,1.47,5.38,3.22,8.3,4.73,13.01.64,2.02,3.91,8.2,3.55,9.46-.21.75-1.26,2.88,0,4.14.22.22,2.14-.22,2.36,0,.29.29-.29,3.26,0,3.55.59.59,4.85-1.76,3.55,2.96-.13.47-1.05.72-1.18,1.18-.5,1.82,2.62,3.26,3.55,4.73,1.66,2.63,0,3.32,0,3.55,0,.38,1.04.69,1.18,1.18.46,1.58-2.82,2.85,0,4.73-1.88,3.06-2.53.13-4.14.59-.49.14-.8,1.18-1.18,1.18s-.73-1.11-1.18-1.18c-3.75-.64-5.99.06-9.46-1.18l-5.91,3.55c-.77-1.62-5.11-2.15-5.32-2.37-.43-.43.4-5.06,0-6.51-.13-.47-1.35-1.11-1.77-1.77-1.41-2.21,1.07-2.48.59-4.73-2.07-.64-.68,3.11-1.77,2.37-2.49-1.69-2.91-.68-4.73-1.18-.2-.06-2.89-2.75-2.96-2.96-.73-2.47,1.63-3.52-3.55-2.96-.72-4.58,1.99-.67,2.36-1.18,1.17-1.58-2.37-3.77-2.36-4.14,0-.21,2.75-2.96,2.96-2.96.23,0,3.03,2.7,4.14,1.77-2.9-3.02.76-9.11-2.96-11.24-.55-.31-1.51.22-1.77,0-.59-.48,1.19-1.48,1.18-1.77,0-.4-1.11-.73-1.18-1.18-.44-2.63-.23-5.7-1.18-8.28-.49-1.32-2.82-3.27-2.36-5.32-3.44-1.1-1.95,1.95-2.36,2.37-.28.28-3.59-.18-4.73,0-.47,2.11,2.06.85,2.36,1.18,1.2,1.31-1.04,3.68-1.18,4.14-.32,1.05-1.15,3.35-1.18,3.55-.27,1.5.35,6.15,0,6.51-.22.22-2.14-.22-2.36,0-.34.34,2.15,6.12,1.18,8.28,3.81-2.53,1.8-.24,2.36,2.96.08.46,1.18.79,1.18,1.18s-1.1.73-1.18,1.18c-.2,1.13.27,3.86,0,4.14-.79.81-3.94-1.99-4.73-1.18-.32.33.3,3.07,0,4.14-.16.6-1.91,1.55-2.36,2.37-.31.56.22,1.55,0,1.77-.28.29-3.34-.68-4.14,1.18l-.59-3.55c-2.41.04-2.21,3.4-2.36,3.55-.3.3-2.69-2.08-3.55-1.18-.16.17-.16,4.56,0,4.73.11.12,2.35-.33,2.96,1.18,1.24.07.32-2.06.59-2.37.16-.18,3.03,2.03,4.73,1.18-1.53,2.73-.47,4.32-4.14,3.55-.47-.1-.79-1.18-1.18-1.18-.49,0-3.05,3.55-3.55,3.55-.37,0-.67-1-1.18-1.18-.67-.24-1.58.2-1.77,0-.22-.22.22-2.14,0-2.37-.24-.24-2.07.23-2.96,0-.43-.11-1.29-1.77-1.77-1.18-.19.23.55,4.05-1.77,4.73-2.16.64-4.02-1.95-6.5-1.18-.32-3.1,1.37-5.81,3.55-7.69.36-3.26-1.23-8.34,1.77-10.06.55-.31,1.55.22,1.77,0Zm-3.55,14.2l-2.36,2.37c2.49.3,2.67.13,2.36-2.37Zm26.01-22.48c-1.21-1.21-4.76,2.34-3.55,3.55s4.76-2.34,3.55-3.55Zm1.18,3.55c-.47-.57-1.26.96-1.77,1.18-.62.27-1.52-.21-1.77,0-.41.33,1.52,2.37,1.77,2.37.69,0,2.45-2.72,1.77-3.55Zm-2.36-6.51c0,.77,1.18.77,1.18,0s-1.18-.77-1.18,0Zm2.36-15.97c-.9-.75-3.32.39-2.36,1.18.9.75,3.32-.39,2.36-1.18Zm1.18,23.66c-.75.9.39,3.32,1.18,2.37.75-.9-.39-3.32-1.18-2.37Zm18.91.59c0,.77,1.18.77,1.18,0s-1.18-.77-1.18,0Zm1.18,3.55c0,.77,1.18.77,1.18,0s-1.18-.77-1.18,0Zm4.73-4.14c-.9-.75-3.32.39-2.36,1.18.9.75,3.32-.39,2.36-1.18Zm-1.18-3.55c1.65-.15,4.73-4.87,4.73-5.32,0-.93-4.39,1.21-4.73,2.37-.23.78.13,2.01,0,2.96Zm2.36,18.93c-.75.9.39,3.32,1.18,2.37.75-.9-.39-3.32-1.18-2.37Z"/>
        <path class="cls-1" d="m152.01,78.88c0-.77,1.18-.77,1.18,0s-1.18.77-1.18,0Z"/>
      </g>
      <path class="cls-1" d="m283.91,54.35c-.88.85,1.48,3.25,1.18,3.53-1.41,1.26-3.9-1.19-4.12-1.18-.4.02-.72,1.1-1.16,1.18-1.61.27-5.39-1.11-5.29,1.18l8.81,1.18c3.06,1.96.13,2.46.59,4.12.88,3.19.53,4.15,1.18,7.06.21.89.23,6.24,0,6.46-.34.34-4.97-.24-6.46,0-2.62.44-6.79.45-9.41,0-3.09-.53-4.44,1.18-4.69,1.18-.36,0-.65-.93-1.18-1.18-.88-.4-1.87-.11-2.94-1.76-1.7-2.63-2.79-4.39-4.69-7.04-2.98-4.17-13.71-22.25-17.04-24.11-.92-.5-2.33,1.1-1.76-2.35-2.44,1.13-5.66,2.13-4.69,5.29.15.49,1.09.75,1.18,1.18,1.25,7.01-1.11,13.64,1.18,21.17.7,2.29-1.04,3-1.18,3.52-.43,1.54,1.18,2.06,1.18,2.35,0,2.4-5.87,1.51-7.65,1.76-.43.07-.71,1.07-1.18,1.18-2.92.69-4.23-1.1-4.69-1.18-1.95-.28-9.59.4-9.99,0-1.19-1.18.6-28.4,0-33.51-.13-1.1-.31-1.43,0-1.76.29-.32.13-7.38,0-8.81-.05-.43-1.15-.76-1.18-1.18-.69-8.86,1.67-20.37,0-25.88-.69-2.24.97-5.08,1.18-5.29.31-.31,8.38-1.14,8.81-1.18,2.35-.2,10.01-.48,11.75,0,.59.17,1.54,1.91,2.35,2.35.55.32,1.54-.22,1.75,0,.22.22-.31,1.21,0,1.76.45.81,2.19,1.76,2.35,2.35.99,3.61-1.46,2.32,1.76,4.12,3.38,1.89,2.44,5.77,4.7,7.06.54.31,1.51-.22,1.76,0,.54.45-1.73,1.89-1.18,2.35.37.31,3,.29,4.69,2.94,1.96,3.06.67,4.51,4.12,6.47.31.17,4.1,4.94,4.1,5.29.01,1.08-2.96,1.09.59,1.75,1.38.27.16,3.03.59,3.53,1.36,1.6,2.27.15,2.35-1.76.12-2.34.36-6.1,0-8.22-.44-2.68-.44-9.08,0-11.76.5-3.01-.64-17.58,0-18.23.39-.39,9.59-.18,11.16,0,.43.06.72,1.1,1.18,1.18,3.25.6,5.56-1.18,5.88-1.18.37,0,.66,1,1.16,1.18.66.25,1.57-.2,1.76,0,.22.23-.18,2.05,0,2.94.1.47,1.18.8,1.18,1.18,0,.21-1.87,1.21-1.18,3.53,1.48,4.88-.26,6.09,0,7.06.48,1.73,2.95,4.99,2.35,7.06-.47,1.64-2.11.02-1.18,3.53,1.73,6.48-.78,8.8,0,14.1.07.44,1.13.75,1.18,1.18.47,4.37-.64,6.26,1.18,10.59,1.07,2.56-2.12,1.54-2.35,1.76Z"/>
      <g>
        <path class="cls-1" d="m45.9,116.25c5.76-.13.94,1.49,0,.7-.11-.09.1-.5,0-.7Z"/>
        <path class="cls-1" d="m45.2,124.63c.95-.8,2.66,1.06,0,.7.11-.11-.12-.6,0-.7Z"/>
        <path class="cls-1" d="m45.2,125.33c1.38,1.6-.47,1.66-.7,2.44-.3,1.02,1.13.57,0,2.79-.21.41-.5,1.78-.7,2.09-.7,1.09-2.39,1.38-3.49,2.09-.47.62-1.47-.88-2.09-.35-.32.27,1.02,1.12.7,1.4-.12.1-2.72.12-3.14,0-1.16-.32-3.37-3.9-2.44-4.89.56-.59,1.65.7,1.74.7.52-.02,4.04-1.9,4.88-2.09.66-.16,2.21.19,2.44,0,.19-.16-1.07-1.22-.7-2.44.32-1.07,2.03-3.28,2.09-3.49.15-.53.15-4.35,0-4.89-.17-.63-2.92-2.54-3.49-3.49-.47-.79-.48-2.23-.7-2.79-.68-1.75-1.19-.99-.7-2.79.04-.13-.6-2.35-.7-2.44-.13-.13-1.26.13-1.39,0s.13-1.27,0-1.4-1.24.14-1.39,0c-.33-.29.96-.85.7-1.74-.11-.39-1.28-1.01-1.39-1.4-.84-2.92-1.11-6.29-2.79-9.07.34-.98-1.33-3.22-.7-3.84.11-.11,2.57-.09,3.14,0,.27.04.46.7.7.7.17,0,.76-1.04,1.05-.7.12.15-.15.67,0,1.05.2.48,1.19,1.61,1.39,2.09.16.39-.16.98,0,1.4,1.76,4.66,4.12,9.44,5.58,13.96.67,2.08.89,4.44,1.39,6.28.06.22.99.91,1.39,1.74-.58.01-1.97-.1-2.09,0-.99.83,1.89.6,2.09.7.04.02-.13.59.35.7.53.12,1.61-.14,1.74,0,.12.12-.14.65,0,1.05.11.3.7.48.7.7,0,.13-1.4,1.97-1.39,2.09,0,.22.58.39.7.7.55,1.39-.71.98-1.74,1.05-1.98.13-.73,1.09-1.05,1.4-.04.04-.7-.1-.7.35,0,.26.54.5.7.35Z"/>
        <path class="cls-1" d="m52.87,96.02c.13-.13,1.24.14,1.39,0,.33-.29-.96-.85-.7-1.74.15-.5,1.26-2.31,1.39-2.79.14-.51-.15-1.6,0-1.74.17-.17,4.71-.17,4.88,0,.72.72-.62,2.19-.7,2.44-.72,2.34-1.22,5.17-2.09,7.68-.57,1.63-5.59,11.76-5.58,12.56,0,.24.7.46.7.7,0,.2-2.09,2.47-2.44,3.14-.72-1.07-1.91-.65-3.14-.7,1.19-1.3-.26-1.53,0-2.44.04-.12.44-.69.7-1.4,1.82-4.95,3.55-9.78,5.58-14.66.16-.38-.12-.92,0-1.05Zm-.7,10.82c0,.45.7.45.7,0s-.7-.45-.7,0Zm3.49-15.35c0,.45.7.45.7,0s-.7-.45-.7,0Z"/>
      </g>
      <path class="cls-1" d="m307.77,78.23c-.48.04-3.37,2.26-2.84,5.16.36,1.95-7.58-3.55-7.58-3.55l12.65-7.18c2.59,3.47,1.93,5.21-2.22,5.58Z"/>
      <polygon class="cls-1" points="46.62 116.25 46.59 115.56 50.38 114.6 49.73 116.25 48.69 116.71 45.17 116.92 43.41 116.92 42.53 116.25 44.53 115.53 46.62 116.25"/>
      <path class="cls-1" d="m46.46,124.18h-2.01v1.82s3.66-.97,2.01-1.82Z"/>
    </g>
  </g>
</svg>