<?xml version="1.0" encoding="UTF-8"?>
<svg id="Layer_2" data-name="Layer 2" xmlns="http://www.w3.org/2000/svg" viewBox="0 0 272.62 81.09">
  <defs>
    <style>
      .cls-1 {
        stroke-width: 0px;
      }
    </style>
  </defs>
  <g id="Layer_1-2" data-name="Layer 1">
    <g>
      <path class="cls-1" d="m20.55,74.3l-2.39,4.78c-1.96-.65-2.37,1.02-2.99,1.2-2.39.69-3.38-1.2-3.58-1.2-.4,0-.74,1.12-1.19,1.2-2.68.45-6.14-.31-8.96,0-.18-2.68-2.36-4.36-.6-7.17,1.09-1.74,2.85-1.05,2.99-1.2,1.37-1.37-2.19-3.49-2.39-4.18-.46-1.58,1.65-2,1.19-3.59-.22-.78-1.19-3.59-1.19-3.59.8-1.14-1.19-1.99-1.19-2.39,0-5.5.99-21.22,2.39-26.31.45-1.62-2.04-1.86,0-4.18-5.25,1.12-.38-5.21-1.19-5.98-.24-.23-.1-3.71,0-4.18.42-1.94.32-9.77,0-11.96-.06-.38-2.13-2.1-1.19-4.18h32.26c.17,0-.27,1.3,0,1.79.44.78,1.34,3.09,1.19,3.59-.37,1.28,4.92,18.9,5.97,22.72.43,1.56.99,5.17,1.19,5.38.22.22,2.17-.22,2.39,0,.27.27-.2,3.05,0,4.18.1.56,1.1,3.04,1.19,3.59.23,1.37-.34,4.98,0,5.38,2.03,2.42,2.95-2.26,2.39-4.18-.15-.5-1.19-.81-1.19-1.2,0-.45,2.39-1.94,2.39-2.39,0-.4-1.19-.8-1.19-1.2,0-.47,2.2-1.72,2.39-2.39.49-1.72-2.45-6.52-1.19-7.77.22-.22,1.23.32,1.79,0,2.65-1.51,1.34-3.46,1.79-5.38.58-2.47,4.15-11.28,3.58-13.15-1.49-4.91.64-2.78,1.19-4.78.3-1.08-.32-3.86,0-4.18.36-.36,5.06.27,6.57,0,.34-.06,1.25-1.9,3.58-1.2,3.08.94,4.86.81,7.17,1.2,2.58.43,14.4-.53,14.94,0,.35.35-.25,5.06,0,6.58.44,2.65.44,3.33,0,5.98-.16.97-.19,5.19,0,5.38.23.23,2.1-.24,2.39,0,.6.49-1.11,1.39-1.19,1.79-.96,4.82-1.11,15.35,0,20.33.84,3.75.91,6.8,0,10.76-.7,3.05,1.19,4.52,1.19,4.78,0,1.58-3.42,1.65-3.58,1.79-.73.67,3.36,3.38,3.58,4.18,1.06,3.86-.77,11.7,0,16.14-2.17-.29-3.14,1.84-5.38,1.2-2.59-.75-4.31.04-8.36-1.2-2.35-.72-3.38,1.2-3.58,1.2s-2.93-2.79-2.99-2.99c-.21-.73.2-1.64,0-2.39-.13-.49-1.19-.8-1.19-1.2,0-.2,1.91-1.23,1.19-3.59-.77-2.55-.86-3.99-1.19-5.98-1.09-6.55.68-15.71,0-22.72-.17-1.76-3.38-4.19-4.78-2.99-.62.54,1.46.99.6,2.39-.41.66-1.78,1.44-1.79,1.79,0,.16,2.2,2.04,1.19,2.99-.24.23-2.1-.24-2.39,0-.6.49,1.08,1.35,1.19,1.79.65,2.45-1.04,3.03-1.19,3.59-.24.88.25,2.74,0,2.99-.22.22-2.17-.22-2.39,0-.39.39.32,5.07,0,6.58-.09.41-2.29,3.16-2.39,3.59-.67,2.99,1.62,4.79,1.19,7.77l-5.97,1.2,3.58,1.2c-1.45,1.33-1.02,4.61-1.19,4.78-.28.27-3.04-.2-4.18,0-.46.08-.8,1.2-1.19,1.2s-.74-1.12-1.19-1.2c-1.13-.19-2.61.27-3.58,0-.76-.21-2.54-2.92-3.58-3.59-2.03.91,1.04,3.21.6,3.59-.76.65-5.49-.04-5.97-1.79-.74-2.68,1.42-5.2,1.19-5.38-.6-.49-3.39,1.16-2.39-2.39l5.97-2.39c-2.68.49-7.51-.17-8.36-2.99s3.02-4.82,2.39-5.38c-1.02-.91-3.26,1.55-3.58,1.2.66-1.92-1.11-2.52-1.19-2.99-.26-1.47.31-3.43,0-4.78-.83-3.57-3.3-9.61-4.78-13.15-.51-1.21,1.09-2.27-2.39-1.79.61-2.18,3.65-2.55,1.19-4.18l-1.19-6.58c-2.98-1.02-3.01,2.19-2.39,4.18,1.21,3.93,0,2.82,0,3.59v40.06Zm-10.75-32.28c-.37-1.64-3.65-4.54-4.78-3.59-1.5,1.26,2.26,1.07,2.39,1.2.41.41-1.12,3.45,2.39,2.39Zm-3.58,4.78c.23.2,1.12-.23,1.79,0,.44.15,1.79,2.21,1.79.6,0-2.14-5.3-2.03-3.58-.6Zm0-13.75c0,.78,1.19.78,1.19,0s-1.19-.78-1.19,0Zm3.58,36.47l-2.39,2.39c2.52.31,2.7.13,2.39-2.39Zm1.19,1.79c0,.78,1.19.78,1.19,0s-1.19-.78-1.19,0Zm1.19-22.72c0,.78,1.19.78,1.19,0s-1.19-.78-1.19,0Zm1.19,27.5c0,.78,1.19.78,1.19,0s-1.19-.78-1.19,0Zm0-35.27c-.76.91.39,3.35,1.19,2.39.76-.91-.39-3.35-1.19-2.39Zm7.17-17.94c-.76.91.39,3.35,1.19,2.39.76-.91-.39-3.35-1.19-2.39Zm17.92,53.21c0,.78,1.19.78,1.19,0s-1.19-.78-1.19,0Zm2.39-3.59c0,.78,1.19.78,1.19,0s-1.19-.78-1.19,0Zm1.19-6.58c-.76.91.39,3.35,1.19,2.39.76-.91-.39-3.35-1.19-2.39Zm2.39,1.2c-.08.08-.08,2.31,0,2.39.98.98,2.75-1.13,2.99-1.2.67-.19,4.55.11,2.99-1.2-.23-.19-5.76-.21-5.97,0Zm7.17,8.97c0,.78,1.19.78,1.19,0s-1.19-.78-1.19,0Zm19.12-40.06c1.75-1.75-2.47-7.04-3.58-2.99-.53,1.92,2.78,3.8,3.58,2.99Zm-1.19-11.96c-.55-.69-3.38,2.59-2.39,3.59,1.94,1.95,3.43-2.3,2.39-3.59Z"/>
      <g>
        <path class="cls-1" d="m239.81,32.68c.29,2.38.12,2.55-2.26,2.26l2.26-2.26Z"/>
        <path class="cls-1" d="m239.81,23.64c.91.76-1.4,1.85-2.26,1.13-.91-.76,1.4-1.85,2.26-1.13Z"/>
        <path class="cls-1" d="m236.43,28.16c.76-.91,1.85,1.4,1.13,2.26-.76.91-1.85-1.4-1.13-2.26Z"/>
        <path class="cls-1" d="m237.56,26.47c0-.73,1.13-.73,1.13,0s-1.13.73-1.13,0Z"/>
        <path class="cls-1" d="m245.97,10.27c.97-.95-3.16-7.03.58-8.06,2.51-.69,8.27.25,11.51,0,.41-.03.73-1.11,1.15-1.15,2.54-.24,10.27-.66,10.93,1.73.91,3.3-.65,9.93,0,13.82s2.39,14.05,1.15,19.57c-1.33,5.94.9,14.17,0,19.57-.57,3.42.79,8.17,1.15,10.36.48,2.87.2,12.4-2.88,13.24-.98.27-2.48-.27-3.45,0-.78.21-6.72.29-8.05,0-1.14-.25-7.06-.27-8.05,0-1.55.43-5.18,1.73-5.18,1.73,2.04-.8-1.15-6.2-1.15-6.91,0-.25,1.67-1.57,1.15-4.61-.08-.44-1.15-.77-1.15-1.15,0-.43,2.8-5.11,2.3-6.91-1.02-3.72-.91-8.23,0-11.51.38-1.37-2.12-3.75-2.3-4.61-1.11-5.14,2.51-12.35,1.15-18.42-1.24-5.52,1.11-9.38,0-14.97-.08-.39.93-1.51,1.15-1.73Z"/>
      </g>
      <path class="cls-1" d="m166.27,1.24c.29.29-.2,3.92,0,5.22,1.71,10.79-.48,24.63,2.32,34.77.42,1.53-1.05,1.85-1.16,2.32-.89,4,1.01,11.39,0,15.07-.16.57-1.83,1.52-2.32,2.32-1.08,1.8-1.27,6.71-4.05,7.53-5.02,1.49-1.91,1.93-4.63,3.48-.54.31-1.52-.22-1.74,0-.15.15.4,2.11-1.74,3.48-2.45,1.57-6.32,1.73-9.26,2.32-1.92.38-11.66,2.63-12.74,2.32-3.68-1.06-8.1.36-9.26,0-2.05-.64-4.91-1.79-6.95-2.32-2.07-.54-5.15-.66-6.95-1.16-.77-.21-2.4-2.88-3.47-3.48-.55-.31-1.52.22-1.74,0s.31-1.19,0-1.74c-.44-.8-1.84-1.5-2.32-2.32-.68-1.15-3.38-5.46-3.47-5.79-1.01-3.51-2.62-6.32-3.47-9.27-.44-1.53,1.6-1.94,1.16-3.48-.88-3.03-.68-4.05-1.16-6.95-.94-5.66,1.75-17.66,0-25.5-.8-3.6-1.1-4.12,0-8.11.42-1.51-1.16-2.02-1.16-2.32,0-.39,1.08-.71,1.16-1.16.27-1.57-.49-4.6,1.74-5.22,1.01-.28,2.9,1.8,5.79,1.16,2.15-.48,1.26-1.74,4.63-1.16,2.38.41,3.3-.41,5.79,0,4.22.7,7.66-2.24,6.37,4.06-1.92,9.34.63,20.02-1.16,30.13,3.47,2.66,1.81,2.62,1.16,4.64-.22.69.21,1.59,0,2.32s-2.41,1.63-2.32,2.9c4.24-1.44,1.44,4.92,2.32,5.79.22.22,2.1-.22,2.32,0,.31.31-.24,3.92,0,5.22.07.41.95.66,1.16,1.16.26.62-.2,1.5,0,1.74.47.57,1.44-1.16,1.74-1.16.21,0,2.83,2.06,3.47,2.32s1.59-.23,2.32,0c.56.18.8,1.58,2.32,1.16.45-.12.69-1.01,1.16-1.16.69-.22,1.59.21,2.32,0,.64-.18,1.66-2.12,2.32-2.32.84-.25,2.65.25,2.9,0,.29-.29-.29-3.19,0-3.48.22-.22,3.34.82,2.32-1.74-.2-.51-1.16-.8-1.16-1.16,0-.47,3.14-1.77,2.32-4.64-.19-.66-2.97-2.3-2.32-2.9.24-.22,2.1.22,2.32,0,.18-.18.17-4.32,0-5.22-.67-3.6-1-5.66,0-9.27.41-1.49-1.71-2.44-1.16-2.9.28-.23,2.1.22,2.32,0s.15-5.27,0-6.37c-.06-.43-1.12-.74-1.16-1.16-.15-1.62-.9-17.96,0-17.96,3.29,0,22.34-.82,23.16,0Z"/>
      <path class="cls-1" d="m173.63,79.56c-3.04-.84-1.25-9.22-1.74-12.21-1.09-6.55.5-15.34-1.16-24.43-.7-3.82,1.86-6.65,1.16-10.47-1.36-7.47-.14-13.63-1.16-19.77-1.25-7.5.41-12.43,8.72-11.05.44.07.78,1.16,1.16,1.16s.72-1.09,1.16-1.16c6.36-1.06,35.28-.96,41.84,0,.43.06.71,1.07,1.16,1.16,1.08.22,2.55-.27,3.49,0s2.03.74,3.49,1.16c.37.11,4.23,3.64,5.81,4.65,2.61,1.67,1.28,3.25,1.74,5.23.11.45,1.06.71,1.16,1.16.3,1.33-.25,3.23,0,4.65.59,3.28,1.18,1.54,0,5.82-.42,1.53,1,1.78,1.16,2.33.94,3.08-3.14,5.78-3.49,6.98-.97,3.38-1.1,2.46-2.32,4.65-.31.55.22,1.53,0,1.74-.25.25-2.07-.25-2.91,0-1.87.55-3.62,4.36-2.91,6.4,1.48,2.31,4.46,4.94,5.81,6.98.17.25-.18.86,0,1.16,3.66,6.19,6.39,12.23,9.3,18.61.38.82,3.22,4.33,2.32,5.23-1.2,1.2-3.86-1.13-4.07-1.16-3.52-.62-11.73,2.62-12.79,2.33-.77-.21-2.85-1.06-3.49-1.16-2.15-.36-6.79.92-7.55-1.74-.22-.76.27-1.73,0-2.33-1.83-4.08-8.06-10.25-9.3-13.96-.27-.81.26-2.65,0-2.91-.29-.29-3.2.29-3.49,0s.26-2.99,0-4.07c-.13-.54-1.83-1.07-1.16-2.33-1.63-1.71-7.65-5.67-9.3-4.07-1.2,1.17,1.09,3.76,1.16,4.07.72,3.16-1.49,3.88,0,9.31.11.42-1.71,4.96-1.16,8.14.03.15,2.12,1.98,1.16,2.91-.27.27-2.39-.63-2.32.58,2.18,1.38.1,4.19,2.32,5.82-1.93,2.91-2.43.58-2.91.58-4.77,0-17.45.96-20.92,0Zm38.36-47.69c.51-.15,3.92-2.37,4.07-2.91.72-2.65.03-9.08-2.91-9.89-1.82-.5-5,.44-6.97,0-.45-.1-.7-1.03-1.16-1.16-1.26-.35-.88,1.2-4.65,0-5.43-1.73-3.63,6.07-4.07,8.72-.07.45-.08,1.88,0,2.33.19,1.11-.26,3.81,0,4.07.45.45,12.33.45,12.79,0,.22-.22,1.41-.73,2.91-1.16Z"/>
    </g>
  </g>
</svg>