<?xml version="1.0" encoding="UTF-8"?>
<svg id="Layer_2" data-name="Layer 2" xmlns="http://www.w3.org/2000/svg" viewBox="0 0 381.66 160.11">
  <defs>
    <style>
      .cls-1 {
        fill: #F4008A;
        stroke-width: 0px;
      }
    </style>
  </defs>
  <g id="Layer_1-2" data-name="Layer 1">
    <g>
      <g>
        <path class="cls-1" d="m131.1,150.5l-3.56-2.38,1.19,7.13c-1.94-.64-2.36,1.01-2.97,1.19-2.37.69-3.36-1.19-3.56-1.19-.4,0-.73,1.11-1.19,1.19-2.67.44-6.11-.31-8.91,0-.18-2.66-2.34-4.33-.59-7.13,1.08-1.73,2.83-1.05,2.97-1.19,1.36-1.36-2.18-3.47-2.38-4.16-.45-1.57,1.64-1.99,1.19-3.57-.22-.77-2.9-2.51-3.56-3.57h2.38c.79-1.14-1.19-1.97-1.19-2.38,0-5.47.98-21.1,2.38-26.15.44-1.61-2.03-1.84,0-4.16-5.22,1.12-.38-5.18-1.19-5.94-.24-.23-.1-3.68,0-4.16.42-1.93.31-9.71,0-11.89-.05-.38-2.12-2.08-1.19-4.16h32.07c.17,0-.27,1.29,0,1.78.43.78,2.38,1.97,2.38,2.38s-1.05.69-1.19,1.19c-.36,1.27,4.89,18.79,5.94,22.58.43,1.55.98,5.14,1.19,5.35.22.22,2.15-.22,2.38,0,.27.27-.2,3.03,0,4.16.1.56,1.1,3.03,1.19,3.57.23,1.36-.33,4.95,0,5.35,2.01,2.4,2.93-2.25,2.38-4.16-.14-.5-1.19-.8-1.19-1.19,0-.44,2.38-1.93,2.38-2.38,0-.4-1.19-.79-1.19-1.19,0-.47,2.19-1.71,2.38-2.38.49-1.71-2.43-6.48-1.19-7.73.22-.22,1.23.32,1.78,0,2.63-1.5,1.33-3.44,1.78-5.35.58-2.45,4.13-11.21,3.56-13.07-1.48-4.88.64-2.77,1.19-4.75.3-1.08-.32-3.84,0-4.16.36-.36,5.03.27,6.53,0,.33-.06,1.24-1.89,3.56-1.19,3.06.93,4.83.81,7.13,1.19,2.56.43,14.32-.53,14.85,0,.35.35-.25,5.03,0,6.54.44,2.63.44,3.31,0,5.94-.16.96-.19,5.16,0,5.35.22.22,2.09-.23,2.38,0,.59.49-1.11,1.38-1.19,1.78-.95,4.8-1.11,15.26,0,20.21.84,3.73.91,6.76,0,10.7-.7,3.03,1.19,4.49,1.19,4.75,0,1.57-3.4,1.64-3.56,1.78-.73.67,3.34,3.36,3.56,4.16,1.06,3.84-.77,11.63,0,16.05-2.16-.29-3.12,1.83-5.34,1.19-2.57-.75-4.28.04-8.31-1.19-2.34-.71-3.36,1.19-3.56,1.19s-2.91-2.77-2.97-2.97c-.21-.72.2-1.63,0-2.38-.13-.49-1.19-.8-1.19-1.19,0-.2,1.9-1.22,1.19-3.57-.77-2.53-.86-3.97-1.19-5.94-1.08-6.51.68-15.62,0-22.58-.17-1.75-3.36-4.17-4.75-2.97-.62.53,1.46.99.59,2.38-.41.66-1.77,1.43-1.78,1.78,0,.16,2.19,2.02,1.19,2.97-.24.23-2.09-.23-2.38,0-.59.49,1.07,1.34,1.19,1.78.64,2.43-1.04,3.02-1.19,3.57-.24.88.25,2.72,0,2.97-.22.22-2.15-.22-2.38,0-.39.39.32,5.04,0,6.54-.09.41-2.28,3.15-2.38,3.57-.67,2.98,1.61,4.76,1.19,7.73l-5.94,1.19,3.56,1.19c-1.44,1.32-1.01,4.58-1.19,4.75-.28.27-3.02-.2-4.16,0-.46.08-.79,1.19-1.19,1.19s-.73-1.11-1.19-1.19c-1.12-.19-2.6.27-3.56,0-.75-.21-2.52-2.91-3.56-3.57-2.02.9,1.04,3.19.59,3.57-.76.65-5.46-.04-5.94-1.78-.73-2.67,1.41-5.17,1.19-5.35-.59-.49-3.37,1.16-2.38-2.38l5.94-2.38c-2.67.49-7.47-.17-8.31-2.97s3-4.79,2.38-5.35c-1.01-.9-3.24,1.54-3.56,1.19.65-1.91-1.11-2.51-1.19-2.97-.25-1.46.31-3.41,0-4.75-.82-3.55-3.28-9.55-4.75-13.07-.5-1.21,1.25-4.32-1.19-5.94l-1.19-6.54c-2.96-1.01-2.99,2.18-2.38,4.16,1.21,3.91,0,2.81,0,3.57v39.82Zm-10.69-32.09c-.36-1.63-3.62-4.51-4.75-3.57-1.49,1.25,2.25,1.06,2.38,1.19.41.41-1.12,3.43,2.38,2.38Zm-3.56,4.75c.23.19,1.11-.23,1.78,0,.44.15,1.78,2.2,1.78.59,0-2.12-5.26-2.02-3.56-.59Zm0-13.67c0,.77,1.19.77,1.19,0s-1.19-.77-1.19,0Zm3.56,36.25l-2.38,2.38c2.5.31,2.68.13,2.38-2.38Zm1.19,1.78c0,.77,1.19.77,1.19,0s-1.19-.77-1.19,0Zm1.19-22.58c0,.77,1.19.77,1.19,0s-1.19-.77-1.19,0Zm1.19,27.34c0,.77,1.19.77,1.19,0s-1.19-.77-1.19,0Zm0-35.06c-.76.91.39,3.33,1.19,2.38.76-.91-.39-3.33-1.19-2.38Zm7.13-17.83c-.76.91.39,3.33,1.19,2.38.76-.91-.39-3.33-1.19-2.38Zm17.82,52.89c0,.77,1.19.77,1.19,0s-1.19-.77-1.19,0Zm2.38-3.57c0,.77,1.19.77,1.19,0s-1.19-.77-1.19,0Zm1.19-6.54c-.76.91.39,3.33,1.19,2.38.76-.91-.39-3.33-1.19-2.38Zm2.38,1.19c-.08.08-.08,2.29,0,2.38.98.98,2.73-1.12,2.97-1.19.67-.19,4.52.11,2.97-1.19-.23-.19-5.73-.21-5.94,0Zm7.13,8.91c0,.77,1.19.77,1.19,0s-1.19-.77-1.19,0Zm19-39.82c1.74-1.74-2.45-7-3.56-2.97-.53,1.91,2.76,3.78,3.56,2.97Zm-1.19-11.89c-.55-.68-3.36,2.58-2.38,3.57,1.93,1.93,3.41-2.28,2.38-3.57Z"/>
        <g>
          <path class="cls-1" d="m349.05,109.13c.29,2.37.12,2.53-2.24,2.25l2.24-2.25Z"/>
          <path class="cls-1" d="m349.05,100.15c.9.75-1.39,1.84-2.24,1.12-.9-.75,1.39-1.84,2.24-1.12Z"/>
          <path class="cls-1" d="m345.69,104.64c.75-.9,1.84,1.39,1.12,2.25-.75.9-1.84-1.39-1.12-2.25Z"/>
          <path class="cls-1" d="m346.81,102.96c0-.73,1.12-.73,1.12,0s-1.12.73-1.12,0Z"/>
          <path class="cls-1" d="m352.88,86.86c.27-.23,2.07.22,2.29,0,.96-.95-3.14-6.99.57-8.01,2.49-.69,8.22.24,11.44,0,.41-.03.73-1.11,1.14-1.14,2.53-.24,10.21-.65,10.87,1.72.9,3.28-.64,9.87,0,13.74.62,3.72,2.37,13.97,1.14,19.46-1.32,5.91.89,14.09,0,19.46-.56,3.4.78,8.12,1.14,10.3.47,2.85.2,12.33-2.86,13.16-.97.27-2.46-.27-3.43,0-.77.21-6.68.29-8.01,0-1.13-.24-7.02-.27-8.01,0-1.54.42-1.8,3.85-3.43,4.58l-1.72-2.86c2.03-.79-1.14-6.17-1.14-6.87,0-.25,1.66-1.56,1.14-4.58-.08-.44-1.14-.76-1.14-1.14,0-.43,2.78-5.08,2.29-6.87-1.02-3.7-.9-8.18,0-11.45.38-1.36-2.1-3.72-2.29-4.58-1.1-5.11,2.5-12.27,1.14-18.31-1.23-5.49,1.1-9.32,0-14.88-.08-.39-1.71-1.25-1.14-1.72Z"/>
        </g>
        <path class="cls-1" d="m275.95,77.88c.29.29-.2,3.9,0,5.18,1.69,10.72-.47,24.48,2.3,34.56.42,1.52-1.05,1.84-1.15,2.3-.89,3.97,1.01,11.32,0,14.98-.16.56-1.82,1.51-2.3,2.3-1.08,1.79-1.26,6.67-4.03,7.49-4.99,1.48-1.9,1.91-4.6,3.46-.54.31-1.51-.22-1.73,0-.15.15.4,2.09-1.73,3.46-2.44,1.56-6.28,1.72-9.21,2.3-1.91.38-11.59,2.61-12.66,2.3-3.65-1.05-8.05.36-9.21,0-2.04-.64-4.88-1.78-6.91-2.3s-5.12-.66-6.91-1.15c-.76-.21-2.38-2.86-3.45-3.46-.54-.3-1.51.22-1.73,0s.3-1.18,0-1.73c-.44-.79-1.83-1.49-2.3-2.3-.67-1.15-3.36-5.43-3.45-5.76-1-3.49-2.61-6.29-3.45-9.22-.44-1.53,1.59-1.93,1.15-3.46-.87-3.02-.67-4.02-1.15-6.91-.94-5.63,1.74-17.56,0-25.34-.8-3.57-1.09-4.1,0-8.06.41-1.5-1.15-2.01-1.15-2.3,0-.38,1.08-.71,1.15-1.15.27-1.56-.48-4.57,1.73-5.18,1-.28,2.89,1.79,5.76,1.15,2.14-.48,1.26-1.73,4.6-1.15,2.37.41,3.29-.41,5.76,0,4.19.7,7.62-2.23,6.33,4.03-1.91,9.29.62,19.9-1.15,29.95,3.45,2.64,1.8,2.6,1.15,4.61-.22.68.21,1.58,0,2.3s-2.39,1.62-2.3,2.88c4.22-1.43,1.43,4.89,2.3,5.76.22.22,2.09-.22,2.3,0,.31.31-.23,3.9,0,5.18.07.41.95.65,1.15,1.15.26.62-.2,1.49,0,1.73.47.57,1.43-1.15,1.73-1.15.21,0,2.81,2.05,3.45,2.3s1.58-.23,2.3,0c.55.18.79,1.57,2.3,1.15.45-.12.68-1,1.15-1.15.68-.22,1.58.21,2.3,0,.64-.18,1.65-2.11,2.3-2.3.83-.25,2.63.25,2.88,0,.28-.29-.28-3.17,0-3.46.22-.22,3.32.82,2.3-1.73-.2-.5-1.15-.79-1.15-1.15,0-.47,3.12-1.76,2.3-4.61-.19-.66-.22-2.66,0-2.88.18-.18.17-4.29,0-5.18-.66-3.57-.99-5.62,0-9.22.41-1.48.93-2.66,1.15-2.88s.15-5.23,0-6.34c-.06-.43-1.11-.74-1.15-1.15-.15-1.61-.89-17.86,0-17.86,3.27,0,22.21-.81,23.02,0Zm-50.65,30.53c0,.75,1.15.75,1.15,0s-1.15-.75-1.15,0Z"/>
        <path class="cls-1" d="m283.26,155.74c-3.02-.83-1.24-9.17-1.73-12.14-1.08-6.51.49-15.25-1.16-24.28-.69-3.8,1.85-6.61,1.16-10.41-1.36-7.43-.14-13.55-1.16-19.66-1.24-7.46.41-12.36,8.67-10.98.44.07.77,1.16,1.16,1.16s.71-1.08,1.16-1.16c6.32-1.05,35.07-.96,41.59,0,.43.06.71,1.07,1.16,1.16,1.07.21,2.54-.27,3.47,0s2.02.74,3.47,1.16c.37.11,4.21,3.62,5.78,4.62,2.6,1.66,1.28,3.23,1.73,5.2.1.45,1.05.71,1.16,1.16.3,1.32-.25,3.21,0,4.62.58,3.26,1.17,1.53,0,5.78-.42,1.52.99,1.77,1.16,2.31.93,3.07-3.13,5.74-3.47,6.94-.96,3.36-1.1,2.44-2.31,4.62-.3.55.22,1.52,0,1.73-.25.25-2.05-.25-2.89,0-1.85.55-3.6,4.33-2.89,6.36,1.48,2.3,4.43,4.91,5.78,6.94.16.25-.18.85,0,1.16,3.63,6.15,6.35,12.16,9.24,18.5.37.82,3.21,4.31,2.31,5.2-1.19,1.19-3.84-1.12-4.04-1.16-3.5-.62-11.66,2.6-12.71,2.31-.77-.21-2.83-1.05-3.47-1.16-2.14-.36-6.75.91-7.51-1.73-.22-.76.26-1.72,0-2.31-1.82-4.05-8.01-10.19-9.24-13.87-.27-.8.26-2.63,0-2.89-.29-.29-3.18.29-3.47,0s.25-2.97,0-4.05c-.13-.54-1.82-1.06-1.16-2.31-1.62-1.7-7.61-5.64-9.24-4.05-1.2,1.16,1.08,3.74,1.16,4.05.71,3.14-1.48,3.86,0,9.25.11.41-1.69,4.93-1.16,8.09.03.15,2.11,1.97,1.16,2.89-.27.26-2.37-.63-2.31.58,2.17,1.37.1,4.16,2.31,5.78-1.92,2.89-2.42.58-2.89.58-4.74,0-17.35.95-20.8,0Zm38.13-47.4c.5-.15,3.9-2.36,4.04-2.89.72-2.63.03-9.02-2.89-9.83-1.8-.5-4.97.44-6.93,0-.44-.1-.69-1.03-1.16-1.16-1.26-.35-.87,1.19-4.62,0-5.4-1.72-3.6,6.03-4.04,8.67-.07.44-1.16.77-1.16,1.16s1.08.71,1.16,1.16c.19,1.1-.26,3.78,0,4.05.45.45,12.26.45,12.71,0,.22-.22,1.4-.73,2.89-1.16Z"/>
      </g>
      <path class="cls-1" d="m71.02,79.43c-3.01-.83-1.23-9.14-1.73-12.1-1.08-6.49.49-15.21-1.15-24.21-.69-3.78,1.84-6.59,1.15-10.37-1.35-7.41-.14-13.51-1.15-19.6-1.24-7.43.41-12.32,8.64-10.95.44.07.77,1.15,1.15,1.15s.71-1.08,1.15-1.15c6.3-1.05,34.96-.95,41.46,0,.43.06.7,1.06,1.15,1.15,1.07.21,2.53-.27,3.46,0s2.01.74,3.46,1.15c.37.11,4.2,3.61,5.76,4.61,2.59,1.66,1.27,3.22,1.73,5.19.1.45,1.05.7,1.15,1.15.3,1.32-.25,3.2,0,4.61.58,3.25,1.17,1.53,0,5.76-.42,1.51.99,1.77,1.15,2.31.93,3.06-3.12,5.72-3.46,6.92-.96,3.35-1.09,2.44-2.3,4.61-.3.55.22,1.51,0,1.73-.25.25-2.05-.25-2.88,0-1.85.55-3.59,4.32-2.88,6.34,1.47,2.29,4.42,4.9,5.76,6.92.16.25-.18.85,0,1.15,3.62,6.14,6.33,12.12,9.21,18.44.37.82,3.2,4.29,2.3,5.19-1.19,1.19-3.82-1.12-4.03-1.15-3.48-.62-11.62,2.59-12.67,2.31-.76-.21-2.82-1.05-3.46-1.15-2.14-.36-6.73.91-7.49-1.73-.22-.76.26-1.72,0-2.31-1.81-4.04-7.99-10.16-9.21-13.83-.27-.8.26-2.63,0-2.88-.29-.29-3.17.29-3.46,0s.25-2.96,0-4.03c-.13-.54-1.81-1.06-1.15-2.31-1.61-1.69-7.58-5.62-9.21-4.03-1.19,1.16,1.08,3.72,1.15,4.03.71,3.14-1.48,3.85,0,9.22.11.41-1.69,4.92-1.15,8.07.03.15,2.1,1.96,1.15,2.88-.27.26-2.37-.63-2.3.58,2.16,1.37.1,4.15,2.3,5.76-1.92,2.88-2.41.58-2.88.58-4.72,0-17.3.95-20.73,0Zm38.01-47.26c.5-.14,3.89-2.35,4.03-2.88.72-2.63.03-9-2.88-9.8-1.8-.5-4.96.44-6.91,0-.44-.1-.69-1.03-1.15-1.15-1.25-.35-.87,1.19-4.61,0-5.38-1.71-3.59,6.01-4.03,8.65-.07.44-1.15.77-1.15,1.15s1.07.71,1.15,1.15c.19,1.1-.26,3.77,0,4.03.45.45,12.22.45,12.67,0,.22-.22,1.4-.72,2.88-1.15Z"/>
      <path class="cls-1" d="m.29,1.83c1.17-1.17,28.73.89,33.11,0,1.38,2.1,4.48.22,5.81,0,2.29-.38,8.28.52,10.46,1.16.46.13.69,1.01,1.16,1.16.69.22,1.6-.21,2.32,0,.54.16,1.53,1.79,2.32,2.33.28.19.92-.18,1.16,0,1,.73,4.69,4.33,5.23,5.23.15.25-.16.81,0,1.16.22.48.98.71,1.16,1.16.25.63-.21,1.57,0,2.33.13.47,1.07.72,1.16,1.16.28,1.37-.25,3.23,0,4.65.08.45,1.11.74,1.16,1.16.3,2.47.35,8.06,0,10.46-.06.43-1.05.7-1.16,1.16-.24,1.04.27,2.52,0,3.49-.11.39-3.46,4.16-4.07,5.23-2,.15-3.76,2.67-5.81,3.49-1.51.6-5.68,1.98-6.97,2.33-3.87,1.03-9.86.36-12.78,1.16-.65.18-2.69.22-2.9,0-.25-.25-6.71-.23-6.97,0-.31.27,2.03,2.65,1.16,3.49-.22.21-3.38-.79-2.32,1.74,1.58,3.79,0,2.71,0,3.49,0,.38,1.02.68,1.16,1.16.62,2.09-1.15,2.91-1.16,4.65-1.85,3.01-2.49.13-4.07.58-.48.14-.76,1.13-1.16,1.16-.61-1.47-4.87-1.5-5.23-1.16-.79.73,1.02,4.01,2.9,3.49.48-.13.78-1.16,1.16-1.16.46,0,1.68,2.15,2.32,2.33,1.35.37,4.58-.61,5.23,1.74.21.76.23,6.17,0,6.39-.49.49-7.94-.43-9.87,0-2.47.55-5.81.58-9.29,0-.44-.07-.77-1.16-1.16-1.16-.29,0-1.27,1.74-1.74,1.16-.25-.31.24-2.05,0-2.91-.13-.46-1.04-.7-1.16-1.16-.42-1.53,1-1.78,1.16-2.33.69-2.28-1.15-3.29-1.16-3.49-.05-1.14,3.91-2.46,4.65-1.74,1.24,1.2-2.86,4.2-2.32,4.65.18.15,4.48.16,4.65,0,.98-.93-1.17-2.75-1.16-2.91,0-.26,1.97-2.12,2.32-1.74.14.15-.04,3.46,2.32,3.49.82-7.12-1.01-3.71-5.23-4.65-1.83-.41.05-1.48-3.49,0-3.03,1.27-1.25-4.19-1.74-6.39-.1-.47-1.58-.79-1.16-2.33,1.65-5.98-1.11-15.4,0-22.09C1.63,26.9-.8,15.96.29,9.38.56,7.75-.08,2.2.29,1.83Zm23.23,32.55c.29.29,2.98-.26,4.07,0,.48.11.79,1.58,2.32,1.16.47-.13.72-1.06,1.16-1.16,1.35-.3,3.27.29,4.65,0,.43-.09.68-1.01,1.16-1.16.69-.22,1.6.21,2.32,0,3.02-.87,3.53-7.1,2.9-9.88-.09-.41-.93-.66-1.16-1.16-.16-.36.15-.91,0-1.16-.27-.45-2.7-2.85-2.9-2.91-.73-.21-1.63.22-2.32,0-.56-.18-.8-1.58-2.32-1.16-.45.13-.69,1.02-1.16,1.16-1.96.61-4.11-1.95-6.97-1.16-.99.27-1.59,1.77-1.74,2.91-.25,1.81-.51,14.02,0,14.53Z"/>
      <path class="cls-1" d="m137.39,79.79c.2-.2,1.1.26,1.69,0,.65-.29,2.96-2.55,1.69.57-1.27,3.12-5.31,1.36-3.39-.57Z"/>
      <path class="cls-1" d="m143.04,10.83c.95-.94-3.1-6.9.56-7.91,2.46-.68,8.12.24,11.3,0,.4-.03.72-1.09,1.13-1.13,2.5-.24,10.09-.64,10.73,1.7.89,3.24-.63,9.75,0,13.57.61,3.67,2.34,13.79,1.13,19.22-1.31,5.83.88,13.91,0,19.22-.56,3.35.77,8.02,1.13,10.17.47,2.81.2,12.17-2.82,13-.96.26-2.43-.26-3.39,0-.77.21-2.86,3.39-3.39,3.39-.28,0-3.2-3.11-4.52-3.39-1.12-.24-6.93-.27-7.91,0-1.52.42-1.78,3.8-3.39,4.52l-1.69-2.83c2-.78-1.13-6.09-1.13-6.78,0-.25,1.64-1.54,1.13-4.52-.07-.43-1.13-.75-1.13-1.13,0-.42,2.74-5.02,2.26-6.78-1.01-3.65-.89-8.08,0-11.3.37-1.34-2.08-3.68-2.26-4.52-1.09-5.04,2.47-12.12,1.13-18.09-1.21-5.42,1.09-9.21,0-14.7-.08-.38.91-1.48,1.13-1.7Z"/>
      <path class="cls-1" d="m173.34,35.36c-.04-.43-1.14-.76-1.17-1.18-.68-8.85,1.67-20.36,0-25.86-.68-2.25.84-2.73,1.17-3.53.26-.63-.21-1.56,0-1.76.31-.31,6.01.18,7.63,0,.43-.05.75-1.14,1.17-1.18,2.35-.2,10.01-.48,11.74,0,.59.16,1.54,1.9,2.35,2.35.56.31,1.54-.22,1.76,0s-.31,1.21,0,1.76c.45.81,2.19,1.76,2.35,2.35.99,3.6-1.46,2.32,1.76,4.11,3.38,1.88,2.44,5.76,4.7,7.05.54.31.04,1.89.59,2.35.37.31,3,.29,4.7,2.94,1.96,3.06.67,4.5,4.11,6.46.3.17,4.11,4.94,4.11,5.29.01,1.08-2.97,1.1.59,1.76,1.38.26.16,3.02.59,3.53,1.36,1.6,2.26.14,2.35-1.76.11-2.34.35-6.11,0-8.23-.45-2.68-.45-9.07,0-11.75.5-3.02-.64-17.57,0-18.22.39-.39,9.58-.19,11.16,0,.43.05.72,1.09,1.17,1.18,3.25.59,5.55-1.18,5.87-1.18.37,0,.67.99,1.17,1.18.66.24,1.57-.2,1.76,0,.22.22-.19,2.04,0,2.94.1.46,1.17.79,1.17,1.18,0,.2-1.88,1.21-1.17,3.53,1.48,4.87-.27,6.08,0,7.05.48,1.73,2.94,4.98,2.35,7.05-.47,1.64-2.11.03-1.17,3.53,1.73,6.49-.79,8.79,0,14.1.07.44,1.13.75,1.17,1.18.47,4.37-.63,6.25,1.17,10.58,1.07,2.56-2.12,1.55-2.35,1.76-.88.85,1.48,3.25,1.17,3.53-1.41,1.26-3.9-1.19-4.11-1.18-.41.03-.73,1.1-1.17,1.18-1.59.26-5.39-1.11-5.29,1.18l8.81,1.18c3.06,1.96.13,2.47.59,4.11.88,3.19.53,4.15,1.17,7.05.2.9.23,6.24,0,6.46-.34.34-4.97-.25-6.46,0-2.61.44-6.78.45-9.4,0-3.1-.53-4.44,1.18-4.7,1.18-.35,0-.65-.93-1.17-1.18-.89-.41-1.87-.12-2.94-1.76-1.7-2.64-2.79-4.39-4.7-7.05-2.97-4.15-13.71-22.24-17.03-24.09-.92-.51-2.33,1.1-1.76-2.35-2.44,1.12-5.66,2.12-4.7,5.29.15.48,1.1.74,1.17,1.18,1.25,7-1.11,13.63,1.17,21.16.7,2.3-1.03,3-1.17,3.53-.42,1.53,1.17,2.05,1.17,2.35,0,2.39-5.87,1.5-7.63,1.76-.43.06-.71,1.07-1.17,1.18-2.92.68-4.23-1.11-4.7-1.18-1.95-.29-9.58.4-9.98,0-1.18-1.18.61-28.39,0-33.5-.13-1.1.14-9.14,0-10.58Zm58.72,24.09c-3.13,3.13,6.65,3.13,3.52,0-.12-.12-3.4-.12-3.52,0Zm3.52-21.16c-.22.26.31,1.21,0,1.76-.77,1.38-3.04,1.82-2.35,4.11,4.21-.63,3.84-7.66,2.35-5.88Zm2.35,5.88l-2.35,2.35c2.47.3,2.65.13,2.35-2.35Z"/>
      <path class="cls-1" d="m247.34,20.98c5.17.91,14.96,0,20.8,0,.15,0-.24,1.21,0,1.78.21.51,1.11.77,1.19,1.19.8,4.57.53,19.98,0,24.97-.15,1.37-1.72,3.53-1.19,7.14.88,5.91,1.35,13.23,2.38,17.84.29,1.31-.35,5,0,5.35.2.2,1.11-.24,1.78,0,.51.19.81,1.19,1.19,1.19.4,0,.79-1.19,1.19-1.19.2,0,1.22,1.9,3.57,1.19,3.15-.96,4.34-.39,7.13-1.19,1.64-.47,2.05.74,4.75,0,1.08-.3,3.36,2.31,4.16-.59.29-1.04.44-13.15,0-13.68-.22-.27-5.48,4.13-5.94,3.57-.35-.42-.72-10.27,1.78-5.95.61-1.52,2.86-1.07,2.97-1.19,1.77-1.86-2.37-5.04-2.38-5.35,0-.21,2.16-2.95,2.38-3.57,2.1-5.94,1.38-13.11,0-19.03-.69-2.96,1.11-4.27,1.19-4.76.23-1.5-.33-6.21,0-6.54.2-.2,1.11.24,1.78,0,.51-.19.81-1.19,1.19-1.19.4,0,.79,1.19,1.19,1.19s.73-1.11,1.19-1.19c3.04-.51,17.75.63,18.42,0-.65-1.77,1.2-2.77,1.19-2.97-.02-.41-1.11-.73-1.19-1.19-.66-4.02.94-10.87,0-14.27-1.01-3.66-5.74-.38-6.54-.59-3.08-.85-11.71-.84-15.45,0-1.86.42-11,.35-13.07,0-.45-.08-.79-1.19-1.19-1.19-.21,0-1.28,2.44-2.97-.59-.31-.56-2.21.43-2.38.59-.27.27-3.03-.2-4.16,0-.46.08-.79,1.19-1.19,1.19s-.73-1.11-1.19-1.19c-2.75-.46-9.53.77-11.88,1.19-3.6.64-12.39-1.65-13.67,2.97-.3,1.07-.53,14.34,0,14.87.21.21,1.14-.27,1.78,0,.51.21.77,1.12,1.19,1.19Z"/>
      <path class="cls-1" d="m.21,92.37c.99.06,1.91,1.98,2.51,2.15,1.18.34,1.57-1.73,2.51-1.08l-1.08,1.79c2.75-.38,1.37.53,1.79,1.79,1.89,5.73,4.43,11.63,5.74,17.23.14.61-.15,3.25,1.08,3.23,1.4-.03.92-3.2,1.08-3.95,1.22-5.87,4.6-13.02,5.74-18.67.14-.68-.17-2.34,0-2.51.21-.21,3.04.16,3.95,0,.25-.04.41-.59.72-.72,1.39-.58.92.71,1.08,1.08.12.3.62.44.72.72,2.01,5.55,2.04,12.03,5.02,17.23-.4,2.52,1.02,4.39,1.43,6.82,1.01,1.18,1.31-.11,1.43-1.08.15-1.1.42-2.55.72-3.59,1.07-3.78,2.75-8.34,3.59-11.49.55-2.07,1.85-4.27,2.15-5.74.23-1.12-.49-3.51,1.08-3.95s2.56.69,3.95.72c.38,1.18-.57,1.38-.72,1.79-.17.5-.66,1.93-.72,2.15-.16.67.18,2.33,0,2.51-.14.14-1.27-.14-1.43,0-.34.29.99.87.72,1.79-.16.55-.46,1.25-.72,2.15-1.02,3.58-2.44,7.31-3.59,10.77-.65,1.96-1.13,5.46-2.15,7.18-.44.73-1.75,1.44-2.15,2.15-.19.34.13.92,0,1.08-.29.36-.81-.65-1.08-.72-1.5-.4-3.32,1.44-3.59,1.44-.97,0,.36-.96.36-1.08,0-.13-1.27-1.75-1.43-2.15-.3-.75-.44-2.76-.72-3.59-.08-.24-.51-.41-.72-.72-.45-.67,1.82.18,1.43-1.08-2.75.13-1.79-1.89-2.15-3.23-.8-2.97-2.24-6.2-2.87-9.33l-1.08-3.23c-1.58.93-.81,2.1-1.08,3.23-.17.71-1.25,2.85-1.43,3.59-1.25,4.9-2.1,10.08-3.59,15.08-.08.27-.59.42-.72.72-.16.39.13.95,0,1.08-.23.23-6.23.23-6.46,0-.13-.13.16-.69,0-1.08-.12-.3-.62-.44-.72-.72-2.28-6.31-3.74-12.71-5.74-19.38-.75-2.51-.86-4.29-2.15-6.46l-.72-3.95Zm2.15,3.23c0,.47.72.47.72,0s-.72-.47-.72,0Zm2.15,2.87c0,.47.72.47.72,0s-.72-.47-.72,0Zm15.78,0c0,.47.72.47.72,0s-.72-.47-.72,0Zm3.59-5.38l-1.08,2.15c-.98-1.38-2.08-.62-2.51.72l3.23.72.36-3.59Zm-3.59.36c0,.47.72.47.72,0s-.72-.47-.72,0Zm5.02,3.95c-.14-.14-3.49-.34-2.87.72.86-.33,2.38,1.22,2.87.72.05-.05.05-1.39,0-1.44Zm-.72,2.51c0,.47.72.47.72,0s-.72-.47-.72,0Zm2.15,2.51c-.55-.46-2.01.24-1.43.72.55.46,2.01-.24,1.43-.72Zm-.72-1.08c0,.47.72.47.72,0s-.72-.47-.72,0Zm2.15,9.33c0,.47.72.47.72,0s-.72-.47-.72,0Zm2.15,10.41c-.46.55.24,2.01.72,1.44.46-.55-.24-2.01-.72-1.44Zm4.3-1.44c-.46.55.24,2.01.72,1.44.46-.55-.24-2.01-.72-1.44Zm3.59-14.72c0,.08,1,1.08,1.08,1.08,1.02,0-1.08-2.09-1.08-1.08Zm2.15-2.51c-.55-.46-2.01.24-1.43.72.55.46,2.01-.24,1.43-.72Zm.72-1.08c0,.47.72.47.72,0s-.72-.47-.72,0Zm1.43-7.18c0,.47.72.47.72,0s-.72-.47-.72,0Z"/>
      <path class="cls-1" d="m47.73,91.26c.31-.29,4.99-.15,4.99,1.07,0,.23-.63.42-.71.71-.26.94.65,1.14.71,1.43.12.55.14,3.78,0,3.92s-1.25-.14-1.42,0c-.36.29.66.83.71,1.07.2,1.02.18,4.63,0,5.7-.03.17-1.32,1.06-.36,1.07.18,0,.78-1.07,1.07-.71.15.18.09,3.86,0,4.63-.52,4.55-.7,5.28,0,9.98.68,4.56-.71,5.03-4.99,4.63.39-1.06-.72-1.66-.71-1.78.01-.25.67-.44.71-.71.09-.57.12-9.47,0-9.98-1.28-5.74.44-12.69.71-19.25,0-.1-1.31-1.21-.71-1.78Zm2.85,1.78c0,.46.71.46.71,0s-.71-.46-.71,0Z"/>
      <path class="cls-1" d="m47.73,79.2c.15-.15,4.12-.15,4.27,0,.2.2.2,5.5,0,5.7-.18.18-4.8.16-4.99,0-.15-.13.61-.94.71-1.78.1-.89-.18-3.74,0-3.92Z"/>
      <path class="cls-1" d="m54.93,91.37c.25-.25,3.77.62,4.23-1.06.16-.59.15-4.27,0-4.94-.06-.27-.63-.42-.7-.71-.25-.92.54-1.02.7-1.41s-.12-.93,0-1.06c.15-.15,1.25.15,1.76,0,.33-.1,3.08-2.93,3.88-2.12.19.19.19,2.81-.7,3.18.12,5.73-1.72,9.16,5.64,8.11-.39,1.07.7,1.62.7,1.76s-1.09.7-.7,1.76c-1.19-.34-1.58.95-2.47.71-.32-.09-.71-1.11-2.11-.71-1.72.49-.35,1.64-.35,1.76,0,.24-.7.47-.7.71,0,.38.24-.04,0,1.41-.39,2.33-.45,16.96,0,19.05.05.22,1.44,2.38,1.76,2.47,2.28.62,5.11-1.32,4.58,3.18l-2.11-.35,1.41,1.41c-1.16-.38-1.39.59-1.76.71-1.38.42-1.92-.67-2.11-.71-1.06-.19-2.61.25-3.52,0-.17-.05-2.42-2.3-2.47-2.47-.13-.44.13-.99,0-1.41-.11-.34-.96-.49-.7-1.41.09-.31.96-.48.7-1.41-1.4-5.07.27-10.47-.7-14.82-.53-2.38-.77-2.86,0-5.64.25-.92-.54-1.02-.7-1.41-.15-.36.32-1.62-1.06-1.06-.29.12-.44.62-.7.71-1.91.58-2.16-3.84-1.76-4.23Zm6.34,17.29c0,.46.7.46.7,0s-.7-.46-.7,0Zm7.05,12.7c0,.46.7.46.7,0s-.7-.46-.7,0Z"/>
      <path class="cls-1" d="m77.36,79.12v15.97l2.43-.69c1.78-2.39,3.05-2.35,5.55-2.78.27-.05.46-.69.69-.69s.46.69.69.69.41-.62.69-.69c.91-.25,1.11.63,1.39.69.81.18,1.97-.18,2.78,0,.27.06.42.63.69.69.62.14,1.5-.16,2.08,0,.26.07,3.74,3.56,3.82,3.82.16.58-.14,1.46,0,2.08.06.27.64.43.69.69.17.82-.14,1.92,0,2.78.08.46,1.34.5,0,1.39-.57,2.77.75,20.43,0,21.18-.17.17-4.86.24-4.86,0v-23.96c0-.22-.6-.4-.69-.69-.13-.41.12-.95,0-1.39-.04-.13-1.44-1.55-1.73-1.74-.16-.1-.52.11-.69,0-1.37-.82-2.4-1.8-4.16-1.39-.27.06-.43.65-.69.69-.85.15-1.98-.18-2.78,0-.25.06-.39.56-.69.69-.22.1-.54-.09-.69,0-.42.25-2.87,2.7-3.12,3.13-.09.15.1.48,0,.69-.14.3-.64.45-.69.69-.26,1.15.16,2.88,0,4.17-.03.26-.67.44-.69.69-.26,2.83.34,5.61,0,7.64-.3,1.78.38,10.38,0,10.77-.15.15-4.02.15-4.16,0-.08-.08.2-1.38-.69-1.74.81-10.43-1.09-22.42,0-32.64.16-1.51.91-7.63.69-8.33-.1-.32-.95-.48-.69-1.39.41-1.48,3.46-.99,4.86-1.04Zm18.04,38.55c0,.45.69.45.69,0s-.69-.45-.69,0Z"/>
    </g>
  </g>
</svg>
