<svg preserveAspectRatio="none" width="100%" height="100%" overflow="visible" style="display: block;" viewBox="0 0 16 16" fill="none" xmlns="http://www.w3.org/2000/svg">
<g id="Group 1000000916">
<path id="Ellipse 1119" d="M16 8C16 12.4183 12.4182 16 7.99996 16C3.58168 16 -4.1008e-05 12.4183 -4.1008e-05 8C-4.1008e-05 3.58172 3.58168 0 7.99996 0C12.4182 0 16 3.58172 16 8Z" fill="var(--fill-0, #7A7A7A)"/>
<path id="Vector 6 (Stroke)" d="M12.4648 6.26933C12.6436 6.23662 12.8273 6.29052 12.9602 6.41455C13.0931 6.53858 13.1595 6.71813 13.1392 6.89876L12.7957 9.94734C12.7601 10.2626 12.4756 10.4894 12.1603 10.4539C11.845 10.4184 11.6182 10.1339 11.6538 9.81861L11.8007 8.51462L7.40395 12.2937C7.16332 12.5005 6.80066 12.4731 6.59384 12.2325C6.38701 11.9918 6.41444 11.629 6.65508 11.4221L10.9733 7.71058L9.62327 7.9578C9.31116 8.01495 9.01175 7.80826 8.9546 7.49615C8.89745 7.18404 9.10415 6.88464 9.41624 6.82747L12.4648 6.26933Z" fill="var(--fill-0, white)"/>
<path id="Vector 7 (Stroke)" d="M3.50482 9.91114C3.32602 9.94384 3.14231 9.88994 3.00943 9.76591C2.87656 9.64188 2.81012 9.46233 2.83045 9.2817L3.17399 6.23312C3.20956 5.91785 3.49401 5.69101 3.8093 5.72654C4.1246 5.76207 4.3514 6.04655 4.31588 6.36185L4.16895 7.66584L8.5657 3.88677C8.80633 3.67999 9.16899 3.70741 9.37581 3.94801C9.58264 4.18865 9.55521 4.55148 9.31457 4.75831L4.99631 8.46989L6.34637 8.22266C6.65849 8.16551 6.9579 8.3722 7.01505 8.68431C7.0722 8.99642 6.8655 9.29582 6.5534 9.35299L3.50482 9.91114Z" fill="var(--fill-0, white)"/>
</g>
</svg>
