<svg preserveAspectRatio="none" width="100%" height="100%" overflow="visible" style="display: block;" viewBox="0 0 12 12" fill="none" xmlns="http://www.w3.org/2000/svg">
<g id="Frame 1618869847">
<rect x="0.236003" y="0.236003" width="11.528" height="11.528" rx="5.764" fill="var(--fill-0, #5B5B5B)" fill-opacity="0.2"/>
<rect x="0.236003" y="0.236003" width="11.528" height="11.528" rx="5.764" stroke="var(--stroke-0, #7A7A7A)" stroke-width="0.472006"/>
<path id="!" d="M6.91699 3L6.35337 7.1913H5.42004L5.08301 3H6.91699ZM5.8867 9C5.71086 9 5.56013 8.93816 5.43453 8.81449C5.31086 8.69082 5.24902 8.5401 5.24902 8.36232C5.24902 8.18841 5.31086 8.03961 5.43453 7.91594C5.56013 7.79227 5.71086 7.73043 5.8867 7.73043C6.05869 7.73043 6.20748 7.79227 6.33308 7.91594C6.46062 8.03961 6.52439 8.18841 6.52439 8.36232C6.52439 8.48019 6.49443 8.58744 6.43453 8.68406C6.37656 8.78068 6.29927 8.85797 6.20265 8.91594C6.10796 8.97198 6.00265 9 5.8867 9Z" fill="var(--fill-0, #626262)"/>
</g>
</svg>
